<?xml version="1.0" encoding="UTF-8"?> <svg xmlns="http://www.w3.org/2000/svg" width="1920" height="1812" viewBox="0 0 1920 1812" fill="none"><g clip-path="url(#clip0_1080_1916)"><path fill-rule="evenodd" clip-rule="evenodd" d="M1998.75 438.763C1949.42 436.833 1885.6 429.693 1855.65 468.933C1820.07 515.545 1881.28 597.428 1843.43 642.22C1803.84 689.072 1701.7 639.211 1668.3 690.656C1640.98 732.737 1710.7 780.362 1722 829.244C1733.27 877.951 1705.17 936.327 1734.49 976.817C1763.57 1016.97 1826.36 1009.92 1869.95 1033.52C1915.99 1058.45 1947.09 1111.45 1998.75 1119.89C2050.78 1128.39 2102.63 1103.27 2149.54 1079.2C2195.85 1055.45 2246.35 1028.38 2268.74 981.387C2291.03 934.589 2274.39 879.413 2269.29 827.828C2265.29 787.381 2248.06 750.751 2241.95 710.57C2235.32 666.979 2249.96 620.463 2231.63 580.36C2212.23 537.897 2176.44 504.177 2136.55 479.922C2095.07 454.7 2047.26 440.661 1998.75 438.763Z" fill="#E6FBE9"></path><path fill-rule="evenodd" clip-rule="evenodd" d="M2.95851 31.4683C44.8968 44.4071 48.7034 106.385 58.0371 149.296C65.4212 183.244 33.6361 221.865 50.9248 251.988C76.931 297.301 154.314 299.024 172.157 348.136C187.276 389.75 169.328 450.361 131.14 472.777C86.4308 499.021 23.9871 438.162 -21.9941 462.103C-67.0616 485.568 -47.2233 590.832 -97.9992 592.084C-149.389 593.352 -153.742 507.972 -183.552 466.088C-199.245 444.037 -211.76 419.869 -232.734 402.771C-259.061 381.311 -297.607 378.964 -320.835 354.18C-348.783 324.36 -392.671 285.804 -378.218 247.543C-362.289 205.379 -284.169 225.761 -258.362 188.809C-231.728 150.674 -280.15 78.1467 -241.669 52.0323C-205.503 27.4884 -162.985 98.1977 -119.449 94.538C-73.1452 90.6455 -41.4356 17.7718 2.95851 31.4683Z" fill="#E6FBE9"></path><path fill-rule="evenodd" clip-rule="evenodd" d="M-94.751 1852.68C-145.248 1858.06 -177.576 1793.88 -207.081 1752.5C-230.422 1719.76 -214.248 1664.17 -246.376 1640.03C-294.704 1603.7 -377.771 1637.19 -419.154 1593.1C-454.218 1555.73 -462.79 1483.08 -432.414 1441.8C-396.85 1393.48 -302.684 1429.71 -264.716 1383.26C-227.504 1337.73 -296.629 1234.83 -243.211 1210.32C-189.147 1185.51 -145.559 1274.34 -94.751 1305.28C-68.0026 1321.57 -43.6677 1341.57 -13.564 1350.18C24.221 1360.99 66.2772 1345.89 102.284 1361.65C145.608 1380.61 209.868 1401.58 211.958 1448.88C214.26 1500.99 121.896 1514.97 111.316 1566.05C100.397 1618.77 184.978 1673.81 155.978 1719.15C128.721 1761.77 51.248 1705.96 6.62648 1729.73C-40.8326 1755 -41.2971 1846.99 -94.751 1852.68Z" fill="#E6FBE9"></path></g><defs><clipPath id="clip0_1080_1916"><rect width="1920" height="1812" fill="white"></rect></clipPath></defs></svg> 