<?xml version="1.0" encoding="UTF-8"?> <svg xmlns="http://www.w3.org/2000/svg" width="265" height="200" viewBox="0 0 265 200" fill="none"><rect width="265" height="200" fill="white"></rect><path d="M83.1661 132.055C83.1661 133.161 84.0615 134.058 85.1693 134.058C86.2772 134.058 87.1726 133.161 87.1726 132.055C87.1726 130.948 86.2772 130.051 85.1693 130.051C84.0615 130.051 83.1661 130.948 83.1661 132.055ZM179.831 130.051C178.723 130.051 177.827 130.948 177.827 132.055C177.827 133.161 178.723 134.058 179.831 134.058C180.938 134.058 181.834 133.161 181.834 132.055C181.834 130.948 180.938 130.051 179.831 130.051ZM171.88 140.356C172.821 141.434 173.308 142.48 173.341 143.492C173.37 144.505 172.919 145.418 171.988 146.231L170.844 147.228L164.498 139.952L165.707 138.895C166.609 138.109 167.55 137.798 168.534 137.962C169.514 138.124 170.481 138.753 171.435 139.845L171.88 140.356ZM164.432 137.431L163.22 138.488L161.406 140.071L170.301 150.266L171.102 149.57L173.259 147.688C174.19 146.874 174.837 145.959 175.193 144.945C175.55 143.93 175.602 142.89 175.35 141.824C175.099 140.758 174.55 139.738 173.7 138.767L173.265 138.271C172.426 137.304 171.491 136.623 170.465 136.226C169.442 135.829 168.406 135.733 167.36 135.938C166.315 136.144 165.338 136.641 164.432 137.431ZM160.651 153.829L158.678 150.246L163.521 147.58L162.606 145.919L157.763 148.587L155.995 145.371L161.609 142.278L160.674 140.577L155.053 143.67L152.949 144.83L159.475 156.682L161.021 155.831L167.249 152.401L166.315 150.709L160.651 153.829ZM155.645 158.206L150.936 145.522L148.688 146.356L153.4 159.041L155.645 158.206ZM147.965 148.851L147.554 146.952L141.475 148.266L139.126 148.775L141.985 162.001L144.338 161.492L143.132 155.916L148.442 154.765L148.037 152.876L142.724 154.026L141.887 150.164L147.965 148.851ZM137.903 162.384L136.992 148.882L134.6 149.044L135.511 162.545L137.903 162.384ZM133.479 149.361L129.289 148.986L122.75 148.401L122.58 150.336L126.727 150.707L125.695 162.25L128.083 162.464L129.113 150.921L133.309 151.296L133.479 149.361ZM115.316 148.104L117.6 148.805C118.407 149.054 118.946 149.426 119.221 149.926C119.495 150.425 119.528 151.016 119.319 151.697C119.12 152.336 118.76 152.785 118.237 153.046C117.714 153.306 117.064 153.318 116.296 153.081L114.002 152.377L115.316 148.104ZM118.211 155.099C119.064 155.011 119.783 154.734 120.374 154.268C120.966 153.8 121.391 153.141 121.652 152.288C122.041 151.028 121.933 149.937 121.322 149.018C120.714 148.098 119.662 147.408 118.172 146.949L113.587 145.54L109.613 158.474L111.914 159.181L113.437 154.225L115.897 154.981L116.94 160.727L119.41 161.485L119.443 161.37L118.211 155.099ZM101.515 152.249L103.489 148.67L108.329 151.345L109.247 149.684L104.404 147.011L106.179 143.799L111.796 146.897L112.734 145.198L107.12 142.097L105.012 140.934L98.473 152.779L100.019 153.632L106.241 157.07L107.175 155.377L101.515 152.249ZM98.0972 147.341L96.2868 145.767C95.8423 146.168 95.411 146.445 95.0025 146.602C94.5907 146.757 94.1659 146.777 93.728 146.663C93.2901 146.548 92.826 146.281 92.3424 145.857C91.5516 145.171 91.2248 144.371 91.3686 143.458C91.5091 142.546 92.0418 141.556 92.9698 140.491L93.6822 139.672C94.6267 138.586 95.5482 137.93 96.4501 137.7C97.3521 137.469 98.1919 137.695 98.973 138.374C99.6723 138.98 100.032 139.596 100.058 140.222C100.084 140.848 99.839 141.536 99.3259 142.289L101.136 143.862C101.672 143.104 102.012 142.324 102.159 141.518C102.303 140.713 102.225 139.917 101.917 139.127C101.607 138.339 101.055 137.596 100.254 136.902C99.4076 136.166 98.4958 135.721 97.5155 135.567C96.5384 135.414 95.5613 135.552 94.5809 135.982C93.6038 136.413 92.692 137.116 91.8391 138.092L91.1398 138.9C90.2902 139.877 89.715 140.875 89.4176 141.897C89.1202 142.919 89.1104 143.899 89.3882 144.834C89.666 145.77 90.2215 146.602 91.0614 147.33C91.8751 148.037 92.6986 148.497 93.5352 148.705C94.3685 148.916 95.1757 148.897 95.9502 148.653C96.7279 148.408 97.4403 147.971 98.0972 147.341ZM184.948 117.321C184.471 117.983 184.066 118.47 183.726 118.783C183.389 119.096 183.076 119.285 182.788 119.35C182.501 119.414 182.184 119.386 181.831 119.265C181.314 119.087 180.971 118.75 180.804 118.253C180.635 117.755 180.677 117.138 180.932 116.4C181.216 115.568 181.631 114.965 182.177 114.593C182.723 114.22 183.38 114.166 184.144 114.43L184.929 112.155C184.063 111.856 183.239 111.839 182.461 112.105C181.68 112.37 181.004 112.835 180.432 113.5C179.857 114.164 179.425 114.924 179.128 115.779C178.811 116.698 178.677 117.551 178.726 118.337C178.772 119.124 178.994 119.795 179.393 120.352C179.791 120.908 180.347 121.309 181.059 121.556C181.733 121.788 182.376 121.838 182.984 121.707C183.592 121.576 184.187 121.266 184.772 120.775C185.353 120.284 185.955 119.602 186.576 118.728C187.167 117.889 187.696 117.308 188.161 116.984C188.625 116.659 189.089 116.575 189.543 116.733C190.059 116.91 190.412 117.246 190.598 117.74C190.785 118.233 190.752 118.849 190.497 119.587C190.226 120.372 189.834 120.9 189.314 121.17C188.795 121.44 188.216 121.465 187.576 121.245L186.795 123.512C187.517 123.76 188.239 123.799 188.961 123.629C189.687 123.459 190.34 123.084 190.932 122.504C191.523 121.924 191.977 121.168 192.298 120.237C192.605 119.347 192.726 118.504 192.664 117.709C192.598 116.914 192.363 116.232 191.958 115.662C191.549 115.093 191.004 114.69 190.321 114.454C189.34 114.117 188.422 114.21 187.559 114.732C186.7 115.255 185.827 116.118 184.948 117.321ZM195.033 110.519L195.236 107.404L185.21 102.906L195.736 99.7346L195.804 98.6585L195.935 96.6184L182.432 95.7416L182.278 98.1441L186.634 98.4271L192.641 98.5749L182.036 101.835L181.925 103.55L192.03 108.155L186.043 107.533L181.687 107.25L181.533 109.644L195.033 110.519ZM182.723 87.9503L186.732 87.1545L187.808 92.5779L189.667 92.209L188.592 86.7852L192.193 86.0712L193.441 92.3609L195.347 91.9832L194.098 85.6931L193.628 83.3324L180.357 85.9657L180.7 87.6976L182.086 94.6704L183.978 94.2949L182.723 87.9503ZM192.605 79.5403L190.945 75.6711L188.36 69.6405L186.576 70.4055L188.216 74.2326L177.566 78.7978L178.51 81.0017L189.161 76.4361L190.821 80.3053L192.605 79.5403ZM177.334 66.9491C177.599 67.7196 177.759 68.3334 177.821 68.7896C177.883 69.2451 177.857 69.6095 177.742 69.8817C177.631 70.1542 177.425 70.3993 177.122 70.6163C176.68 70.9349 176.207 71.0199 175.703 70.8715C175.2 70.7232 174.72 70.3323 174.262 69.6987C173.749 68.985 173.497 68.2984 173.504 67.6386C173.514 66.9791 173.847 66.4118 174.507 65.9373L173.102 63.9848C172.357 64.5204 171.87 65.1838 171.635 65.9736C171.403 66.7635 171.393 67.584 171.605 68.435C171.818 69.2863 172.187 70.0787 172.716 70.8127C173.285 71.6019 173.903 72.2042 174.573 72.6189C175.243 73.0339 175.919 73.2391 176.605 73.2349C177.288 73.2306 177.939 73.0074 178.55 72.5656C179.128 72.1493 179.54 71.6549 179.785 71.0817C180.027 70.5088 180.115 69.8431 180.05 69.0843C179.984 68.3262 179.775 67.4409 179.419 66.4292C179.076 65.4635 178.906 64.6965 178.909 64.1292C178.912 63.5616 179.108 63.1368 179.501 62.8541C179.945 62.5355 180.422 62.442 180.932 62.5737C181.442 62.7057 181.929 63.0884 182.383 63.7217C182.87 64.3949 183.072 65.022 182.994 65.6017C182.916 66.1814 182.602 66.6687 182.053 67.0631L183.455 69.0085C184.076 68.5628 184.523 67.9958 184.801 67.3063C185.079 66.6174 185.151 65.8638 185.017 65.0481C184.883 64.2318 184.53 63.424 183.951 62.625C183.402 61.861 182.785 61.2757 182.099 60.8692C181.412 60.4623 180.72 60.261 180.02 60.2649C179.321 60.2688 178.674 60.4829 178.089 60.9064C177.249 61.5113 176.795 62.3165 176.723 63.3214C176.654 64.3266 176.857 65.5354 177.334 66.9491ZM170.36 57.233L172.318 50.4442L170.334 48.6658L167.998 58.0623L164.684 61.7675L166.488 63.3848L169.805 59.6796L178.886 56.3186L176.896 54.5402L170.36 57.233ZM159.455 51.1132C160.021 51.7004 160.429 52.188 160.677 52.5759C160.923 52.9631 161.053 53.3046 161.066 53.5997C161.079 53.8935 160.994 54.2033 160.811 54.5275C160.543 55.0029 160.151 55.2794 159.632 55.3569C159.112 55.4346 158.511 55.2823 157.831 54.9C157.063 54.4696 156.547 53.953 156.276 53.3504C156.008 52.7481 156.073 52.0929 156.468 51.3854L154.37 50.207C153.923 51.0066 153.759 51.8131 153.877 52.6278C154.001 53.4422 154.338 54.1909 154.887 54.8732C155.439 55.5555 156.109 56.1183 156.897 56.5614C157.746 57.0375 158.56 57.3225 159.341 57.4173C160.125 57.5117 160.825 57.4127 161.445 57.1209C162.063 56.8287 162.557 56.3532 162.926 55.6941C163.275 55.0732 163.442 54.451 163.419 53.8291C163.4 53.2066 163.2 52.5651 162.821 51.905C162.442 51.2445 161.88 50.5305 161.132 49.7619C160.413 49.0312 159.936 48.4077 159.697 47.8917C159.462 47.3753 159.462 46.9067 159.7 46.4852C159.965 46.01 160.36 45.7244 160.877 45.6286C161.396 45.5326 161.998 45.676 162.677 46.058C163.403 46.4646 163.851 46.9476 164.024 47.5061C164.197 48.0652 164.119 48.639 163.785 49.2279L165.877 50.4017C166.249 49.7374 166.419 49.0341 166.38 48.2913C166.344 47.5489 166.089 46.8355 165.625 46.1522C165.161 45.4682 164.501 44.8849 163.638 44.4025C162.818 43.9414 162.011 43.6715 161.217 43.5914C160.423 43.512 159.71 43.6212 159.079 43.9192C158.446 44.2176 157.952 44.6829 157.596 45.3149C157.089 46.2172 157.014 47.1384 157.377 48.0796C157.736 49.0207 158.429 50.0315 159.455 51.1132ZM143.943 43.9202L142.227 37.0648L139.616 36.5246L142.315 45.8227L141.305 50.6919L143.681 51.1834L144.688 46.3142L150.857 38.8504L148.243 38.3095L143.943 43.9202ZM136.658 36.2896L132.446 36.374L125.887 36.5053L125.927 38.4471L130.09 38.3638L130.322 49.9501L132.717 49.9021L132.485 38.3157L136.694 38.2317L136.658 36.2896ZM118.976 49.7769L118.025 45.8002L123.401 44.512L122.959 42.6682L117.58 43.9565L116.727 40.3866L122.963 38.8932L122.508 37.004L116.273 38.4977L113.933 39.0585L117.087 52.2174L118.803 51.806L125.717 50.1498L125.266 48.2698L118.976 49.7769ZM111.051 42.0271L110.234 40.2647L104.594 42.8777L102.411 43.8891L108.097 56.1666L110.28 55.1556L107.885 49.9779L112.816 47.693L112.002 45.9391L107.071 48.2237L105.411 44.6401L111.051 42.0271ZM97.7606 57.296L95.9109 51.7216L100.813 54.9562L97.7606 57.296ZM105.277 57.8944L107.277 56.3624L94.9796 48.7351L94.5319 49.0802L93.2639 50.0517L97.4403 63.8959L99.4403 62.3642L98.4076 59.2447L102.532 56.0856L105.277 57.8944ZM89.5876 64.4694C90.2673 64.0158 90.8163 63.7001 91.2444 63.524C91.6659 63.3482 92.0254 63.2799 92.3195 63.3194C92.6104 63.3593 92.9012 63.4969 93.1888 63.7322C93.6104 64.0782 93.8129 64.5142 93.7999 65.0393C93.7835 65.5645 93.5286 66.1288 93.0352 66.7321C92.4764 67.4121 91.8751 67.8324 91.2378 67.9922C90.5941 68.1517 89.9634 67.9739 89.3359 67.4592L87.8098 69.3196C88.5157 69.9013 89.2836 70.2036 90.1071 70.2258C90.9306 70.2487 91.7247 70.048 92.4927 69.6248C93.2607 69.2013 93.9339 68.6402 94.5057 67.9409C95.1234 67.1889 95.5482 66.4364 95.7769 65.6831C96.0057 64.9298 96.0319 64.2233 95.8521 63.5626C95.6724 62.9024 95.2901 62.3328 94.7084 61.8531C94.1561 61.4008 93.5711 61.1303 92.9568 61.0414C92.3391 60.9525 91.6725 61.0365 90.9568 61.2943C90.2411 61.5522 89.4372 61.9819 88.5516 62.5841C87.7085 63.1645 87.0092 63.5263 86.4602 63.6681C85.9112 63.8103 85.4471 63.7279 85.0746 63.4214C84.653 63.0756 84.4406 62.6384 84.4373 62.1106C84.4341 61.5829 84.6792 61.0169 85.1759 60.4133C85.702 59.7721 86.2576 59.4153 86.836 59.3424C87.4177 59.2698 87.9667 59.4479 88.4895 59.8764L90.0124 58.0231C89.4209 57.5395 88.7575 57.2516 88.0222 57.1588C87.2837 57.0666 86.5353 57.1895 85.7837 57.5281C85.0288 57.8663 84.3393 58.4159 83.7151 59.1774C83.1171 59.9058 82.7086 60.6531 82.4929 61.4208C82.274 62.1881 82.2576 62.9096 82.4407 63.5848C82.6237 64.2603 82.9929 64.8276 83.555 65.2877C84.3556 65.9442 85.2511 66.1775 86.238 65.9877C87.2281 65.7981 88.3458 65.2923 89.5876 64.4694ZM81.372 76.4721C82.7053 76.9933 83.6204 77.6956 84.1171 78.5779C84.6105 79.4609 84.6367 80.4789 84.1824 81.6331L83.6302 83.0438L74.6402 79.5256L75.2251 78.0283C75.663 76.9152 76.3525 76.2041 77.297 75.8953C78.2414 75.5868 79.3917 75.6963 80.7413 76.2247L81.372 76.4721ZM73.4147 77.3211L72.8298 78.8178L71.9539 81.0595L84.555 85.9898L84.9406 85.0029L85.9831 82.3373C86.434 81.1837 86.5843 80.0743 86.4307 79.0102C86.2804 77.9462 85.8458 76.9995 85.1269 76.1701C84.4112 75.3407 83.4537 74.6911 82.2544 74.2218L81.6368 73.9813C80.444 73.5143 79.3002 73.3414 78.2087 73.4627C77.1172 73.5846 76.1532 73.9783 75.3232 74.6434C74.4899 75.309 73.8526 76.2015 73.4147 77.3211ZM76.7022 88.9319L77.3917 89.0225C78.8786 89.2189 79.9799 89.6437 80.6923 90.2966C81.4047 90.9502 81.6956 91.7868 81.5616 92.8063C81.4733 93.4638 81.225 94.0099 80.8067 94.4455C80.3884 94.8815 79.8198 95.1828 79.0976 95.3498C78.3787 95.5168 77.529 95.5364 76.5519 95.4076L75.8591 95.3164C74.882 95.1877 74.0683 94.9508 73.418 94.606C72.7677 94.2606 72.2971 93.8253 72.0095 93.3001C71.7219 92.7747 71.6239 92.1835 71.7088 91.526C71.8461 90.5064 72.3396 89.7708 73.1957 89.3179C74.0519 88.8649 75.2219 88.7368 76.7022 88.9319ZM77.7087 86.6274L77.0355 86.5385C75.6957 86.3621 74.5029 86.4421 73.4507 86.7784C72.4017 87.115 71.5553 87.6708 70.918 88.4453C70.2775 89.2205 69.8854 90.1607 69.7383 91.2662C69.5945 92.3596 69.7318 93.3639 70.1533 94.2785C70.5716 95.1929 71.2448 95.9501 72.1729 96.5507C73.0977 97.1507 74.2284 97.5389 75.5617 97.7144L76.2349 97.8033C77.5682 97.9788 78.761 97.8958 79.8132 97.553C80.8622 97.2105 81.7086 96.6497 82.3492 95.8723C82.9864 95.0939 83.3785 94.1583 83.5223 93.0648C83.6694 91.9596 83.5354 90.9508 83.1171 90.0401C82.6988 89.1287 82.0289 88.3767 81.1041 87.7826C80.1792 87.1888 79.0486 86.8039 77.7087 86.6274ZM75.8166 102.989L76.5062 102.907C77.9963 102.729 79.1662 102.868 80.0191 103.324C80.8753 103.78 81.3622 104.519 81.4832 105.54C81.5616 106.198 81.4538 106.79 81.1564 107.315C80.8623 107.841 80.3851 108.274 79.7283 108.614C79.0682 108.955 78.2512 109.184 77.2741 109.301L76.5813 109.384C75.6042 109.501 74.7546 109.473 74.0389 109.3C73.3232 109.127 72.7611 108.821 72.3494 108.383C71.9442 107.946 71.6991 107.398 71.6206 106.739C71.4997 105.718 71.7971 104.882 72.516 104.232C73.2317 103.581 74.333 103.167 75.8166 102.989ZM76.2186 100.508L75.5454 100.589C74.2055 100.749 73.0683 101.122 72.1337 101.708C71.1991 102.294 70.5193 103.042 70.088 103.951C69.6599 104.86 69.5128 105.869 69.6468 106.976C69.7775 108.071 70.1599 109.01 70.7938 109.791C71.4245 110.573 72.2677 111.141 73.3134 111.493C74.3624 111.845 75.5519 111.941 76.8885 111.781L77.5584 111.7C78.895 111.541 80.0289 111.164 80.9636 110.572C81.8949 109.98 82.5779 109.228 83.0027 108.316C83.4308 107.403 83.5811 106.4 83.4472 105.305C83.3164 104.198 82.9341 103.254 82.3034 102.475C81.676 101.696 80.8394 101.132 79.7937 100.786C78.7545 100.44 77.5617 100.347 76.2186 100.508ZM73.2742 115.47L71.4442 116.118L73.5193 121.979L74.3232 124.247L87.0745 119.731L86.2739 117.462L80.8949 119.367L79.078 114.242L77.2578 114.887L79.0715 120.012L75.3493 121.331L73.2742 115.47ZM161.609 99.168H158.893V94.52H161.609C162.161 94.52 162.625 94.6321 162.998 94.8563C163.367 95.0808 163.641 95.3788 163.818 95.7504C163.991 96.122 164.079 96.5321 164.079 96.9804C164.079 97.6536 163.877 98.1863 163.468 98.5791C163.063 98.9719 162.442 99.168 161.609 99.168ZM161.609 91.8489H155.593V107.16H158.893V101.839H161.609C162.798 101.839 163.834 101.639 164.71 101.24C165.586 100.84 166.256 100.272 166.72 99.5359C167.184 98.7997 167.413 97.9412 167.413 96.9595C167.413 95.971 167.181 95.0913 166.713 94.32C166.246 93.5492 165.576 92.9443 164.7 92.5064C163.824 92.0681 162.792 91.8489 161.609 91.8489ZM153.606 102.028H150.315C150.253 102.926 149.985 103.59 149.521 104.021C149.054 104.452 148.348 104.668 147.403 104.668C146.671 104.668 146.086 104.5 145.645 104.163C145.204 103.827 144.88 103.317 144.678 102.633C144.475 101.95 144.374 101.064 144.374 99.9774V99.0206C144.374 97.4082 144.622 96.2236 145.119 95.4664C145.616 94.7092 146.38 94.3305 147.413 94.3305C148.4 94.3305 149.116 94.5566 149.563 95.0089C150.008 95.4609 150.263 96.1497 150.325 97.0752H153.616C153.518 96.0027 153.223 95.0579 152.727 94.241C152.233 93.4246 151.537 92.7848 150.642 92.322C149.743 91.8593 148.668 91.628 147.413 91.628C146.129 91.628 145.008 91.9296 144.047 92.5322C143.086 93.1354 142.345 93.9959 141.818 95.1141C141.292 96.2321 141.031 97.5419 141.031 99.0418V99.9774C141.031 101.485 141.282 102.794 141.792 103.905C142.299 105.017 143.034 105.872 143.995 106.471C144.956 107.07 146.09 107.37 147.403 107.37C148.629 107.37 149.697 107.146 150.609 106.697C151.521 106.249 152.23 105.621 152.736 104.815C153.246 104.009 153.537 103.08 153.606 102.028ZM139.495 102.028H136.201C136.139 102.926 135.874 103.59 135.407 104.021C134.943 104.452 134.234 104.668 133.289 104.668C132.56 104.668 131.975 104.5 131.534 104.163C131.09 103.827 130.77 103.317 130.564 102.633C130.361 101.95 130.26 101.064 130.26 99.9774V99.0206C130.26 97.4082 130.511 96.2236 131.008 95.4664C131.505 94.7092 132.27 94.3305 133.299 94.3305C134.289 94.3305 135.005 94.5566 135.449 95.0089C135.897 95.4609 136.149 96.1497 136.214 97.0752H139.505C139.403 96.0027 139.109 95.0579 138.616 94.241C138.122 93.4246 137.426 92.7848 136.528 92.322C135.629 91.8593 134.554 91.628 133.299 91.628C132.015 91.628 130.894 91.9296 129.933 92.5322C128.972 93.1354 128.23 93.9959 127.704 95.1141C127.178 96.2321 126.917 97.5419 126.917 99.0418V99.9774C126.917 101.485 127.172 102.794 127.678 103.905C128.188 105.017 128.92 105.872 129.881 106.471C130.842 107.07 131.979 107.37 133.289 107.37C134.515 107.37 135.587 107.146 136.498 106.697C137.407 106.249 138.119 105.621 138.626 104.815C139.135 104.009 139.423 103.08 139.495 102.028ZM116.946 101.45L118.776 95.8661L120.62 101.45H116.946ZM122.499 107.16H126.021L120.312 91.8489H119.473H117.244L111.564 107.16H115.074L116.074 104.121H121.502L122.499 107.16ZM106.852 91.8489V98.0007H100.888V91.8489H97.5874V107.16H100.888V100.661H106.852V107.16H110.143V91.8489H106.852ZM203.245 99.4993C203.245 138.508 171.511 170.245 132.498 170.245C93.4894 170.245 61.7548 138.508 61.7548 99.4993C61.7548 60.4901 93.4894 28.7538 132.498 28.7538C171.511 28.7538 203.245 60.4901 203.245 99.4993ZM206 99.4993C206 58.9712 173.03 25.999 132.498 25.999C91.9731 25.999 59 58.9712 59 99.4993C59 140.027 91.9731 173 132.498 173C173.03 173 206 140.027 206 99.4993ZM200.239 99.4993C200.239 136.713 169.965 166.99 132.75 166.99C95.5384 166.99 65.2613 136.713 65.2613 99.4993C65.2613 62.2851 95.5384 32.0093 132.75 32.0093C169.965 32.0093 200.239 62.2851 200.239 99.4993ZM201.494 99.4993C201.494 61.595 170.654 30.7571 132.75 30.7571C94.8456 30.7571 64.0097 61.595 64.0097 99.4993C64.0097 137.404 94.8456 168.242 132.75 168.242C170.654 168.242 201.494 137.404 201.494 99.4993ZM171.69 99.4993C171.69 121.109 154.109 138.692 132.498 138.692C110.891 138.692 93.3097 121.109 93.3097 99.4993C93.3097 77.889 110.891 60.3074 132.498 60.3074C154.109 60.3074 171.69 77.889 171.69 99.4993ZM172.945 99.4993C172.945 77.1982 154.802 59.0555 132.498 59.0555C110.198 59.0555 92.0548 77.1982 92.0548 99.4993C92.0548 121.8 110.198 139.944 132.498 139.944C154.802 139.944 172.945 121.8 172.945 99.4993ZM175.197 99.4993C175.197 123.043 156.044 142.197 132.498 142.197C108.956 142.197 89.8032 123.043 89.8032 99.4993C89.8032 75.9557 108.956 56.8016 132.498 56.8016C156.044 56.8016 175.197 75.9557 175.197 99.4993ZM177.952 99.4993C177.952 74.4368 157.563 54.0468 132.498 54.0468C107.437 54.0468 87.0484 74.4368 87.0484 99.4993C87.0484 124.562 107.437 144.952 132.498 144.952C157.563 144.952 177.952 124.562 177.952 99.4993ZM110.362 118.103L105.767 118.627L109.172 121.751L108.254 126.281L112.28 124.007L116.303 126.281L115.381 121.751L118.79 118.627L114.198 118.103L112.28 113.897L110.362 118.103ZM150.805 118.103L146.21 118.627L149.619 121.751L148.697 126.281L152.723 124.007L156.746 126.281L155.828 121.751L159.233 118.627L154.642 118.103L152.723 113.897L150.805 118.103ZM130.58 124.906L125.989 125.43L129.397 128.555L128.476 133.085L132.498 130.81L136.524 133.085L135.603 128.555L139.011 125.43L134.417 124.906L132.498 120.7L130.58 124.906ZM110.362 76.9227L105.767 77.4472L109.172 80.5717L108.254 85.1016L112.28 82.8265L116.303 85.1016L115.381 80.5717L118.79 77.4472L114.198 76.9227L112.28 72.7169L110.362 76.9227ZM150.805 76.9227L146.21 77.4472L149.619 80.5717L148.697 85.1016L152.723 82.8265L156.746 85.1016L155.828 80.5717L159.233 77.4472L154.642 76.9227L152.723 72.7169L150.805 76.9227ZM132.498 65.9135L134.417 70.1193L139.011 70.6441L135.603 73.7682L136.524 78.2985L132.498 76.0234L128.476 78.2985L129.397 73.7682L125.989 70.6441L130.58 70.1193L132.498 65.9135Z" fill="#343EAD"></path><path d="M83.1661 132.055C83.1661 133.161 84.0615 134.058 85.1693 134.058C86.2772 134.058 87.1726 133.161 87.1726 132.055C87.1726 130.948 86.2772 130.051 85.1693 130.051C84.0615 130.051 83.1661 130.948 83.1661 132.055ZM179.831 130.051C178.723 130.051 177.827 130.948 177.827 132.055C177.827 133.161 178.723 134.058 179.831 134.058C180.938 134.058 181.834 133.161 181.834 132.055C181.834 130.948 180.938 130.051 179.831 130.051ZM171.88 140.356C172.821 141.434 173.308 142.48 173.341 143.492C173.37 144.505 172.919 145.418 171.988 146.231L170.844 147.228L164.498 139.952L165.707 138.895C166.609 138.109 167.55 137.798 168.534 137.962C169.514 138.124 170.481 138.753 171.435 139.845L171.88 140.356ZM164.432 137.431L163.22 138.488L161.406 140.071L170.301 150.266L171.102 149.57L173.259 147.688C174.19 146.874 174.837 145.959 175.193 144.945C175.55 143.93 175.602 142.89 175.35 141.824C175.099 140.758 174.55 139.738 173.7 138.767L173.265 138.271C172.426 137.304 171.491 136.623 170.465 136.226C169.442 135.829 168.406 135.733 167.36 135.938C166.315 136.144 165.338 136.641 164.432 137.431ZM160.651 153.829L158.678 150.246L163.521 147.58L162.606 145.919L157.763 148.587L155.995 145.371L161.609 142.278L160.674 140.577L155.053 143.67L152.949 144.83L159.475 156.682L161.021 155.831L167.249 152.401L166.315 150.709L160.651 153.829ZM155.645 158.206L150.936 145.522L148.688 146.356L153.4 159.041L155.645 158.206ZM147.965 148.851L147.554 146.952L141.475 148.266L139.126 148.775L141.985 162.001L144.338 161.492L143.132 155.916L148.442 154.765L148.037 152.876L142.724 154.026L141.887 150.164L147.965 148.851ZM137.903 162.384L136.992 148.882L134.6 149.044L135.511 162.545L137.903 162.384ZM133.479 149.361L129.289 148.986L122.75 148.401L122.58 150.336L126.727 150.707L125.695 162.25L128.083 162.464L129.113 150.921L133.309 151.296L133.479 149.361ZM115.316 148.104L117.6 148.805C118.407 149.054 118.946 149.426 119.221 149.926C119.495 150.425 119.528 151.016 119.319 151.697C119.12 152.336 118.76 152.785 118.237 153.046C117.714 153.306 117.064 153.318 116.296 153.081L114.002 152.377L115.316 148.104ZM118.211 155.099C119.064 155.011 119.783 154.734 120.374 154.268C120.966 153.8 121.391 153.141 121.652 152.288C122.041 151.028 121.933 149.937 121.322 149.018C120.714 148.098 119.662 147.408 118.172 146.949L113.587 145.54L109.613 158.474L111.914 159.181L113.437 154.225L115.897 154.981L116.94 160.727L119.41 161.485L119.443 161.37L118.211 155.099ZM101.515 152.249L103.489 148.67L108.329 151.345L109.247 149.684L104.404 147.011L106.179 143.799L111.796 146.897L112.734 145.198L107.12 142.097L105.012 140.934L98.473 152.779L100.019 153.632L106.241 157.07L107.175 155.377L101.515 152.249ZM98.0972 147.341L96.2868 145.767C95.8423 146.168 95.411 146.445 95.0025 146.602C94.5907 146.757 94.1659 146.777 93.728 146.663C93.2901 146.548 92.826 146.281 92.3424 145.857C91.5516 145.171 91.2248 144.371 91.3686 143.458C91.5091 142.546 92.0418 141.556 92.9698 140.491L93.6822 139.672C94.6267 138.586 95.5482 137.93 96.4501 137.7C97.3521 137.469 98.1919 137.695 98.973 138.374C99.6723 138.98 100.032 139.596 100.058 140.222C100.084 140.848 99.839 141.536 99.3259 142.289L101.136 143.862C101.672 143.104 102.012 142.324 102.159 141.518C102.303 140.713 102.225 139.917 101.917 139.127C101.607 138.339 101.055 137.596 100.254 136.902C99.4076 136.166 98.4958 135.721 97.5155 135.567C96.5384 135.414 95.5613 135.552 94.5809 135.982C93.6038 136.413 92.692 137.116 91.8391 138.092L91.1398 138.9C90.2902 139.877 89.715 140.875 89.4176 141.897C89.1202 142.919 89.1104 143.899 89.3882 144.834C89.666 145.77 90.2215 146.602 91.0614 147.33C91.8751 148.037 92.6986 148.497 93.5352 148.705C94.3685 148.916 95.1757 148.897 95.9502 148.653C96.7279 148.408 97.4403 147.971 98.0972 147.341ZM184.948 117.321C184.471 117.983 184.066 118.47 183.726 118.783C183.389 119.096 183.076 119.285 182.788 119.35C182.501 119.414 182.184 119.386 181.831 119.265C181.314 119.087 180.971 118.75 180.804 118.253C180.635 117.755 180.677 117.138 180.932 116.4C181.216 115.568 181.631 114.965 182.177 114.593C182.723 114.22 183.38 114.166 184.144 114.43L184.929 112.155C184.063 111.856 183.239 111.839 182.461 112.105C181.68 112.37 181.004 112.835 180.432 113.5C179.857 114.164 179.425 114.924 179.128 115.779C178.811 116.698 178.677 117.551 178.726 118.337C178.772 119.124 178.994 119.795 179.393 120.352C179.791 120.908 180.347 121.309 181.059 121.556C181.733 121.788 182.376 121.838 182.984 121.707C183.592 121.576 184.187 121.266 184.772 120.775C185.353 120.284 185.955 119.602 186.576 118.728C187.167 117.889 187.696 117.308 188.161 116.984C188.625 116.659 189.089 116.575 189.543 116.733C190.059 116.91 190.412 117.246 190.598 117.74C190.785 118.233 190.752 118.849 190.497 119.587C190.226 120.372 189.834 120.9 189.314 121.17C188.795 121.44 188.216 121.465 187.576 121.245L186.795 123.512C187.517 123.76 188.239 123.799 188.961 123.629C189.687 123.459 190.34 123.084 190.932 122.504C191.523 121.924 191.977 121.168 192.298 120.237C192.605 119.347 192.726 118.504 192.664 117.709C192.598 116.914 192.363 116.232 191.958 115.662C191.549 115.093 191.004 114.69 190.321 114.454C189.34 114.117 188.422 114.21 187.559 114.732C186.7 115.255 185.827 116.118 184.948 117.321ZM195.033 110.519L195.236 107.404L185.21 102.906L195.736 99.7346L195.804 98.6585L195.935 96.6184L182.432 95.7416L182.278 98.1441L186.634 98.4271L192.641 98.5749L182.036 101.835L181.925 103.55L192.03 108.155L186.043 107.533L181.687 107.25L181.533 109.644L195.033 110.519ZM182.723 87.9503L186.732 87.1545L187.808 92.5779L189.667 92.209L188.592 86.7852L192.193 86.0712L193.441 92.3609L195.347 91.9832L194.098 85.6931L193.628 83.3324L180.357 85.9657L180.7 87.6976L182.086 94.6704L183.978 94.2949L182.723 87.9503ZM192.605 79.5403L190.945 75.6711L188.36 69.6405L186.576 70.4055L188.216 74.2326L177.566 78.7978L178.51 81.0017L189.161 76.4361L190.821 80.3053L192.605 79.5403ZM177.334 66.9491C177.599 67.7196 177.759 68.3334 177.821 68.7896C177.883 69.2451 177.857 69.6095 177.742 69.8817C177.631 70.1542 177.425 70.3993 177.122 70.6163C176.68 70.9349 176.207 71.0199 175.703 70.8715C175.2 70.7232 174.72 70.3323 174.262 69.6987C173.749 68.985 173.497 68.2984 173.504 67.6386C173.514 66.9791 173.847 66.4118 174.507 65.9373L173.102 63.9848C172.357 64.5204 171.87 65.1838 171.635 65.9736C171.403 66.7635 171.393 67.584 171.605 68.435C171.818 69.2863 172.187 70.0787 172.716 70.8127C173.285 71.6019 173.903 72.2042 174.573 72.6189C175.243 73.0339 175.919 73.2391 176.605 73.2349C177.288 73.2306 177.939 73.0074 178.55 72.5656C179.128 72.1493 179.54 71.6549 179.785 71.0817C180.027 70.5088 180.115 69.8431 180.05 69.0843C179.984 68.3262 179.775 67.4409 179.419 66.4292C179.076 65.4635 178.906 64.6965 178.909 64.1292C178.912 63.5616 179.108 63.1368 179.501 62.8541C179.945 62.5355 180.422 62.442 180.932 62.5737C181.442 62.7057 181.929 63.0884 182.383 63.7217C182.87 64.3949 183.072 65.022 182.994 65.6017C182.916 66.1814 182.602 66.6687 182.053 67.0631L183.455 69.0085C184.076 68.5628 184.523 67.9958 184.801 67.3063C185.079 66.6174 185.151 65.8638 185.017 65.0481C184.883 64.2318 184.53 63.424 183.951 62.625C183.402 61.861 182.785 61.2757 182.099 60.8692C181.412 60.4623 180.72 60.261 180.02 60.2649C179.321 60.2688 178.674 60.4829 178.089 60.9064C177.249 61.5113 176.795 62.3165 176.723 63.3214C176.654 64.3266 176.857 65.5354 177.334 66.9491ZM170.36 57.233L172.318 50.4442L170.334 48.6658L167.998 58.0623L164.684 61.7675L166.488 63.3848L169.805 59.6796L178.886 56.3186L176.896 54.5402L170.36 57.233ZM159.455 51.1132C160.021 51.7004 160.429 52.188 160.677 52.5759C160.923 52.9631 161.053 53.3046 161.066 53.5997C161.079 53.8935 160.994 54.2033 160.811 54.5275C160.543 55.0029 160.151 55.2794 159.632 55.3569C159.112 55.4346 158.511 55.2823 157.831 54.9C157.063 54.4696 156.547 53.953 156.276 53.3504C156.008 52.7481 156.073 52.0929 156.468 51.3854L154.37 50.207C153.923 51.0066 153.759 51.8131 153.877 52.6278C154.001 53.4422 154.338 54.1909 154.887 54.8732C155.439 55.5555 156.109 56.1183 156.897 56.5614C157.746 57.0375 158.56 57.3225 159.341 57.4173C160.125 57.5117 160.825 57.4127 161.445 57.1209C162.063 56.8287 162.557 56.3532 162.926 55.6941C163.275 55.0732 163.442 54.451 163.419 53.8291C163.4 53.2066 163.2 52.5651 162.821 51.905C162.442 51.2445 161.88 50.5305 161.132 49.7619C160.413 49.0312 159.936 48.4077 159.697 47.8917C159.462 47.3753 159.462 46.9067 159.7 46.4852C159.965 46.01 160.36 45.7244 160.877 45.6286C161.396 45.5326 161.998 45.676 162.677 46.058C163.403 46.4646 163.851 46.9476 164.024 47.5061C164.197 48.0652 164.119 48.639 163.785 49.2279L165.877 50.4017C166.249 49.7374 166.419 49.0341 166.38 48.2913C166.344 47.5489 166.089 46.8355 165.625 46.1522C165.161 45.4682 164.501 44.8849 163.638 44.4025C162.818 43.9414 162.011 43.6715 161.217 43.5914C160.423 43.512 159.71 43.6212 159.079 43.9192C158.446 44.2176 157.952 44.6829 157.596 45.3149C157.089 46.2172 157.014 47.1384 157.377 48.0796C157.736 49.0207 158.429 50.0315 159.455 51.1132ZM143.943 43.9202L142.227 37.0648L139.616 36.5246L142.315 45.8227L141.305 50.6919L143.681 51.1834L144.688 46.3142L150.857 38.8504L148.243 38.3095L143.943 43.9202ZM136.658 36.2896L132.446 36.374L125.887 36.5053L125.927 38.4471L130.09 38.3638L130.322 49.9501L132.717 49.9021L132.485 38.3157L136.694 38.2317L136.658 36.2896ZM118.976 49.7769L118.025 45.8002L123.401 44.512L122.959 42.6682L117.58 43.9565L116.727 40.3866L122.963 38.8932L122.508 37.004L116.273 38.4977L113.933 39.0585L117.087 52.2174L118.803 51.806L125.717 50.1498L125.266 48.2698L118.976 49.7769ZM111.051 42.0271L110.234 40.2647L104.594 42.8777L102.411 43.8891L108.097 56.1666L110.28 55.1556L107.885 49.9779L112.816 47.693L112.002 45.9391L107.071 48.2237L105.411 44.6401L111.051 42.0271ZM97.7606 57.296L95.9109 51.7216L100.813 54.9562L97.7606 57.296ZM105.277 57.8944L107.277 56.3624L94.9796 48.7351L94.5319 49.0802L93.2639 50.0517L97.4403 63.8959L99.4403 62.3642L98.4076 59.2447L102.532 56.0856L105.277 57.8944ZM89.5876 64.4694C90.2673 64.0158 90.8163 63.7001 91.2444 63.524C91.6659 63.3482 92.0254 63.2799 92.3195 63.3194C92.6104 63.3593 92.9012 63.4969 93.1888 63.7322C93.6104 64.0782 93.8129 64.5142 93.7999 65.0393C93.7835 65.5645 93.5286 66.1288 93.0352 66.7321C92.4764 67.4121 91.8751 67.8324 91.2378 67.9922C90.5941 68.1517 89.9634 67.9739 89.3359 67.4592L87.8098 69.3196C88.5157 69.9013 89.2836 70.2036 90.1071 70.2258C90.9306 70.2487 91.7247 70.048 92.4927 69.6248C93.2607 69.2013 93.9339 68.6402 94.5057 67.9409C95.1234 67.1889 95.5482 66.4364 95.7769 65.6831C96.0057 64.9298 96.0319 64.2233 95.8521 63.5626C95.6724 62.9024 95.2901 62.3328 94.7084 61.8531C94.1561 61.4008 93.5711 61.1303 92.9568 61.0414C92.3391 60.9525 91.6725 61.0365 90.9568 61.2943C90.2411 61.5522 89.4372 61.9819 88.5516 62.5841C87.7085 63.1645 87.0092 63.5263 86.4602 63.6681C85.9112 63.8103 85.4471 63.7279 85.0746 63.4214C84.653 63.0756 84.4406 62.6384 84.4373 62.1106C84.4341 61.5829 84.6792 61.0169 85.1759 60.4133C85.702 59.7721 86.2576 59.4153 86.836 59.3424C87.4177 59.2698 87.9667 59.4479 88.4895 59.8764L90.0124 58.0231C89.4209 57.5395 88.7575 57.2516 88.0222 57.1588C87.2837 57.0666 86.5353 57.1895 85.7837 57.5281C85.0288 57.8663 84.3393 58.4159 83.7151 59.1774C83.1171 59.9058 82.7086 60.6531 82.4929 61.4208C82.274 62.1881 82.2576 62.9096 82.4407 63.5848C82.6237 64.2603 82.9929 64.8276 83.555 65.2877C84.3556 65.9442 85.2511 66.1775 86.238 65.9877C87.2281 65.7981 88.3458 65.2923 89.5876 64.4694ZM81.372 76.4721C82.7053 76.9933 83.6204 77.6956 84.1171 78.5779C84.6105 79.4609 84.6367 80.4789 84.1824 81.6331L83.6302 83.0438L74.6402 79.5256L75.2251 78.0283C75.663 76.9152 76.3525 76.2041 77.297 75.8953C78.2414 75.5868 79.3917 75.6963 80.7413 76.2247L81.372 76.4721ZM73.4147 77.3211L72.8298 78.8178L71.9539 81.0595L84.555 85.9898L84.9406 85.0029L85.9831 82.3373C86.434 81.1837 86.5843 80.0743 86.4307 79.0102C86.2804 77.9462 85.8458 76.9995 85.1269 76.1701C84.4112 75.3407 83.4537 74.6911 82.2544 74.2218L81.6368 73.9813C80.444 73.5143 79.3002 73.3414 78.2087 73.4627C77.1172 73.5846 76.1532 73.9783 75.3232 74.6434C74.4899 75.309 73.8526 76.2015 73.4147 77.3211ZM76.7022 88.9319L77.3917 89.0225C78.8786 89.2189 79.9799 89.6437 80.6923 90.2966C81.4047 90.9502 81.6956 91.7868 81.5616 92.8063C81.4733 93.4638 81.225 94.0099 80.8067 94.4455C80.3884 94.8815 79.8198 95.1828 79.0976 95.3498C78.3787 95.5168 77.529 95.5364 76.5519 95.4076L75.8591 95.3164C74.882 95.1877 74.0683 94.9508 73.418 94.606C72.7677 94.2606 72.2971 93.8253 72.0095 93.3001C71.7219 92.7747 71.6239 92.1835 71.7088 91.526C71.8461 90.5064 72.3396 89.7708 73.1957 89.3179C74.0519 88.8649 75.2219 88.7368 76.7022 88.9319ZM77.7087 86.6274L77.0355 86.5385C75.6957 86.3621 74.5029 86.4421 73.4507 86.7784C72.4017 87.115 71.5553 87.6708 70.918 88.4453C70.2775 89.2205 69.8854 90.1607 69.7383 91.2662C69.5945 92.3596 69.7318 93.3639 70.1533 94.2785C70.5716 95.1929 71.2448 95.9501 72.1729 96.5507C73.0977 97.1507 74.2284 97.5389 75.5617 97.7144L76.2349 97.8033C77.5682 97.9788 78.761 97.8958 79.8132 97.553C80.8622 97.2105 81.7086 96.6497 82.3492 95.8723C82.9864 95.0939 83.3785 94.1583 83.5223 93.0648C83.6694 91.9596 83.5354 90.9508 83.1171 90.0401C82.6988 89.1287 82.0289 88.3767 81.1041 87.7826C80.1792 87.1888 79.0486 86.8039 77.7087 86.6274ZM75.8166 102.989L76.5062 102.907C77.9963 102.729 79.1662 102.868 80.0191 103.324C80.8753 103.78 81.3622 104.519 81.4832 105.54C81.5616 106.198 81.4538 106.79 81.1564 107.315C80.8623 107.841 80.3851 108.274 79.7283 108.614C79.0682 108.955 78.2512 109.184 77.2741 109.301L76.5813 109.384C75.6042 109.501 74.7546 109.473 74.0389 109.3C73.3232 109.127 72.7611 108.821 72.3494 108.383C71.9442 107.946 71.6991 107.398 71.6206 106.739C71.4997 105.718 71.7971 104.882 72.516 104.232C73.2317 103.581 74.333 103.167 75.8166 102.989ZM76.2186 100.508L75.5454 100.589C74.2055 100.749 73.0683 101.122 72.1337 101.708C71.1991 102.294 70.5193 103.042 70.088 103.951C69.6599 104.86 69.5128 105.869 69.6468 106.976C69.7775 108.071 70.1599 109.01 70.7938 109.791C71.4245 110.573 72.2677 111.141 73.3134 111.493C74.3624 111.845 75.5519 111.941 76.8885 111.781L77.5584 111.7C78.895 111.541 80.0289 111.164 80.9636 110.572C81.8949 109.98 82.5779 109.228 83.0027 108.316C83.4308 107.403 83.5811 106.4 83.4472 105.305C83.3164 104.198 82.9341 103.254 82.3034 102.475C81.676 101.696 80.8394 101.132 79.7937 100.786C78.7545 100.44 77.5617 100.347 76.2186 100.508ZM73.2742 115.47L71.4442 116.118L73.5193 121.979L74.3232 124.247L87.0745 119.731L86.2739 117.462L80.8949 119.367L79.078 114.242L77.2578 114.887L79.0715 120.012L75.3493 121.331L73.2742 115.47ZM161.609 99.168H158.893V94.52H161.609C162.161 94.52 162.625 94.6321 162.998 94.8563C163.367 95.0808 163.641 95.3788 163.818 95.7504C163.991 96.122 164.079 96.5321 164.079 96.9804C164.079 97.6536 163.877 98.1863 163.468 98.5791C163.063 98.9719 162.442 99.168 161.609 99.168ZM161.609 91.8489H155.593V107.16H158.893V101.839H161.609C162.798 101.839 163.834 101.639 164.71 101.24C165.586 100.84 166.256 100.272 166.72 99.5359C167.184 98.7997 167.413 97.9412 167.413 96.9595C167.413 95.971 167.181 95.0913 166.713 94.32C166.246 93.5492 165.576 92.9443 164.7 92.5064C163.824 92.0681 162.792 91.8489 161.609 91.8489ZM153.606 102.028H150.315C150.253 102.926 149.985 103.59 149.521 104.021C149.054 104.452 148.348 104.668 147.403 104.668C146.671 104.668 146.086 104.5 145.645 104.163C145.204 103.827 144.88 103.317 144.678 102.633C144.475 101.95 144.374 101.064 144.374 99.9774V99.0206C144.374 97.4082 144.622 96.2236 145.119 95.4664C145.616 94.7092 146.38 94.3305 147.413 94.3305C148.4 94.3305 149.116 94.5566 149.563 95.0089C150.008 95.4609 150.263 96.1497 150.325 97.0752H153.616C153.518 96.0027 153.223 95.0579 152.727 94.241C152.233 93.4246 151.537 92.7848 150.642 92.322C149.743 91.8593 148.668 91.628 147.413 91.628C146.129 91.628 145.008 91.9296 144.047 92.5322C143.086 93.1354 142.345 93.9959 141.818 95.1141C141.292 96.2321 141.031 97.5419 141.031 99.0418V99.9774C141.031 101.485 141.282 102.794 141.792 103.905C142.299 105.017 143.034 105.872 143.995 106.471C144.956 107.07 146.09 107.37 147.403 107.37C148.629 107.37 149.697 107.146 150.609 106.697C151.521 106.249 152.23 105.621 152.736 104.815C153.246 104.009 153.537 103.08 153.606 102.028ZM139.495 102.028H136.201C136.139 102.926 135.874 103.59 135.407 104.021C134.943 104.452 134.234 104.668 133.289 104.668C132.56 104.668 131.975 104.5 131.534 104.163C131.09 103.827 130.77 103.317 130.564 102.633C130.361 101.95 130.26 101.064 130.26 99.9774V99.0206C130.26 97.4082 130.511 96.2236 131.008 95.4664C131.505 94.7092 132.27 94.3305 133.299 94.3305C134.289 94.3305 135.005 94.5566 135.449 95.0089C135.897 95.4609 136.149 96.1497 136.214 97.0752H139.505C139.403 96.0027 139.109 95.0579 138.616 94.241C138.122 93.4246 137.426 92.7848 136.528 92.322C135.629 91.8593 134.554 91.628 133.299 91.628C132.015 91.628 130.894 91.9296 129.933 92.5322C128.972 93.1354 128.23 93.9959 127.704 95.1141C127.178 96.2321 126.917 97.5419 126.917 99.0418V99.9774C126.917 101.485 127.172 102.794 127.678 103.905C128.188 105.017 128.92 105.872 129.881 106.471C130.842 107.07 131.979 107.37 133.289 107.37C134.515 107.37 135.587 107.146 136.498 106.697C137.407 106.249 138.119 105.621 138.626 104.815C139.135 104.009 139.423 103.08 139.495 102.028ZM116.946 101.45L118.776 95.8661L120.62 101.45H116.946ZM122.499 107.16H126.021L120.312 91.8489H119.473H117.244L111.564 107.16H115.074L116.074 104.121H121.502L122.499 107.16ZM106.852 91.8489V98.0007H100.888V91.8489H97.5874V107.16H100.888V100.661H106.852V107.16H110.143V91.8489H106.852ZM203.245 99.4993C203.245 138.508 171.511 170.245 132.498 170.245C93.4894 170.245 61.7548 138.508 61.7548 99.4993C61.7548 60.4901 93.4894 28.7538 132.498 28.7538C171.511 28.7538 203.245 60.4901 203.245 99.4993ZM206 99.4993C206 58.9712 173.03 25.999 132.498 25.999C91.9731 25.999 59 58.9712 59 99.4993C59 140.027 91.9731 173 132.498 173C173.03 173 206 140.027 206 99.4993ZM200.239 99.4993C200.239 136.713 169.965 166.99 132.75 166.99C95.5384 166.99 65.2613 136.713 65.2613 99.4993C65.2613 62.2851 95.5384 32.0093 132.75 32.0093C169.965 32.0093 200.239 62.2851 200.239 99.4993ZM201.494 99.4993C201.494 61.595 170.654 30.7571 132.75 30.7571C94.8456 30.7571 64.0097 61.595 64.0097 99.4993C64.0097 137.404 94.8456 168.242 132.75 168.242C170.654 168.242 201.494 137.404 201.494 99.4993ZM171.69 99.4993C171.69 121.109 154.109 138.692 132.498 138.692C110.891 138.692 93.3097 121.109 93.3097 99.4993C93.3097 77.889 110.891 60.3074 132.498 60.3074C154.109 60.3074 171.69 77.889 171.69 99.4993ZM172.945 99.4993C172.945 77.1982 154.802 59.0555 132.498 59.0555C110.198 59.0555 92.0548 77.1982 92.0548 99.4993C92.0548 121.8 110.198 139.944 132.498 139.944C154.802 139.944 172.945 121.8 172.945 99.4993ZM175.197 99.4993C175.197 123.043 156.044 142.197 132.498 142.197C108.956 142.197 89.8032 123.043 89.8032 99.4993C89.8032 75.9557 108.956 56.8016 132.498 56.8016C156.044 56.8016 175.197 75.9557 175.197 99.4993ZM177.952 99.4993C177.952 74.4368 157.563 54.0468 132.498 54.0468C107.437 54.0468 87.0484 74.4368 87.0484 99.4993C87.0484 124.562 107.437 144.952 132.498 144.952C157.563 144.952 177.952 124.562 177.952 99.4993ZM110.362 118.103L105.767 118.627L109.172 121.751L108.254 126.281L112.28 124.007L116.303 126.281L115.381 121.751L118.79 118.627L114.198 118.103L112.28 113.897L110.362 118.103ZM150.805 118.103L146.21 118.627L149.619 121.751L148.697 126.281L152.723 124.007L156.746 126.281L155.828 121.751L159.233 118.627L154.642 118.103L152.723 113.897L150.805 118.103ZM130.58 124.906L125.989 125.43L129.397 128.555L128.476 133.085L132.498 130.81L136.524 133.085L135.603 128.555L139.011 125.43L134.417 124.906L132.498 120.7L130.58 124.906ZM110.362 76.9227L105.767 77.4472L109.172 80.5717L108.254 85.1016L112.28 82.8265L116.303 85.1016L115.381 80.5717L118.79 77.4472L114.198 76.9227L112.28 72.7169L110.362 76.9227ZM150.805 76.9227L146.21 77.4472L149.619 80.5717L148.697 85.1016L152.723 82.8265L156.746 85.1016L155.828 80.5717L159.233 77.4472L154.642 76.9227L152.723 72.7169L150.805 76.9227ZM132.498 65.9135L134.417 70.1193L139.011 70.6441L135.603 73.7682L136.524 78.2985L132.498 76.0234L128.476 78.2985L129.397 73.7682L125.989 70.6441L130.58 70.1193L132.498 65.9135Z" fill="#343EAD"></path></svg> 