<?xml version="1.0" encoding="UTF-8"?> <svg xmlns="http://www.w3.org/2000/svg" width="16" height="15" viewBox="0 0 16 15" fill="none"><g clip-path="url(#clip0_1080_1844)"><path d="M15.9522 3.0997C15.9429 3.05021 15.9157 3.00588 15.8758 2.97516C15.451 2.63882 14.4466 1.28258 13.787 1.50743C12.8668 1.82141 7.80798 8.47683 6.68653 9.94363C6.2949 9.38399 3.03303 4.90968 2.86937 5.00999C2.3088 5.35254 1.73021 5.64541 1.1948 6.03206C1.16845 6.05018 1.14603 6.07345 1.1289 6.10045C1.11177 6.12746 1.10028 6.15765 1.09511 6.18921C1.05481 6.21955 1.02455 6.26128 1.00821 6.309C0.991882 6.35672 0.990236 6.40825 1.00349 6.45691C1.46313 8.32341 3.02589 9.79332 4.14206 11.2635C4.79021 12.1173 5.69396 14.2664 6.91231 13.2518C6.93312 13.2344 6.94554 13.2145 6.9592 13.1943C7.19834 13.0968 7.403 12.907 7.61729 12.676C8.54588 11.676 9.36329 10.5772 10.2248 9.51754C11.1456 8.38459 12.1671 7.32401 13.1786 6.27803C14.0618 5.36466 14.8463 4.15531 15.8873 3.44101C16.0172 3.35126 16.0175 3.20312 15.9522 3.0997ZM3.92808 6.39325C3.63364 6.13235 3.33002 5.88198 3.01782 5.64261C3.35271 5.852 3.65874 6.10436 3.92808 6.39325ZM2.52837 6.60754C2.50333 6.58204 2.47214 6.56343 2.43781 6.55353C2.40347 6.54363 2.36717 6.54276 2.3324 6.55101C2.2918 6.44212 2.26124 6.32975 2.24109 6.21529C2.23193 6.15167 2.19855 6.09403 2.14792 6.05442C2.16656 6.04045 2.18395 6.02647 2.2032 6.0128C2.20688 6.06843 2.22845 6.12138 2.2647 6.16374C2.96999 6.99823 3.76473 7.74297 4.48182 8.56627C4.56412 8.661 4.64456 8.75665 4.72531 8.85168C3.96349 8.12993 3.29174 7.32525 2.52837 6.60754ZM5.38619 12.1791C5.45731 12.2611 5.52812 12.3434 5.60079 12.4238C5.68495 12.5387 5.77005 12.6536 5.85794 12.767L5.85887 12.7707C5.68651 12.6154 5.52812 12.3962 5.38619 12.1791ZM5.61445 10.3595C5.82347 10.544 6.0421 10.7197 6.27192 10.8607C6.26663 10.8964 6.26875 10.9328 6.27813 10.9676C6.28093 10.9828 6.28714 10.998 6.29304 11.0129C6.07166 10.7902 5.84541 10.5723 5.61445 10.3595ZM6.63094 12.7574C6.63031 12.7552 6.63063 12.753 6.62969 12.7515C6.62224 12.7344 6.61354 12.7192 6.60609 12.7024C6.81914 12.6999 7.09803 12.5418 7.40424 12.2955C7.13374 12.5508 6.86634 12.7306 6.63094 12.7574ZM13.8873 2.10372C13.6885 2.19037 13.523 2.32391 13.3749 2.48074C13.5215 2.27142 13.6767 2.11055 13.8873 2.10372ZM8.96949 8.54422C8.85086 8.66876 8.63843 8.85727 8.38221 9.08833C8.60862 8.86193 8.8434 8.64671 9.05428 8.4318C9.74218 7.73241 10.2748 6.87462 10.8301 6.05473C11.4599 5.43671 12.1124 4.8485 12.7143 4.19879C13.1103 3.77083 13.3541 3.08479 13.8171 2.71926C13.5084 3.04473 13.2646 3.51493 13.0565 3.9668C12.7264 4.31463 12.4345 4.70781 12.1283 5.08856C11.1559 6.29915 10.0375 7.42339 8.96949 8.54422ZM13.037 5.64975C12.5472 6.24324 11.9975 6.78363 11.4748 7.34762C11.8692 6.8532 12.2609 6.35629 12.6205 5.83268C12.6488 5.79137 12.6829 5.7333 12.7205 5.66218C12.8469 5.53578 12.9733 5.40969 13.0972 5.28111C13.4562 4.90719 13.8829 4.49631 14.1448 4.01804C14.3538 3.73698 14.5827 3.45809 14.8414 3.29039C14.4665 4.14103 13.5575 5.01962 13.037 5.64975Z" fill="#17A310"></path></g><defs><clipPath id="clip0_1080_1844"><rect width="15" height="15" fill="white" transform="translate(0.994629)"></rect></clipPath></defs></svg> 