<?xml version="1.0" encoding="UTF-8"?> <svg xmlns="http://www.w3.org/2000/svg" width="60" height="60" viewBox="0 0 60 60" fill="none"><g clip-path="url(#clip0_1299_71)"><path d="M54.8823 42.067C54.0312 41.5995 52.9625 41.9104 52.4953 42.7612C52.0279 43.6121 52.3386 44.6809 53.1895 45.1482C55.2834 46.2985 56.4844 47.5737 56.4844 48.647C56.4844 49.9596 54.6246 51.9939 49.4047 53.7673C44.2479 55.5195 37.3564 56.4843 30 56.4843C22.6436 56.4843 15.7521 55.5195 10.5953 53.7673C5.37539 51.9941 3.51562 49.9596 3.51562 48.647C3.51562 47.5737 4.71656 46.2985 6.81047 45.1481C7.66137 44.6807 7.97215 43.612 7.50469 42.7611C7.03723 41.9103 5.96883 41.5994 5.1177 42.0669C2.78309 43.3495 0 45.5322 0 48.647C0 51.0345 1.64203 54.4386 9.4643 57.0962C14.9759 58.9687 22.2689 60 30 60C37.7311 60 45.0241 58.9687 50.5357 57.0962C58.358 54.4386 60 51.0345 60 48.647C60 45.5322 57.2169 43.3495 54.8823 42.067Z" fill="#17A310"></path><path d="M16.7288 51.2262C20.2972 52.2342 25.0103 52.7894 30 52.7894C34.9898 52.7894 39.7029 52.2343 43.2713 51.2262C47.6369 49.993 49.8504 48.2078 49.8504 45.9205C49.8504 43.6331 47.6369 41.8481 43.2713 40.615C42.3022 40.3412 41.2482 40.1011 40.1276 39.8962C39.498 40.9833 38.8604 42.0657 38.2148 43.1433C39.4551 43.3294 40.6196 43.5575 41.6771 43.8269C44.8899 44.6453 46.0636 45.5665 46.3049 45.9206C46.0635 46.2749 44.89 47.1961 41.6772 48.0143C38.6363 48.7888 34.7239 49.2306 30.6032 49.2701C30.4025 49.2852 30.2013 49.2929 30 49.2932C29.7974 49.2932 29.5965 49.2848 29.3968 49.2701C25.2761 49.2306 21.3637 48.7889 18.3228 48.0143C15.11 47.1961 13.9363 46.2748 13.695 45.9206C13.9363 45.5665 15.1101 44.6453 18.3229 43.8269C19.3804 43.5576 20.5449 43.3294 21.7853 43.1433C21.1186 42.03 20.481 40.9475 19.8725 39.8962C18.7519 40.1012 17.6978 40.3412 16.7288 40.615C12.3632 41.8481 10.1497 43.6332 10.1497 45.9205C10.1497 48.2078 12.3632 49.9929 16.7288 51.2262Z" fill="#17A310"></path><path d="M30 45.7774C31.5649 45.7774 32.9862 44.9801 33.8025 43.6445C39.5225 34.2863 46.3407 21.9527 46.3407 16.3405C46.3407 7.33031 39.0104 0 30 0C20.9897 0 13.6594 7.33031 13.6594 16.3405C13.6594 21.9527 20.4777 34.2863 26.1975 43.6445C27.0139 44.9801 28.4354 45.7774 30 45.7774ZM23.432 15.2186C23.432 11.5971 26.3785 8.65078 30 8.65078C33.6216 8.65078 36.5681 11.5971 36.5681 15.2186C36.5681 18.8401 33.6216 21.7864 30 21.7864C26.3785 21.7864 23.432 18.8402 23.432 15.2186Z" fill="#17A310"></path></g><defs><clipPath id="clip0_1299_71"><rect width="60" height="60" fill="white"></rect></clipPath></defs></svg> 