<?xml version="1.0" encoding="UTF-8"?> <svg xmlns="http://www.w3.org/2000/svg" width="60" height="60" viewBox="0 0 60 60" fill="none"><g clip-path="url(#clip0_1299_80)"><path d="M51.6973 41.7601C48.0727 38.66 44.3943 36.7821 40.8142 39.8776L38.6764 41.7484C37.1123 43.1064 34.2042 49.4518 22.9605 36.5176C11.7191 23.5997 18.4087 21.5884 19.9751 20.2421L22.1246 18.3689C25.686 15.2664 24.342 11.3609 21.7734 7.34058L20.2233 4.90546C17.643 0.894535 14.8333 -1.73961 11.2626 1.35815L9.33319 3.044C7.75505 4.19366 3.34373 7.93063 2.27368 15.03C0.985876 23.5482 5.04831 33.3027 14.3556 44.0056C23.6512 54.7131 32.7525 60.0914 41.3738 59.9978C48.5386 59.9205 52.8657 56.0758 54.219 54.678L56.1554 52.9898C59.7168 49.8943 57.5041 46.7427 53.8772 43.6356L51.6973 41.7601Z" fill="#17A310"></path></g><defs><clipPath id="clip0_1299_80"><rect width="60" height="60" fill="white"></rect></clipPath></defs></svg> 