<?xml version="1.0" encoding="UTF-8"?> <svg xmlns="http://www.w3.org/2000/svg" width="60" height="60" viewBox="0 0 60 60" fill="none"><g clip-path="url(#clip0_1299_86)"><path d="M35.0143 36.7609C33.5216 37.7561 31.7877 38.2821 30 38.2821C28.2124 38.2821 26.4785 37.7561 24.9858 36.7609L0.399492 20.3695C0.263766 20.2788 0.130552 20.1843 0 20.0863L0 46.9453C0 50.0248 2.49902 52.4687 5.5234 52.4687H54.4765C57.5559 52.4687 59.9999 49.9697 59.9999 46.9453V20.0862C59.8691 20.1845 59.7356 20.2791 59.5996 20.37L35.0143 36.7609Z" fill="#17A310"></path><path d="M2.34961 17.4444L26.9359 33.8359C27.8666 34.4564 28.9332 34.7666 29.9999 34.7666C31.0666 34.7666 32.1334 34.4563 33.0641 33.8359L57.6504 17.4444C59.1217 16.4641 60 14.8235 60 13.0528C60 10.0081 57.523 7.53125 54.4785 7.53125H5.52153C2.477 7.53137 2.90637e-06 10.0082 2.90637e-06 13.0557C-0.00090982 13.9243 0.213168 14.7796 0.623141 15.5454C1.03311 16.3112 1.62624 16.9635 2.34961 17.4444Z" fill="#17A310"></path></g><defs><clipPath id="clip0_1299_86"><rect width="60" height="60" fill="white"></rect></clipPath></defs></svg> 