<?xml version="1.0" encoding="UTF-8"?> <svg xmlns="http://www.w3.org/2000/svg" width="24" height="24" viewBox="0 0 24 24" fill="none"><g clip-path="url(#clip0_1096_831)"><path d="M7.10035 12.4507C6.82462 12.7263 6.82462 13.1733 7.10035 13.4489L11.4882 17.8368C11.6259 17.9746 11.8068 18.0436 11.9873 18.0436C12.1678 18.0436 12.3487 17.9746 12.4866 17.8368L16.8744 13.4489C17.1491 13.1741 17.1502 12.7287 16.8763 12.4528C16.6024 12.1765 16.1618 12.1739 15.885 12.4465L12.7026 15.5809V0.705876C12.7026 0.315995 12.3778 0 11.9881 0C11.5982 0 11.2736 0.315995 11.2736 0.705876V15.6335L8.0946 12.4507C7.81887 12.175 7.37607 12.175 7.10035 12.4507Z" fill="#262626"></path><path d="M15.1817 3.67598C14.8097 3.55686 14.413 3.76184 14.2942 4.13261C14.1751 4.50393 14.3795 4.90136 14.7509 5.02048C18.4873 6.21883 20.9979 9.66278 20.9979 13.5904C20.9979 18.552 16.9615 22.5886 11.9998 22.5886C7.03819 22.5886 3.00162 18.552 3.00162 13.5904C3.00162 9.66278 5.5121 6.21885 9.24868 5.02048C9.61982 4.90136 9.82423 4.50393 9.7053 4.13261C9.58599 3.76146 9.18803 3.55705 8.81743 3.67598C4.49445 5.06256 1.58984 9.04677 1.58984 13.5903C1.58984 19.3304 6.2597 24.0003 11.9998 24.0003C17.7398 24.0003 22.4097 19.3304 22.4097 13.5903C22.4097 9.04677 19.5049 5.06256 15.1817 3.67598Z" fill="#262626"></path></g><defs><clipPath id="clip0_1096_831"><rect width="24" height="24" fill="white"></rect></clipPath></defs></svg> 