<?xml version="1.0" encoding="UTF-8"?> <svg xmlns="http://www.w3.org/2000/svg" width="24" height="24" viewBox="0 0 24 24" fill="none"><g clip-path="url(#clip0_1312_12)"><path d="M7.10059 12.4507C6.82487 12.7263 6.82487 13.1733 7.10059 13.4489L11.4885 17.8368C11.6261 17.9746 11.807 18.0436 11.9875 18.0436C12.1681 18.0436 12.3489 17.9746 12.4868 17.8368L16.8747 13.4489C17.1493 13.1741 17.1504 12.7287 16.8765 12.4528C16.6026 12.1765 16.1621 12.1739 15.8852 12.4465L12.7028 15.5809V0.705876C12.7028 0.315995 12.378 0 11.9883 0C11.5984 0 11.2738 0.315995 11.2738 0.705876V15.6335L8.09484 12.4507C7.81912 12.175 7.37632 12.175 7.10059 12.4507Z" fill="white"></path><path d="M15.182 3.67598C14.8099 3.55686 14.4132 3.76184 14.2945 4.13261C14.1754 4.50393 14.3798 4.90136 14.7511 5.02048C18.4875 6.21883 20.9982 9.66278 20.9982 13.5904C20.9982 18.552 16.9618 22.5886 12 22.5886C7.03844 22.5886 3.00186 18.552 3.00186 13.5904C3.00186 9.66278 5.51234 6.21885 9.24892 5.02048C9.62006 4.90136 9.82448 4.50393 9.70554 4.13261C9.58623 3.76146 9.18827 3.55705 8.81767 3.67598C4.49469 5.06256 1.59009 9.04677 1.59009 13.5903C1.59009 19.3304 6.25994 24.0003 12 24.0003C17.7401 24.0003 22.4099 19.3304 22.4099 13.5903C22.4099 9.04677 19.5051 5.06256 15.182 3.67598Z" fill="white"></path></g><defs><clipPath id="clip0_1312_12"><rect width="24" height="24" fill="white"></rect></clipPath></defs></svg> 