<?xml version="1.0" encoding="UTF-8"?> <svg xmlns="http://www.w3.org/2000/svg" width="40" height="40" viewBox="0 0 40 40" fill="none"><g clip-path="url(#clip0_1369_141)"><path d="M29.9805 15.8801C29.9336 14.8173 29.7618 14.0868 29.5156 13.4537C29.2616 12.7818 28.8709 12.1802 28.3591 11.68C27.8589 11.1721 27.2533 10.7774 26.5891 10.5274C25.9524 10.2813 25.2257 10.1094 24.163 10.0626C23.0924 10.0117 22.7525 10 20.0371 10C17.3217 10 16.9819 10.0117 15.9152 10.0586C14.8525 10.1055 14.122 10.2775 13.4891 10.5235C12.8169 10.7774 12.2153 11.1681 11.7152 11.68C11.2073 12.1801 10.8128 12.7857 10.5626 13.4499C10.3165 14.0868 10.1446 14.8134 10.0977 15.8761C10.0469 16.9467 10.0352 17.2866 10.0352 20.002C10.0352 22.7173 10.0469 23.0572 10.0938 24.1239C10.1406 25.1866 10.3126 25.9171 10.5588 26.5502C10.8128 27.2222 11.2073 27.8238 11.7152 28.3239C12.2153 28.8318 12.8209 29.2265 13.4851 29.4765C14.1219 29.7226 14.8486 29.8945 15.9114 29.9413C16.9779 29.9884 17.3179 29.9999 20.0333 29.9999C22.7487 29.9999 23.0886 29.9884 24.1552 29.9413C25.2179 29.8945 25.9485 29.7226 26.5814 29.4765C27.2461 29.2195 27.8498 28.8264 28.3537 28.3225C28.8577 27.8185 29.2508 27.2149 29.5078 26.5502C29.7538 25.9133 29.9258 25.1865 29.9727 24.1239C30.0196 23.0572 30.0313 22.7173 30.0313 20.002C30.0313 17.2866 30.0273 16.9467 29.9805 15.8801ZM28.1794 24.0457C28.1364 25.0225 27.9723 25.5499 27.8356 25.9015C27.4995 26.7728 26.808 27.4643 25.9367 27.8004C25.5851 27.9372 25.0538 28.1012 24.0809 28.1441C23.026 28.1911 22.7096 28.2027 20.0411 28.2027C17.3726 28.2027 17.0522 28.1911 16.0011 28.1441C15.0244 28.1012 14.4969 27.9372 14.1453 27.8004C13.7117 27.6402 13.3171 27.3862 12.9967 27.0541C12.6646 26.7298 12.4107 26.3391 12.2504 25.9055C12.1136 25.5539 11.9496 25.0225 11.9067 24.0497C11.8597 22.9948 11.8481 22.6783 11.8481 20.0097C11.8481 17.3412 11.8597 17.0209 11.9067 15.97C11.9496 14.9932 12.1136 14.4658 12.2504 14.1141C12.4107 13.6804 12.6646 13.2858 13.0007 12.9653C13.3248 12.6332 13.7155 12.3793 14.1493 12.2192C14.5009 12.0825 15.0323 11.9184 16.0051 11.8754C17.06 11.8285 17.3766 11.8168 20.0449 11.8168C22.7174 11.8168 23.0338 11.8285 24.0849 11.8754C25.0616 11.9184 25.5891 12.0824 25.9407 12.2192C26.3742 12.3793 26.7689 12.6332 27.0893 12.9653C27.4214 13.2897 27.6753 13.6804 27.8356 14.1141C27.9723 14.4658 28.1364 14.997 28.1794 15.97C28.2263 17.0248 28.238 17.3412 28.238 20.0097C28.238 22.6783 28.2263 22.9908 28.1794 24.0457Z" fill="#17A310"></path><path d="M20.0371 14.8642C17.2007 14.8642 14.8994 17.1654 14.8994 20.0019C14.8994 22.8385 17.2007 25.1397 20.0371 25.1397C22.8736 25.1397 25.1749 22.8385 25.1749 20.0019C25.1749 17.1654 22.8736 14.8642 20.0371 14.8642ZM20.0371 23.3346C18.197 23.3346 16.7044 21.8422 16.7044 20.0019C16.7044 18.1617 18.197 16.6693 20.0371 16.6693C21.8774 16.6693 23.3698 18.1617 23.3698 20.0019C23.3698 21.8422 21.8773 23.3346 20.0371 23.3346ZM26.5776 14.6611C26.5776 15.3235 26.0405 15.8605 25.3779 15.8605C24.7156 15.8605 24.1785 15.3235 24.1785 14.6611C24.1785 13.9986 24.7156 13.4617 25.378 13.4617C26.0405 13.4617 26.5776 13.9985 26.5776 14.6611Z" fill="#17A310"></path></g><rect x="0.25" y="0.25" width="39.5" height="39.5" rx="19.75" stroke="#DADADA" stroke-width="0.5"></rect><defs><clipPath id="clip0_1369_141"><rect width="20" height="20" fill="white" transform="translate(10 10)"></rect></clipPath></defs></svg> 