<?xml version="1.0" encoding="UTF-8"?> <svg xmlns="http://www.w3.org/2000/svg" width="40" height="40" viewBox="0 0 40 40" fill="none"><g clip-path="url(#clip0_1369_141)"><path d="M30 30V22.675C30 19.075 29.225 16.325 25.025 16.325C23 16.325 21.65 17.425 21.1 18.475H21.05V16.65H17.075V30H21.225V23.375C21.225 21.625 21.55 19.95 23.7 19.95C25.825 19.95 25.85 21.925 25.85 23.475V29.975H30V30ZM10.325 16.65H14.475V30H10.325V16.65ZM12.4 10C11.075 10 10 11.075 10 12.4C10 13.725 11.075 14.825 12.4 14.825C13.725 14.825 14.8 13.725 14.8 12.4C14.8 11.075 13.725 10 12.4 10Z" fill="#17A310"></path></g><rect x="0.25" y="0.25" width="39.5" height="39.5" rx="19.75" stroke="#DADADA" stroke-width="0.5"></rect><defs><clipPath id="clip0_1369_141"><rect width="20" height="20" fill="white" transform="translate(10 10)"></rect></clipPath></defs></svg> 