<?xml version="1.0" encoding="UTF-8"?> <svg xmlns="http://www.w3.org/2000/svg" width="140" height="140" viewBox="0 0 140 140" fill="none"><path fill-rule="evenodd" clip-rule="evenodd" d="M82.5113 4.14395C100.647 4.68174 121.022 5.06186 132.746 18.9226C144.046 32.2816 139.189 51.7813 137.548 69.2088C136.127 84.3016 134.074 99.4314 124.092 110.832C113.43 123.008 98.4222 129.151 82.5113 132.063C61.9748 135.823 38.9197 142.136 22.3199 129.462C4.64981 115.971 -1.16028 91.4137 0.186274 69.2088C1.46058 48.1951 12.7031 28.898 29.2094 15.8524C44.0509 4.12253 63.6098 3.58345 82.5113 4.14395Z" fill="#D9F8D8"></path><path d="M88.844 75.5713L92.6784 65.2888C93.6545 63.017 95.6281 63.4392 95.6281 63.4392C97.1556 63.7187 97.9777 64.9705 97.8035 66.3726L94.2861 80.5121C93.3777 84.1448 90.8452 87.6871 87.8968 89.9764L81.8195 94.3246V96.8886C81.8195 97.5021 81.3222 97.9994 80.7087 97.9994H70.517V91.554C70.517 91.554 69.8528 84.2136 76.8274 79.9746L85.1653 74.6228C85.5754 74.3584 86.0531 74.2178 86.5411 74.218C87.2002 74.218 87.853 74.4736 88.3456 74.966C89.3217 75.9434 89.3418 77.5223 88.3895 78.5235L82.7745 82.9518" stroke="#17A310" stroke-width="2" stroke-miterlimit="10" stroke-linecap="round" stroke-linejoin="round"></path><path d="M58.228 82.9523L52.613 78.5239C51.6607 77.5228 51.6807 75.9439 52.6569 74.9665C52.8937 74.7293 53.175 74.5411 53.4846 74.4127C53.7943 74.2844 54.1262 74.2184 54.4614 74.2185C54.9362 74.2185 55.4149 74.3513 55.8372 74.6232L64.1751 79.975C71.1496 84.2141 70.4855 91.5545 70.4855 91.5545V97.9999H60.2938C59.6803 97.9999 59.183 97.5026 59.183 96.8891V94.325L53.1057 89.9769C50.1572 87.6876 47.6248 84.1452 46.7164 80.5126L43.1988 66.3731C43.0246 64.9709 43.8467 63.7191 45.3742 63.4397C45.3742 63.4397 47.3477 63.0175 48.3239 65.2892L52.1583 75.5718M65.4505 73.7519H64.0443C63.4308 73.7519 62.9335 73.2546 62.9335 72.6411V66.6852C62.9335 64.275 64.8873 62.3213 67.2974 62.3213H73.7074C76.1176 62.3213 78.0713 64.2751 78.0713 66.6852V72.6411C78.0713 73.2546 77.574 73.7519 76.9605 73.7519H75.5724" stroke="#17A310" stroke-width="2" stroke-miterlimit="10" stroke-linecap="round" stroke-linejoin="round"></path><path d="M70.5024 62.3212C73.3471 62.3212 75.6532 60.0151 75.6532 57.1704C75.6532 54.3256 73.3471 52.0195 70.5024 52.0195C67.6577 52.0195 65.3516 54.3256 65.3516 57.1704C65.3516 60.0151 67.6577 62.3212 70.5024 62.3212Z" stroke="#17A310" stroke-width="2" stroke-miterlimit="10" stroke-linejoin="round"></path><path d="M75.8047 55.3018H82.4658C84.876 55.3018 86.8297 57.2556 86.8297 59.6657V65.5481C86.8297 66.202 86.2996 66.7319 85.6459 66.7319H78.0645" stroke="#17A310" stroke-width="2" stroke-miterlimit="10" stroke-linecap="round" stroke-linejoin="round"></path><path d="M79.2641 55.3017C82.1088 55.3017 84.415 52.9956 84.415 50.1508C84.415 47.3061 82.1088 45 79.2641 45C76.4194 45 74.1133 47.3061 74.1133 50.1508C74.1133 52.9956 76.4194 55.3017 79.2641 55.3017Z" stroke="#17A310" stroke-width="2" stroke-miterlimit="10" stroke-linejoin="round"></path><path d="M62.9372 66.7319H55.3557C54.7019 66.7319 54.1719 66.202 54.1719 65.5481V59.6657C54.1719 57.2555 56.1257 55.3018 58.5358 55.3018H65.3489" stroke="#17A310" stroke-width="2" stroke-miterlimit="10" stroke-linecap="round" stroke-linejoin="round"></path><path d="M61.7446 55.3017C64.5893 55.3017 66.8954 52.9956 66.8954 50.1508C66.8954 47.3061 64.5893 45 61.7446 45C58.8999 45 56.5938 47.3061 56.5938 50.1508C56.5938 52.9956 58.8999 55.3017 61.7446 55.3017Z" stroke="#17A310" stroke-width="2" stroke-miterlimit="10" stroke-linejoin="round"></path></svg> 