<?xml version="1.0" encoding="UTF-8"?> <svg xmlns="http://www.w3.org/2000/svg" width="140" height="140" viewBox="0 0 140 140" fill="none"><path fill-rule="evenodd" clip-rule="evenodd" d="M68.6889 14.7415C84.5838 17.1789 97.6019 25.2726 109.038 36.6433C123.321 50.8449 142.77 65.3551 139.671 85.3169C136.469 105.937 114.642 117.043 95.3591 124.736C78.0578 131.638 59.1685 132.061 42.2914 124.166C25.1023 116.126 12.5069 101.405 6.67912 83.2566C0.0384598 62.5775 -5.27019 37.413 9.27243 21.3448C23.3869 5.74953 47.9643 11.5634 68.6889 14.7415Z" fill="#D9F8D8"></path><path d="M53.3125 86.375H47.0625C46.6481 86.375 46.2507 86.2104 45.9576 85.9174C45.6646 85.6243 45.5 85.2269 45.5 84.8125C45.5 84.3981 45.6646 84.0007 45.9576 83.7076C46.2507 83.4146 46.6481 83.25 47.0625 83.25H53.3125C53.7269 83.25 54.1243 83.4146 54.4174 83.7076C54.7104 84.0007 54.875 84.3981 54.875 84.8125C54.875 85.2269 54.7104 85.6243 54.4174 85.9174C54.1243 86.2104 53.7269 86.375 53.3125 86.375ZM104.094 86.375H100.188C99.7731 86.375 99.3757 86.2104 99.0826 85.9174C98.7896 85.6243 98.625 85.2269 98.625 84.8125C98.625 84.3981 98.7896 84.0007 99.0826 83.7076C99.3757 83.4146 99.7731 83.25 100.188 83.25H102.797L104.903 72.025C104.875 66.2812 99.9688 61.375 93.9375 61.375H83.6781L78.7063 83.25H87.6875C88.1019 83.25 88.4993 83.4146 88.7924 83.7076C89.0854 84.0007 89.25 84.3981 89.25 84.8125C89.25 85.2269 89.0854 85.6243 88.7924 85.9174C88.4993 86.2104 88.1019 86.375 87.6875 86.375H76.75C76.5155 86.3751 76.2841 86.3225 76.0727 86.221C75.8614 86.1194 75.6756 85.9717 75.5291 85.7886C75.3826 85.6055 75.2793 85.3918 75.2266 85.1633C75.174 84.9349 75.1734 84.6975 75.225 84.4687L80.9063 59.4688C80.9843 59.1226 81.1778 58.8134 81.455 58.5919C81.7322 58.3704 82.0765 58.2498 82.4313 58.25H93.9375C101.691 58.25 108 64.5594 108 72.3125L105.628 85.1C105.562 85.4583 105.372 85.7821 105.092 86.015C104.811 86.2479 104.458 86.3753 104.094 86.375Z" fill="#17A310"></path><path d="M93.9375 92.625C89.6313 92.625 86.125 89.1219 86.125 84.8125C86.125 80.5031 89.6313 77 93.9375 77C98.2438 77 101.75 80.5031 101.75 84.8125C101.75 89.1219 98.2438 92.625 93.9375 92.625ZM93.9375 80.125C91.3531 80.125 89.25 82.2281 89.25 84.8125C89.25 87.3969 91.3531 89.5 93.9375 89.5C96.5219 89.5 98.625 87.3969 98.625 84.8125C98.625 82.2281 96.5219 80.125 93.9375 80.125ZM59.5625 92.625C55.2563 92.625 51.75 89.1219 51.75 84.8125C51.75 80.5031 55.2563 77 59.5625 77C63.8688 77 67.375 80.5031 67.375 84.8125C67.375 89.1219 63.8688 92.625 59.5625 92.625ZM59.5625 80.125C56.9781 80.125 54.875 82.2281 54.875 84.8125C54.875 87.3969 56.9781 89.5 59.5625 89.5C62.1469 89.5 64.25 87.3969 64.25 84.8125C64.25 82.2281 62.1469 80.125 59.5625 80.125ZM53.3125 58.25H40.8125C40.3981 58.25 40.0007 58.0854 39.7076 57.7924C39.4146 57.4993 39.25 57.1019 39.25 56.6875C39.25 56.2731 39.4146 55.8757 39.7076 55.5826C40.0007 55.2896 40.3981 55.125 40.8125 55.125H53.3125C53.7269 55.125 54.1243 55.2896 54.4174 55.5826C54.7104 55.8757 54.875 56.2731 54.875 56.6875C54.875 57.1019 54.7104 57.4993 54.4174 57.7924C54.1243 58.0854 53.7269 58.25 53.3125 58.25ZM53.3125 67.625H37.6875C37.2731 67.625 36.8757 67.4604 36.5826 67.1674C36.2896 66.8743 36.125 66.4769 36.125 66.0625C36.125 65.6481 36.2896 65.2507 36.5826 64.9576C36.8757 64.6646 37.2731 64.5 37.6875 64.5H53.3125C53.7269 64.5 54.1243 64.6646 54.4174 64.9576C54.7104 65.2507 54.875 65.6481 54.875 66.0625C54.875 66.4769 54.7104 66.8743 54.4174 67.1674C54.1243 67.4604 53.7269 67.625 53.3125 67.625ZM53.3125 77H34.5625C34.1481 77 33.7507 76.8354 33.4576 76.5424C33.1646 76.2493 33 75.8519 33 75.4375C33 75.0231 33.1646 74.6257 33.4576 74.3326C33.7507 74.0396 34.1481 73.875 34.5625 73.875H53.3125C53.7269 73.875 54.1243 74.0396 54.4174 74.3326C54.7104 74.6257 54.875 75.0231 54.875 75.4375C54.875 75.8519 54.7104 76.2493 54.4174 76.5424C54.1243 76.8354 53.7269 77 53.3125 77Z" fill="#17A310"></path><path d="M76.75 86.375H65.8125C65.3981 86.375 65.0007 86.2104 64.7076 85.9174C64.4146 85.6243 64.25 85.2269 64.25 84.8125C64.25 84.3981 64.4146 84.0007 64.7076 83.7076C65.0007 83.4146 65.3981 83.25 65.8125 83.25H75.5031L82.6031 52H47.0625C46.6481 52 46.2507 51.8354 45.9576 51.5424C45.6646 51.2493 45.5 50.8519 45.5 50.4375C45.5 50.0231 45.6646 49.6257 45.9576 49.3326C46.2507 49.0396 46.6481 48.875 47.0625 48.875H84.5625C84.797 48.8749 85.0284 48.9275 85.2398 49.029C85.4511 49.1306 85.6369 49.2783 85.7834 49.4614C85.9299 49.6445 86.0332 49.8582 86.0859 50.0867C86.1385 50.3151 86.1391 50.5525 86.0875 50.7813L78.275 85.1562C78.1969 85.5024 78.0034 85.8116 77.7263 86.0331C77.4491 86.2546 77.1048 86.3752 76.75 86.375Z" fill="#17A310"></path></svg> 