<?xml version="1.0" encoding="UTF-8"?> <svg xmlns="http://www.w3.org/2000/svg" width="140" height="140" viewBox="0 0 140 140" fill="none"><path fill-rule="evenodd" clip-rule="evenodd" d="M66.0126 8.12094C88.3155 8.08825 113.21 6.68468 127.681 23.6765C142.514 41.0917 142.848 67.2571 134.535 88.5774C127.406 106.861 107.237 113.397 89.4672 121.683C72.1569 129.754 53.6712 142.643 36.4942 134.291C19.3463 125.953 19.0408 103.198 13.7407 84.8636C7.73279 64.0807 -7.60518 41.7317 4.56989 23.8569C17.1016 5.4586 43.7711 8.15354 66.0126 8.12094Z" fill="#D9F8D8"></path><path d="M70.5 41C54.2327 41 41 54.234 41 70.5C41 86.766 54.2327 100 70.5 100C86.7673 100 100 86.766 100 70.5C100 54.234 86.7673 41 70.5 41ZM70.5 97.5417C55.5891 97.5417 43.4583 85.4109 43.4583 70.5C43.4583 63.4861 46.1649 57.1084 50.56 52.298L64.3857 66.1237L56.4246 80.056C55.9824 80.8291 55.7499 81.7042 55.75 82.5948C55.75 85.4144 58.0451 87.7083 60.8635 87.7083H80.1365C81.7294 87.7083 83.1372 86.9603 84.0759 85.814L88.702 90.44C83.8916 94.835 77.5139 97.5417 70.5 97.5417ZM73.1192 64.9639L76.2834 70.5H72.2382L67.4522 65.714L67.8808 64.9639C67.9864 64.778 68.0418 64.5679 68.0417 64.3541V55.75H72.9584V64.3542C72.9583 64.5679 73.0137 64.778 73.1192 64.9639ZM77.6883 72.9583L81.6797 79.9415L74.6965 72.9583H77.6883ZM68.7619 70.5H64.7173L66.188 67.9261L68.7619 70.5ZM71.2202 72.9583L82.3035 84.0415C81.8266 84.7523 81.0552 85.25 80.1365 85.25H60.8635C59.3991 85.25 58.2083 84.058 58.2083 82.5936C58.2083 82.1315 58.3284 81.6766 58.5588 81.2768L63.3124 72.9583H71.2202ZM90.44 88.702L85.1656 83.4276C85.2108 83.1546 85.25 82.8792 85.25 82.5936C85.25 81.7042 85.0183 80.83 84.5778 80.0573L75.4167 64.0277V55.75C75.5782 55.7501 75.738 55.7184 75.8872 55.6566C76.0364 55.5949 76.172 55.5044 76.2861 55.3902C76.4003 55.276 76.4908 55.1405 76.5526 54.9913C76.6143 54.8421 76.646 54.6822 76.6459 54.5208C76.646 54.3593 76.6143 54.1995 76.5526 54.0503C76.4908 53.9011 76.4003 53.7655 76.2861 53.6514C76.172 53.5372 76.0364 53.4467 75.8872 53.3849C75.738 53.3232 75.5782 53.2915 75.4167 53.2916H65.5834C65.422 53.2915 65.2621 53.3232 65.1129 53.3849C64.9637 53.4467 64.8282 53.5372 64.714 53.6514C64.5998 53.7655 64.5093 53.9011 64.4476 54.0503C64.3858 54.1995 64.3541 54.3593 64.3542 54.5208C64.3541 54.6822 64.3858 54.8421 64.4476 54.9913C64.5093 55.1405 64.5998 55.276 64.714 55.3902C64.8282 55.5044 64.9637 55.5949 65.1129 55.6566C65.2621 55.7184 65.422 55.7501 65.5834 55.75V63.8452L52.298 50.56C57.1084 46.165 63.4861 43.4583 70.5 43.4583C85.4109 43.4583 97.5417 55.5891 97.5417 70.5C97.5417 77.5139 94.835 83.8916 90.44 88.702Z" fill="#17A310"></path></svg> 