<?xml version="1.0" encoding="UTF-8"?> <svg xmlns="http://www.w3.org/2000/svg" width="140" height="140" viewBox="0 0 140 140" fill="none"><g clip-path="url(#clip0_1097_953)"><path fill-rule="evenodd" clip-rule="evenodd" d="M75.4135 0.0111799C92.6586 0.554399 100.613 20.6171 112.282 33.2349C123.09 44.9219 139.496 53.9788 139.988 69.8369C140.486 85.8945 125.563 96.9261 114.623 108.763C102.889 121.458 92.6477 137.67 75.4135 139.699C56.8796 141.881 39.2766 131.903 25.652 119.239C11.5188 106.103 -2.0134 88.9258 0.248924 69.8369C2.40327 51.6591 22.6672 43.3418 36.1291 30.8361C48.7988 19.0663 58.0708 -0.535111 75.4135 0.0111799Z" fill="#D9F8D8"></path><path d="M59.9228 89.0081C56.4675 86.5622 53.7627 83.2011 52.1123 79.3027C51.9998 79.0182 52.0029 78.701 52.1211 78.4188C52.2393 78.1367 52.4632 77.9119 52.7448 77.7926C53.0265 77.6732 53.3437 77.6688 53.6286 77.7801C53.9135 77.8915 54.1436 78.1099 54.2697 78.3886C55.7505 81.8861 58.1774 84.9014 61.2775 87.0956C61.5285 87.2763 61.6978 87.5489 61.7487 87.8539C61.7995 88.1589 61.7278 88.4717 61.549 88.724C61.3703 88.9763 61.0991 89.1478 60.7945 89.201C60.4898 89.2542 60.1765 89.1849 59.9228 89.0081ZM50.9627 75.8128C50.8121 75.1896 50.6889 74.5601 50.5935 73.9261C50.5591 73.6247 50.6428 73.3217 50.8271 73.0808C51.0115 72.8399 51.282 72.6799 51.5819 72.6344C51.8818 72.5888 52.1877 72.6614 52.4352 72.8367C52.6827 73.012 52.8526 73.2765 52.9092 73.5745C52.997 74.1429 53.1084 74.7112 53.2408 75.2609C53.3138 75.563 53.2639 75.8817 53.1019 76.147C52.9399 76.4122 52.6792 76.6023 52.3771 76.6753C52.075 76.7483 51.7563 76.6984 51.491 76.5364C51.2258 76.3744 51.0357 76.1149 50.9627 75.8128Z" fill="#17A310"></path><path d="M64.9341 45.5778C64.6412 45.6755 64.3986 45.885 64.2593 46.1607C64.12 46.4363 64.0951 46.7558 64.1901 47.0497C64.285 47.3436 64.4922 47.5881 64.7665 47.7301C65.0408 47.8721 65.3601 47.9 65.6548 47.8078C67.1045 47.3449 68.5954 47.0227 70.1068 46.8457C69.3826 48.9434 70.3693 50.4235 72.0615 51.6668C72.3043 51.8303 72.5325 52.0146 72.7435 52.2176C72.774 53.4586 70.3693 55.0442 68.8998 55.2973C64.6283 56.0344 61.2322 56.0531 60.1939 57.9774C58.6775 60.7922 61.5205 63.075 62.499 64.2469C65.2599 67.5586 66.8396 67.7508 69.5818 67.3348C72.0685 66.961 72.1072 68.4235 75.0416 68.4481C76.3576 68.4633 77.1275 69.5883 78.1236 70.4707C79.2666 71.4504 80.5224 72.2903 81.8642 72.9727C84.0439 74.1938 83.0607 75.9492 82.1959 77.8289C79.8427 82.9289 76.5076 83.3906 73.142 88.132C72.4686 89.1265 72.0283 90.2602 71.8541 91.4485C71.1503 90.6827 70.6728 89.7367 70.4748 88.7156C69.8127 85.1813 75.4107 81.886 69.0943 77.7387C68.1122 77.2412 67.3214 76.434 66.8443 75.4418C66.0345 73.4309 67.5568 72.9024 66.5478 70.1028C65.049 65.9379 59.1744 64.8375 56.1134 61.111C58.0563 59.578 59.6 57.5984 60.6134 55.3406C61.882 52.2986 62.1167 48.9243 61.2814 45.736C61.2128 45.4719 61.0763 45.2303 60.8854 45.0353C60.6945 44.8404 60.4559 44.6987 60.1933 44.6246C59.9307 44.5504 59.6533 44.5462 59.3886 44.6125C59.1239 44.6788 58.8812 44.8132 58.6845 45.0024C54.5888 48.9199 52.0459 47.0766 47.874 52.2188C46.333 54.1172 45.0568 57.6328 47.724 63.5895L47.7392 63.6246C47.4877 64.5554 47.2882 65.4994 47.1416 66.4524C47.0478 66.3469 46.9541 66.2414 46.8568 66.1406C46.2064 61.7578 44.0959 58.3793 39.6568 58.909C38.4004 59.136 37.1063 59.0269 35.9056 58.5926C35.6453 58.4916 35.3624 58.463 35.0871 58.5098C34.8117 58.5567 34.5542 58.6773 34.342 58.8588C34.1297 59.0403 33.9706 59.2759 33.8815 59.5406C33.7924 59.8053 33.7767 60.0892 33.8361 60.3621C34.3829 62.898 35.9126 65.1137 38.09 66.5238C40.2392 67.8756 42.8156 68.3762 45.3146 67.9278C46.0618 68.6839 46.5851 69.6322 46.8263 70.6676C46.839 74.1357 47.5451 77.5662 48.9029 80.7574C49.0249 81.0434 49.2555 81.2691 49.5439 81.3851C49.8324 81.501 50.155 81.4976 50.441 81.3756C50.7269 81.2536 50.9527 81.023 51.0686 80.7346C51.1845 80.4461 51.1811 80.1235 51.0591 79.8375C48.9787 74.9368 48.5971 69.4809 49.9752 64.3383C51.4491 63.8857 52.862 63.2541 54.1822 62.4574C57.6134 66.7512 63.1939 67.7074 64.3435 70.8973C65.049 72.8555 63.5349 73.4988 64.6705 76.316C65.3186 77.7559 66.4204 78.9438 67.8076 79.6981C72.4998 82.7766 67.2158 84.0598 68.1709 89.1481C68.4845 90.9311 69.4441 92.536 70.8662 93.6563C72.2162 94.5516 73.681 94.227 74.1662 91.8422C74.285 91.0021 74.5879 90.1986 75.0533 89.4891C78.1752 85.0887 81.7095 84.4735 84.3252 78.8121C85.9142 75.5508 86.2857 72.7617 83.0091 70.9278C81.8156 70.3247 80.6976 69.5824 79.6787 68.7164C78.2162 67.4227 77.4322 66.1266 75.0638 66.1055C72.5384 66.0785 72.7377 64.4918 69.2314 65.018C67.3318 65.3063 66.5197 65.4117 64.299 62.7457C63.4388 61.7145 61.6154 60.2766 62.2552 59.093C62.6947 58.4297 66.5677 58.0793 69.2982 57.607C71.3572 57.252 75.1576 55.0688 75.0873 52.1602C75.0273 51.6606 74.8471 51.183 74.5622 50.7683C74.2773 50.3536 73.8961 50.0141 73.4513 49.7789C71.663 48.4629 72.2209 48.1289 72.6697 46.6664C73.1756 46.648 73.6822 46.6637 74.1861 46.7133C75.3755 48.75 78.1048 50.9227 80.6349 50.4399C81.6055 50.1994 82.4868 49.6858 83.1744 48.9598C84.2442 49.4584 85.2756 50.0358 86.2599 50.6871C86.0818 53.8371 88.3154 57.5567 92.5002 56.8043C92.7205 57.1172 92.9279 57.4371 93.133 57.7594C92.223 58.6118 91.5778 59.7082 91.2744 60.9176C90.8068 62.7235 91.3904 63.709 91.8005 65.8711C92.6513 70.3594 91.4466 72.8403 93.4892 73.711C93.8722 73.848 94.2835 73.8866 94.6852 73.8231C95.087 73.7596 95.4664 73.5961 95.7884 73.3477C96.0697 73.1895 96.4177 72.9633 96.713 73.0676C96.2065 77.7489 94.3253 82.1755 91.3065 85.7892C88.2878 89.4029 84.2666 92.0419 79.7502 93.3734C75.2337 94.705 70.4241 94.6695 65.9277 93.2715C61.4314 91.8734 57.4497 89.1754 54.4845 85.5176C54.2886 85.2763 54.0048 85.1227 53.6956 85.0906C53.3863 85.0585 53.077 85.1505 52.8357 85.3465C52.5944 85.5425 52.4408 85.8263 52.4087 86.1355C52.3766 86.4447 52.4687 86.754 52.6646 86.9953C55.6697 90.7002 59.6296 93.514 64.1169 95.1331C68.6041 96.7522 73.4483 97.1151 78.1267 96.1826C82.8051 95.2501 87.14 93.0576 90.6635 89.8418C94.1871 86.626 96.7655 82.509 98.1205 77.935C99.4755 73.3611 99.5556 68.5039 98.3521 63.8878C97.1487 59.2717 94.7075 55.0718 91.2919 51.7416C87.8763 48.4113 83.6161 46.0771 78.971 44.9908C74.3259 43.9046 69.4723 44.1075 64.9341 45.5778ZM49.6951 53.6953C53.1181 49.4766 55.2486 50.857 59.2693 47.6028C59.6545 49.8936 59.3788 52.2468 58.4748 54.3867C56.8986 57.7265 54.0881 60.3244 50.6349 61.6336C51.4747 59.0809 53.061 56.839 55.1888 55.1977C55.4316 55.0058 55.5886 54.7256 55.6256 54.4183C55.6625 54.1111 55.5765 53.8017 55.3861 53.5576C55.1958 53.3136 54.9167 53.1548 54.6097 53.1158C54.3026 53.0768 53.9927 53.1609 53.7474 53.3496C51.5871 55.019 49.8982 57.2216 48.8466 59.741C48.2138 57.2145 48.488 55.1836 49.6951 53.6953ZM36.5584 61.207C37.6739 61.396 38.8124 61.4058 39.931 61.2363C40.7392 61.0886 41.5735 61.2431 42.2751 61.6705C42.9767 62.0979 43.4967 62.7684 43.7361 63.5543C43.0194 63.0508 42.2292 62.6611 41.3935 62.3988C41.0961 62.3084 40.7749 62.3398 40.5006 62.4862C40.2264 62.6326 40.0215 62.8819 39.931 63.1793C39.8406 63.4768 39.872 63.7979 40.0184 64.0722C40.1647 64.3465 40.414 64.5514 40.7115 64.6418C41.4459 64.8634 42.1326 65.2199 42.7365 65.693C41.5342 65.5879 40.3748 65.1956 39.3556 64.5492C38.1031 63.7472 37.1268 62.5814 36.5584 61.207ZM77.5974 47.1059C78.6425 47.3144 79.6722 47.5936 80.6795 47.9414C79.6892 48.5039 78.4787 47.8266 77.5974 47.1059ZM89.0502 52.9055C89.5767 53.3852 90.0806 53.8871 90.5619 54.4113C90.2222 54.2739 89.9134 54.0699 89.6538 53.8113C89.3941 53.5526 89.1889 53.2447 89.0502 52.9055ZM94.5498 71.3578C94.5696 69.3742 94.4206 67.3924 94.1045 65.434C93.7423 63.5356 93.2806 62.5231 93.5431 61.507C93.6968 60.9157 93.9621 60.3593 94.3248 59.8676C96.0214 63.2263 96.8863 66.9435 96.8466 70.7063C96.0293 70.6572 95.2196 70.8869 94.5498 71.3578Z" fill="#17A310"></path><path d="M52.7461 83.3906C52.7461 83.6224 52.6774 83.849 52.5486 84.0417C52.4198 84.2344 52.2368 84.3846 52.0227 84.4733C51.8085 84.562 51.5729 84.5852 51.3456 84.54C51.1183 84.4948 50.9095 84.3832 50.7456 84.2193C50.5817 84.0554 50.4701 83.8466 50.4249 83.6192C50.3796 83.3919 50.4029 83.1563 50.4915 82.9422C50.5802 82.728 50.7304 82.545 50.9232 82.4162C51.1159 82.2875 51.3424 82.2188 51.5742 82.2188C51.885 82.2188 52.1831 82.3422 52.4029 82.562C52.6226 82.7818 52.7461 83.0798 52.7461 83.3906Z" fill="#17A310"></path></g><defs><clipPath id="clip0_1097_953"><rect width="140" height="140" fill="white"></rect></clipPath></defs></svg> 