<?xml version="1.0" encoding="UTF-8"?> <svg xmlns="http://www.w3.org/2000/svg" width="140" height="140" viewBox="0 0 140 140" fill="none"><path fill-rule="evenodd" clip-rule="evenodd" d="M76.8026 4.05922C106.643 5.17515 128.258 29.9276 136.86 58.5995C144.828 85.1606 137.695 115.043 114.74 130.522C93.7774 144.657 68.0711 133.285 47.1435 119.097C22.739 102.551 -6.2036 82.1234 1.16963 53.5252C9.4985 21.2203 43.5477 2.8156 76.8026 4.05922Z" fill="#D9F8D8"></path><path d="M95.9251 89.5901L83.392 77.0569C86.2047 72.5567 87.2627 67.1788 86.3644 61.9485C85.4661 56.7182 82.6743 52.0015 78.5213 48.6976C74.3683 45.3938 69.1446 43.734 63.8462 44.0347C58.5479 44.3355 53.5455 46.5757 49.793 50.3282C46.0405 54.0807 43.8003 59.083 43.4996 64.3814C43.1989 69.6797 44.8587 74.9034 48.1625 79.0564C51.4663 83.2095 56.183 86.0013 61.4133 86.8996C66.6436 87.7979 72.0216 86.7398 76.5217 83.9271L89.0549 96.4603C89.5003 96.9363 90.0368 97.3179 90.6327 97.5823C91.2286 97.8467 91.8716 97.9885 92.5234 97.9993C93.1752 98.0101 93.8225 97.8897 94.4268 97.6451C95.031 97.4006 95.58 97.037 96.0408 96.576C96.5017 96.1149 96.8651 95.5659 97.1094 94.9615C97.3537 94.3571 97.4739 93.7097 97.4629 93.0579C97.4519 92.4061 97.3098 91.7632 97.0452 91.1675C96.7806 90.5717 96.3988 90.0353 95.9226 89.5901H95.9251ZM46.194 65.6926C46.1945 61.9416 47.3073 58.275 49.3916 55.1564C51.4759 52.0378 54.4382 49.6072 57.9038 48.1721C61.3694 46.737 65.1828 46.3618 68.8617 47.0939C72.5406 47.826 75.9197 49.6325 78.5719 52.2851C81.2241 54.9376 83.0302 58.3171 83.7618 61.996C84.4934 65.675 84.1177 69.4883 82.6821 72.9538C81.2465 76.4192 78.8156 79.3811 75.6967 81.465C72.5778 83.5489 68.911 84.6612 65.16 84.6612C60.1311 84.6558 55.3098 82.6555 51.7541 79.0993C48.1984 75.5431 46.1987 70.7215 46.194 65.6926ZM94.1168 94.6519C93.6793 95.0708 93.097 95.3046 92.4913 95.3046C91.8856 95.3046 91.3033 95.0708 90.8658 94.6519L78.6524 82.4385C79.8489 81.4721 80.9395 80.3815 81.9059 79.185L94.1168 91.3984C94.5479 91.8301 94.79 92.4152 94.79 93.0252C94.79 93.6352 94.5479 94.2203 94.1168 94.6519Z" fill="#17A310"></path><path d="M72.1466 59.8887L62.8209 69.217L58.6108 65.0043C58.3706 64.7642 58.0449 64.6293 57.7053 64.6293C57.3657 64.6293 57.04 64.7642 56.7999 65.0043C56.5597 65.2445 56.4248 65.5702 56.4248 65.9098C56.4248 66.2494 56.5597 66.5751 56.7999 66.8152L61.9154 71.9308C62.0342 72.0499 62.1754 72.1444 62.3307 72.2089C62.4861 72.2733 62.6527 72.3065 62.8209 72.3065C62.9891 72.3065 63.1557 72.2733 63.3111 72.2089C63.4664 72.1444 63.6076 72.0499 63.7264 71.9308L73.9575 61.6996C74.1977 61.4595 74.3326 61.1338 74.3326 60.7942C74.3326 60.4546 74.1977 60.1289 73.9575 59.8887C73.7174 59.6486 73.3917 59.5137 73.0521 59.5137C72.7125 59.5137 72.3868 59.6486 72.1466 59.8887Z" fill="#17A310"></path></svg> 