<?xml version="1.0" encoding="UTF-8"?> <svg xmlns="http://www.w3.org/2000/svg" width="140" height="140" viewBox="0 0 140 140" fill="none"><path fill-rule="evenodd" clip-rule="evenodd" d="M68.8406 1.29409C89.0498 3.28049 101.492 21.4184 114.188 37.2396C126.94 53.1297 142.736 69.345 139.596 89.4626C136.271 110.761 118.884 127.51 98.8446 135.538C80.2813 142.974 60.1277 137.417 42.2526 128.457C24.8397 119.728 9.94072 106.654 4.16289 88.0778C-2.22893 67.5274 -2.14857 44.3337 10.718 27.0694C24.0317 9.20534 46.6437 -0.887678 68.8406 1.29409Z" fill="#D9F8D8"></path><path d="M86.1864 59.0035L77.6606 48.2232C76.2094 46.3962 74.1104 45.1912 71.804 44.8543V39.2957C71.804 38.5831 71.221 38 70.5083 38C69.7957 38 69.2126 38.5831 69.2126 39.2957V44.8543C66.9062 45.1782 64.8072 46.3833 63.3689 48.2232L54.8172 59.0164C54.0787 59.9623 53.6641 61.1284 53.6641 62.3335V94.7133C53.677 97.6416 56.0611 100.013 58.9894 99.9998H81.9883C84.9166 100.026 87.3137 97.6675 87.3396 94.7392V62.3335C87.3396 61.1284 86.925 59.9623 86.1864 59.0035ZM70.5083 57.4875C72.5944 57.4875 74.2788 59.1719 74.2788 61.258C74.2788 63.3441 72.5944 65.0285 70.5083 65.0285C68.4222 65.0285 66.7378 63.3441 66.7378 61.258C66.7378 59.1849 68.4222 57.4875 70.5083 57.4875ZM84.7611 94.7133C84.7611 96.2293 83.5173 97.4084 82.0013 97.4084H59.0153C57.4994 97.4084 56.2555 96.2293 56.2555 94.7133V62.3335C56.2555 61.7115 56.4628 61.1025 56.8515 60.6231L65.3902 49.8298C66.3491 48.6248 67.6966 47.7826 69.2126 47.4846V55.0256C65.766 55.7383 63.5633 59.1071 64.2759 62.5537C64.9886 66.0003 68.3574 68.203 71.804 67.4904C75.2506 66.7778 77.4533 63.4089 76.7407 59.9623C76.2224 57.4875 74.2918 55.5439 71.804 55.0256V47.4846C72.3353 47.5883 72.8535 47.7697 73.3459 48.0029C74.227 48.4305 75.0044 49.0524 75.6134 49.8298L84.1651 60.6102C84.5538 61.1025 84.7611 61.7115 84.7611 62.3335V94.7133Z" fill="#17A310"></path><path d="M74.6445 85.2547C74.0744 83.4536 72.4029 82.2227 70.5112 82.2227C69.5524 82.2227 68.7749 81.4453 68.7749 80.4864C68.7749 79.5276 69.5524 78.7502 70.5112 78.7502C71.47 78.7502 72.2474 79.5276 72.2474 80.4864C72.2474 81.1991 72.8305 81.7822 73.5432 81.7822C74.2558 81.7822 74.8389 81.1991 74.8389 80.4864C74.8389 78.5947 73.6079 76.9232 71.8069 76.3531V75.783C71.8069 75.0704 71.2238 74.4873 70.5112 74.4873C69.7986 74.4873 69.2155 75.0704 69.2155 75.783V76.3531C66.935 77.0658 65.6652 79.5017 66.3779 81.7822C66.948 83.5832 68.6195 84.8141 70.5112 84.8141C71.47 84.8141 72.2474 85.5916 72.2474 86.5504C72.2474 87.5092 71.47 88.2866 70.5112 88.2866C69.5524 88.2866 68.7749 87.5092 68.7749 86.5504C68.7749 85.8377 68.1919 85.2547 67.4792 85.2547C66.7666 85.2547 66.1835 85.8377 66.1835 86.5504C66.1835 88.4421 67.4144 90.1136 69.2155 90.6837V91.3316C69.2155 92.0442 69.7986 92.6273 70.5112 92.6273C71.2238 92.6273 71.8069 92.0442 71.8069 91.3316V90.6837C74.0874 89.9711 75.3572 87.5351 74.6445 85.2547Z" fill="#17A310"></path></svg> 