<?xml version="1.0" encoding="UTF-8"?> <svg xmlns="http://www.w3.org/2000/svg" width="40" height="40" viewBox="0 0 40 40" fill="none"><g clip-path="url(#clip0_1080_1983)"><path d="M20 10C15.865 10 12.5 13.3883 12.5 17.5542C12.5 23.4733 19.295 29.585 19.5842 29.8417C19.7033 29.9475 19.8517 30 20 30C20.1483 30 20.2967 29.9475 20.4158 29.8425C20.705 29.585 27.5 23.4733 27.5 17.5542C27.5 13.3883 24.135 10 20 10ZM20 21.6667C17.7025 21.6667 15.8333 19.7975 15.8333 17.5C15.8333 15.2025 17.7025 13.3333 20 13.3333C22.2975 13.3333 24.1667 15.2025 24.1667 17.5C24.1667 19.7975 22.2975 21.6667 20 21.6667Z" fill="#17A310"></path></g><rect x="0.25" y="0.25" width="39.5" height="39.5" rx="19.75" stroke="#DADADA" stroke-width="0.5"></rect><defs><clipPath id="clip0_1080_1983"><rect width="20" height="20" fill="white" transform="translate(10 10)"></rect></clipPath></defs></svg> 