<?xml version="1.0" encoding="UTF-8"?> <svg xmlns="http://www.w3.org/2000/svg" width="40" height="40" viewBox="0 0 40 40" fill="none"><g clip-path="url(#clip0_1080_1988)"><path d="M23.2576 20.1024L30.0001 24.3649V15.6599L23.2576 20.1024Z" fill="#17A310"></path><path d="M10 15.6599V24.3649L16.7425 20.1024L10 15.6599Z" fill="#17A310"></path><path d="M28.7501 13.125H11.2501C10.6263 13.125 10.1313 13.59 10.0376 14.1888L20.0001 20.7525L29.9626 14.1888C29.8688 13.59 29.3738 13.125 28.7501 13.125Z" fill="#17A310"></path><path d="M22.1125 20.8575L20.3438 22.0225C20.2388 22.0912 20.12 22.125 20 22.125C19.88 22.125 19.7613 22.0912 19.6563 22.0225L17.8875 20.8562L10.04 25.82C10.1363 26.4137 10.6288 26.875 11.25 26.875H28.75C29.3713 26.875 29.8638 26.4137 29.96 25.82L22.1125 20.8575Z" fill="#17A310"></path></g><rect x="0.25" y="0.25" width="39.5" height="39.5" rx="19.75" stroke="#DADADA" stroke-width="0.5"></rect><defs><clipPath id="clip0_1080_1988"><rect width="20" height="20" fill="white" transform="translate(10 10)"></rect></clipPath></defs></svg> 