<?xml version="1.0" encoding="UTF-8"?> <svg xmlns="http://www.w3.org/2000/svg" width="45" height="45" viewBox="0 0 45 45" fill="none"><g clip-path="url(#clip0_1187_32)"><path d="M31.9446 26.0187C30.5671 26.0187 29.2145 25.8032 27.9328 25.3796C27.3047 25.1654 26.5326 25.362 26.1493 25.7556L23.6194 27.6654C20.6854 26.0993 18.8781 24.2926 17.3334 21.3807L19.187 18.9167C19.6686 18.4358 19.8413 17.7332 19.6344 17.074C19.209 15.7856 18.9929 14.4336 18.9929 13.0555C18.9929 12.0599 18.183 11.25 17.1875 11.25H13.0554C12.0599 11.25 11.25 12.0599 11.25 13.0554C11.25 24.4666 20.5335 33.75 31.9446 33.75C32.9401 33.75 33.7501 32.9401 33.7501 31.9446V27.8241C33.75 26.8286 32.9401 26.0187 31.9446 26.0187Z" fill="#17A310"></path></g><rect x="0.25" y="0.25" width="44.5" height="44.5" rx="22.25" stroke="#DADADA" stroke-width="0.5"></rect><defs><clipPath id="clip0_1187_32"><rect width="22.5" height="22.5" fill="white" transform="translate(11.25 11.25)"></rect></clipPath></defs></svg> 