<?xml version="1.0" encoding="UTF-8"?> <svg xmlns="http://www.w3.org/2000/svg" width="75" height="75" viewBox="0 0 75 75" fill="none"><g clip-path="url(#clip0_1080_1927)"><path d="M37.5 0.000366211C16.8212 0.000366211 0 16.8232 0 37.5004C0 58.1775 16.8212 75.0004 37.5 75.0004C58.1788 75.0004 75 58.1775 75 37.5004C75 16.8232 58.1788 0.000366211 37.5 0.000366211ZM37.5 71.8754C18.5455 71.8754 3.12495 56.4549 3.12495 37.5004C3.12495 18.5459 18.5455 3.12532 37.5 3.12532C56.4545 3.12532 71.875 18.5459 71.875 37.5004C71.875 56.4549 56.4545 71.8754 37.5 71.8754Z" fill="white"></path><path d="M52.4079 36.1865L30.5329 22.124C30.0538 21.8113 29.4343 21.7944 28.9399 22.066C28.4363 22.3407 28.125 22.8657 28.125 23.4378V51.5628C28.125 52.135 28.4363 52.66 28.9399 52.9347C29.1718 53.0614 29.4312 53.1254 29.6875 53.1254C29.9805 53.1254 30.2766 53.0429 30.5329 52.8767L52.4079 38.8142C52.8535 38.5273 53.125 38.0314 53.125 37.5003C53.125 36.9693 52.8535 36.4735 52.4079 36.1865ZM31.2499 48.7002V26.3004L48.6725 37.5003L31.2499 48.7002Z" fill="white"></path></g><defs><clipPath id="clip0_1080_1927"><rect width="75" height="75" fill="white" transform="translate(0 0.000366211)"></rect></clipPath></defs></svg> 