<?xml version="1.0" encoding="UTF-8"?> <svg xmlns="http://www.w3.org/2000/svg" width="15" height="15" viewBox="0 0 15 15" fill="none"><g clip-path="url(#clip0_51_485)"><path d="M13.7963 3.86099C13.7784 3.46637 13.7784 3.08969 13.7784 2.713C13.7784 2.40807 13.5452 2.17489 13.2403 2.17489C10.9981 2.17489 9.29409 1.52915 7.87705 0.147982C7.6618 -0.0493274 7.33893 -0.0493274 7.12368 0.147982C5.70664 1.52915 4.00261 2.17489 1.76045 2.17489C1.45552 2.17489 1.22234 2.40807 1.22234 2.713C1.22234 3.08969 1.22234 3.46637 1.2044 3.86099C1.13265 7.6278 1.02503 12.7937 7.32099 14.9641L7.50036 15L7.67974 14.9641C13.9578 12.7937 13.8681 7.64574 13.7963 3.86099ZM7.06987 9.08072C6.96225 9.1704 6.83669 9.22421 6.69319 9.22421H6.67525C6.53175 9.22421 6.38826 9.15247 6.29857 9.04484L4.63041 7.19731L5.43758 6.47982L6.747 7.93274L9.65283 5.1704L10.3883 5.95964L7.06987 9.08072Z" fill="#74E37F"></path></g><defs><clipPath id="clip0_51_485"><rect width="15" height="15" fill="white"></rect></clipPath></defs></svg> 