<?xml version="1.0" encoding="UTF-8"?> <svg xmlns="http://www.w3.org/2000/svg" width="75" height="75" viewBox="0 0 75 75" fill="none"><g clip-path="url(#clip0_1080_1795)"><path d="M52.8217 32.228H51.1641C50.3552 32.228 49.6992 32.884 49.6992 33.6929C49.6992 34.5018 50.3552 35.1577 51.1641 35.1577H52.8217C53.6306 35.1577 54.2865 34.5018 54.2865 33.6929C54.2865 32.884 53.6306 32.228 52.8217 32.228Z" fill="white"></path><path d="M16.2164 32.228H14.5586C13.7496 32.228 13.0938 32.884 13.0938 33.6929C13.0938 34.5018 13.7496 35.1577 14.5586 35.1577H16.2162C17.0252 35.1577 17.6811 34.5018 17.6811 33.6929C17.6811 32.884 17.0254 32.228 16.2164 32.228Z" fill="white"></path><path d="M33.6914 49.7021C32.8824 49.7021 32.2266 50.3581 32.2266 51.167V52.8246C32.2266 53.6335 32.8824 54.2895 33.6914 54.2895C34.5004 54.2895 35.1562 53.6335 35.1562 52.8246V51.167C35.1562 50.358 34.5004 49.7021 33.6914 49.7021Z" fill="white"></path><path d="M33.6914 17.7282C34.5004 17.7282 35.1562 17.0722 35.1562 16.2633V14.6057C35.1562 13.7968 34.5004 13.1409 33.6914 13.1409C32.8824 13.1409 32.2266 13.7968 32.2266 14.6057V16.2633C32.2266 17.0724 32.8824 17.7282 33.6914 17.7282Z" fill="white"></path><path d="M45.1125 20.1974L35.1403 30.1696C34.6931 29.9852 34.2035 29.883 33.6898 29.883C33.1762 29.883 32.6867 29.9852 32.2395 30.1696L26.9539 24.884C26.3818 24.3122 25.4543 24.3122 24.8821 24.884C24.3101 25.4561 24.3101 26.3836 24.8821 26.9558L30.1676 32.2414C29.9835 32.6883 29.8812 33.178 29.8812 33.6916C29.8812 35.7949 31.5864 37.5002 33.6898 37.5002C35.7932 37.5002 37.4984 35.7949 37.4984 33.6916C37.4984 33.1779 37.3962 32.6883 37.2117 32.2411L47.1841 22.269C47.7561 21.697 47.7561 20.7694 47.1841 20.1973C46.6121 19.6257 45.6848 19.6255 45.1125 20.1974Z" fill="white"></path><path d="M52.0039 48.1201H53.4688C54.2776 48.1201 54.9336 47.4642 54.9336 46.6553C54.9336 45.8464 54.2776 45.1904 53.4688 45.1904H52.0039C51.195 45.1904 50.5391 45.8464 50.5391 46.6553C50.5391 47.4642 51.195 48.1201 52.0039 48.1201Z" fill="white"></path><path d="M59.9102 48.1201H66.9414C67.7503 48.1201 68.4062 47.4642 68.4062 46.6553C68.4062 45.8464 67.7503 45.1904 66.9414 45.1904H59.9102C59.1013 45.1904 58.4453 45.8464 58.4453 46.6553C58.4453 47.4642 59.1013 48.1201 59.9102 48.1201Z" fill="white"></path><path d="M52.0039 54.7119H53.4688C54.2776 54.7119 54.9336 54.056 54.9336 53.2471C54.9336 52.4382 54.2776 51.7822 53.4688 51.7822H52.0039C51.195 51.7822 50.5391 52.4382 50.5391 53.2471C50.5391 54.056 51.195 54.7119 52.0039 54.7119Z" fill="white"></path><path d="M59.9102 54.7119H66.9414C67.7503 54.7119 68.4062 54.056 68.4062 53.2471C68.4062 52.4382 67.7503 51.7822 66.9414 51.7822H59.9102C59.1013 51.7822 58.4453 52.4382 58.4453 53.2471C58.4453 54.056 59.1013 54.7119 59.9102 54.7119Z" fill="white"></path><path d="M52.0039 61.3037H53.4688C54.2776 61.3037 54.9336 60.6478 54.9336 59.8389C54.9336 59.03 54.2776 58.374 53.4688 58.374H52.0039C51.195 58.374 50.5391 59.03 50.5391 59.8389C50.5391 60.6478 51.195 61.3037 52.0039 61.3037Z" fill="white"></path><path d="M59.9102 61.3037H66.9414C67.7503 61.3037 68.4062 60.6478 68.4062 59.8389C68.4062 59.03 67.7503 58.374 66.9414 58.374H59.9102C59.1013 58.374 58.4453 59.03 58.4453 59.8389C58.4453 60.6478 59.1013 61.3037 59.9102 61.3037Z" fill="white"></path><path d="M52.0039 67.8955H53.4688C54.2776 67.8955 54.9336 67.2396 54.9336 66.4307C54.9336 65.6218 54.2776 64.9658 53.4688 64.9658H52.0039C51.195 64.9658 50.5391 65.6218 50.5391 66.4307C50.5391 67.2396 51.195 67.8955 52.0039 67.8955Z" fill="white"></path><path d="M59.9102 67.8955H66.9414C67.7503 67.8955 68.4062 67.2396 68.4062 66.4307C68.4062 65.6218 67.7503 64.9658 66.9414 64.9658H59.9102C59.1013 64.9658 58.4453 65.6218 58.4453 66.4307C58.4453 67.2396 59.1013 67.8955 59.9102 67.8955Z" fill="white"></path><path d="M73.5352 38.0859H67.097C67.286 36.6333 67.3828 35.1614 67.3828 33.6914C67.3828 24.6921 63.8783 16.2315 57.5149 9.86807C51.1513 3.50449 42.6908 0 33.6914 0C24.6921 0 16.2315 3.50449 9.86807 9.86792C3.50464 16.2313 0 24.6921 0 33.6914C0 42.6908 3.50449 51.1513 9.86807 57.5149C16.2315 63.8783 24.6921 67.3828 33.6914 67.3828C37.2013 67.3828 40.6421 66.847 43.9453 65.7918V73.5352C43.9453 74.344 44.6013 75 45.4102 75H73.5352C74.344 75 75 74.344 75 73.5352V39.5508C75 38.7419 74.344 38.0859 73.5352 38.0859ZM33.6914 64.4531C16.7294 64.4531 2.92969 50.6534 2.92969 33.6914C2.92969 16.7294 16.7294 2.92969 33.6914 2.92969C50.6534 2.92969 64.4531 16.7294 64.4531 33.6914C64.4531 35.1631 64.3468 36.6363 64.1398 38.0859H60.1824C60.4206 36.6387 60.5429 35.1671 60.5429 33.6914C60.5429 18.8855 48.4975 6.83994 33.6914 6.83994C18.8854 6.83994 6.83994 18.8855 6.83994 33.6914C6.83994 48.4973 18.8855 60.5429 33.6914 60.5429C37.2094 60.5429 40.712 59.8443 43.9453 58.5117V62.7034C40.6604 63.8647 37.2144 64.4531 33.6914 64.4531ZM45.4102 38.0859C44.6013 38.0859 43.9453 38.7419 43.9453 39.5508V55.3097C40.736 56.8378 37.2908 57.6132 33.6914 57.6132C20.5009 57.6132 9.76963 46.8819 9.76963 33.6914C9.76963 20.5009 20.5009 9.76963 33.6914 9.76963C46.8819 9.76963 57.6132 20.5009 57.6132 33.6914C57.6132 35.1702 57.4755 36.6435 57.2082 38.0859H45.4102ZM72.0703 72.0703H46.875V41.0156H72.0703V72.0703Z" fill="white"></path></g><defs><clipPath id="clip0_1080_1795"><rect width="75" height="75" fill="white"></rect></clipPath></defs></svg> 