<?xml version="1.0" encoding="UTF-8"?> <svg xmlns="http://www.w3.org/2000/svg" width="75" height="75" viewBox="0 0 75 75" fill="none"><path d="M72.6562 60.9375H65.625V27.586C68.2959 26.746 70.5777 24.9776 72.0575 22.6008C73.5373 20.224 74.1173 17.396 73.6924 14.6286C73.2675 11.8612 71.8658 9.33738 69.7412 7.51401C67.6165 5.69065 64.9092 4.68823 62.1094 4.68823C59.3096 4.68823 56.6023 5.69065 54.4776 7.51401C52.3529 9.33738 50.9512 11.8612 50.5264 14.6286C50.1015 17.396 50.6814 20.224 52.1612 22.6008C53.641 24.9776 55.9229 26.746 58.5938 27.586V60.9375H48.0469V58.5938H53.9062C54.2171 58.5938 54.5151 58.4703 54.7349 58.2505C54.9547 58.0308 55.0781 57.7327 55.0781 57.4219V53.9063C55.0781 53.5955 54.9547 53.2974 54.7349 53.0776C54.5151 52.8579 54.2171 52.7344 53.9062 52.7344H52.6758C52.7147 52.5415 52.7343 52.3452 52.7344 52.1485V32.2266C52.7336 31.4498 52.4247 30.7051 51.8754 30.1558C51.3262 29.6066 50.5815 29.2977 49.8047 29.2969H40.957C40.996 29.104 41.0156 28.9077 41.0156 28.711V8.78908C41.0149 8.01232 40.7059 7.26759 40.1567 6.71834C39.6074 6.16908 38.8627 5.86017 38.0859 5.85939H18.1641C17.3873 5.86017 16.6426 6.16908 16.0933 6.71834C15.5441 7.26759 15.2352 8.01232 15.2344 8.78908V28.711C15.2344 28.9077 15.2541 29.104 15.293 29.2969H6.44531C5.66855 29.2977 4.92382 29.6066 4.37457 30.1558C3.82531 30.7051 3.5164 31.4498 3.51562 32.2266V52.1485C3.51567 52.3452 3.5353 52.5415 3.57422 52.7344H2.34375C2.03295 52.7344 1.73488 52.8579 1.51511 53.0776C1.29534 53.2974 1.17188 53.5955 1.17188 53.9063V57.4219C1.17188 57.7327 1.29534 58.0308 1.51511 58.2505C1.73488 58.4703 2.03295 58.5938 2.34375 58.5938H8.20312V60.9375H2.34375C2.03295 60.9375 1.73488 61.061 1.51511 61.2808C1.29534 61.5005 1.17188 61.7986 1.17188 62.1094V65.625C1.17188 65.9358 1.29534 66.2339 1.51511 66.4537C1.73488 66.6734 2.03295 66.7969 2.34375 66.7969H3.51562V70.3125C3.51562 70.6233 3.63909 70.9214 3.85886 71.1412C4.07863 71.3609 4.3767 71.4844 4.6875 71.4844H11.7188C12.0296 71.4844 12.3276 71.3609 12.5474 71.1412C12.7672 70.9214 12.8906 70.6233 12.8906 70.3125V66.7969H62.1094V70.3125C62.1094 70.6233 62.2328 70.9214 62.4526 71.1412C62.6724 71.3609 62.9704 71.4844 63.2812 71.4844H70.3125C70.6233 71.4844 70.9214 71.3609 71.1411 71.1412C71.3609 70.9214 71.4844 70.6233 71.4844 70.3125V66.7969H72.6562C72.967 66.7969 73.2651 66.6734 73.4849 66.4537C73.7047 66.2339 73.8281 65.9358 73.8281 65.625V62.1094C73.8281 61.7986 73.7047 61.5005 73.4849 61.2808C73.2651 61.061 72.967 60.9375 72.6562 60.9375ZM52.7344 16.4063C52.7344 14.5521 53.2842 12.7395 54.3143 11.1978C55.3445 9.65609 56.8087 8.45447 58.5217 7.7449C60.2348 7.03533 62.1198 6.84967 63.9383 7.21141C65.7569 7.57314 67.4274 8.46603 68.7385 9.77714C70.0496 11.0883 70.9425 12.7587 71.3042 14.5773C71.666 16.3959 71.4803 18.2809 70.7707 19.9939C70.0612 21.707 68.8596 23.1712 67.3178 24.2013C65.7761 25.2314 63.9636 25.7813 62.1094 25.7813C59.6238 25.7785 57.2409 24.7899 55.4833 23.0323C53.7258 21.2748 52.7372 18.8918 52.7344 16.4063ZM63.2812 28.125V60.9375H60.9375V28.125H63.2812ZM44.5312 43.3594C44.6852 43.3597 44.8378 43.3296 44.9801 43.2709C45.1224 43.2121 45.2517 43.1258 45.3606 43.0169C45.4695 42.908 45.5558 42.7787 45.6146 42.6364C45.6734 42.494 45.7035 42.3415 45.7031 42.1875V31.6406H49.8047C49.9601 31.6406 50.1091 31.7024 50.219 31.8123C50.3289 31.9221 50.3906 32.0712 50.3906 32.2266V52.1485C50.3906 52.3039 50.3289 52.4529 50.219 52.5628C50.1091 52.6727 49.9601 52.7344 49.8047 52.7344H29.8828C29.7274 52.7344 29.5784 52.6727 29.4685 52.5628C29.3586 52.4529 29.2969 52.3039 29.2969 52.1485V32.2266C29.2969 32.0712 29.3586 31.9221 29.4685 31.8123C29.5784 31.7024 29.7274 31.6406 29.8828 31.6406H33.9844V42.1875C33.9842 42.3874 34.0352 42.584 34.1325 42.7586C34.2297 42.9332 34.37 43.08 34.54 43.1851C34.7099 43.2902 34.904 43.3501 35.1036 43.3591C35.3033 43.368 35.5019 43.3258 35.6807 43.2364L39.8438 41.1533L44.0068 43.2364C44.1698 43.3172 44.3493 43.3593 44.5312 43.3594ZM43.3594 31.6406V40.292L40.3682 38.7949C40.2052 38.714 40.0257 38.6719 39.8438 38.6719C39.6618 38.6719 39.4823 38.714 39.3193 38.7949L36.3281 40.292V31.6406H43.3594ZM24.6094 8.20315H31.6406V16.8545L28.6494 15.3574C28.4864 15.2765 28.307 15.2344 28.125 15.2344C27.943 15.2344 27.7636 15.2765 27.6006 15.3574L24.6094 16.8545V8.20315ZM17.5781 8.78908C17.5781 8.63368 17.6399 8.48465 17.7497 8.37476C17.8596 8.26488 18.0087 8.20315 18.1641 8.20315H22.2656V18.75C22.2655 18.9499 22.3165 19.1464 22.4137 19.3211C22.5109 19.4957 22.6512 19.6425 22.8212 19.7476C22.9912 19.8527 23.1852 19.9126 23.3849 19.9216C23.5846 19.9305 23.7832 19.8883 23.9619 19.7988L28.125 17.7158L32.2881 19.7988C32.4668 19.8883 32.6654 19.9305 32.8651 19.9216C33.0648 19.9126 33.2588 19.8527 33.4288 19.7476C33.5988 19.6425 33.7391 19.4957 33.8363 19.3211C33.9335 19.1464 33.9845 18.9499 33.9844 18.75V8.20315H38.0859C38.2413 8.20315 38.3904 8.26488 38.5003 8.37476C38.6101 8.48465 38.6719 8.63368 38.6719 8.78908V28.711C38.6719 28.8664 38.6101 29.0154 38.5003 29.1253C38.3904 29.2352 38.2413 29.2969 38.0859 29.2969H18.1641C18.0087 29.2969 17.8596 29.2352 17.7497 29.1253C17.6399 29.0154 17.5781 28.8664 17.5781 28.711V8.78908ZM12.8906 31.6406H19.9219V40.292L16.9307 38.7949C16.7677 38.714 16.5882 38.6719 16.4062 38.6719C16.2243 38.6719 16.0448 38.714 15.8818 38.7949L12.8906 40.292V31.6406ZM5.85938 32.2266C5.85938 32.0712 5.92111 31.9221 6.03099 31.8123C6.14088 31.7024 6.28991 31.6406 6.44531 31.6406H10.5469V42.1875C10.5467 42.3874 10.5977 42.584 10.6949 42.7586C10.7922 42.9332 10.9325 43.08 11.1025 43.1851C11.2724 43.2902 11.4665 43.3501 11.6661 43.3591C11.8658 43.368 12.0644 43.3258 12.2432 43.2364L16.4062 41.1533L20.5693 43.2364C20.7481 43.3258 20.9467 43.368 21.1464 43.3591C21.346 43.3501 21.5401 43.2902 21.71 43.1851C21.88 43.08 22.0203 42.9332 22.1176 42.7586C22.2148 42.584 22.2658 42.3874 22.2656 42.1875V31.6406H26.3672C26.5226 31.6406 26.6716 31.7024 26.7815 31.8123C26.8914 31.9221 26.9531 32.0712 26.9531 32.2266V52.1485C26.9531 52.3039 26.8914 52.4529 26.7815 52.5628C26.6716 52.6727 26.5226 52.7344 26.3672 52.7344H6.44531C6.28991 52.7344 6.14088 52.6727 6.03099 52.5628C5.92111 52.4529 5.85938 52.3039 5.85938 52.1485V32.2266ZM3.51562 56.25V55.0781H52.7344V56.25H3.51562ZM45.7031 58.5938V60.9375H10.5469V58.5938H45.7031ZM10.5469 69.1406H5.85938V66.7969H10.5469V69.1406ZM69.1406 69.1406H64.4531V66.7969H69.1406V69.1406ZM71.4844 64.4531H3.51562V63.2813H71.4844V64.4531Z" fill="white"></path><path d="M70.3125 16.4063C70.3125 14.7838 69.8314 13.1978 68.93 11.8488C68.0287 10.4998 66.7475 9.44843 65.2486 8.82755C63.7497 8.20668 62.1003 8.04423 60.509 8.36075C58.9178 8.67727 57.4561 9.45854 56.3089 10.6058C55.1617 11.753 54.3804 13.2147 54.0639 14.8059C53.7474 16.3972 53.9098 18.0465 54.5307 19.5455C55.1516 21.0444 56.203 22.3255 57.552 23.2269C58.901 24.1283 60.487 24.6094 62.1094 24.6094C64.2842 24.6069 66.3693 23.7419 67.9072 22.204C69.445 20.6662 70.3101 18.5811 70.3125 16.4063ZM56.25 16.4063C56.25 15.2474 56.5936 14.1145 57.2375 13.151C57.8813 12.1874 58.7964 11.4364 59.8671 10.9929C60.9378 10.5494 62.1159 10.4334 63.2525 10.6595C64.3891 10.8856 65.4331 11.4436 66.2526 12.2631C67.072 13.0825 67.6301 14.1265 67.8562 15.2631C68.0822 16.3998 67.9662 17.5779 67.5227 18.6485C67.0792 19.7192 66.3282 20.6343 65.3647 21.2781C64.4011 21.922 63.2683 22.2656 62.1094 22.2656C60.5559 22.2639 59.0666 21.646 57.9681 20.5475C56.8696 19.4491 56.2517 17.9597 56.25 16.4063Z" fill="white"></path><path d="M63.2812 16.4062V12.8906C63.2812 12.5798 63.1578 12.2818 62.938 12.062C62.7182 11.8422 62.4202 11.7188 62.1094 11.7188C61.7986 11.7188 61.5005 11.8422 61.2807 12.062C61.061 12.2818 60.9375 12.5798 60.9375 12.8906V16.4062C60.9375 16.7171 61.061 17.0151 61.2807 17.2349C61.5005 17.4547 61.7986 17.5781 62.1094 17.5781C62.4202 17.5781 62.7182 17.4547 62.938 17.2349C63.1578 17.0151 63.2812 16.7171 63.2812 16.4062Z" fill="white"></path></svg> 