<?xml version="1.0" encoding="UTF-8"?> <svg xmlns="http://www.w3.org/2000/svg" width="75" height="75" viewBox="0 0 75 75" fill="none"><path d="M19.4976 16.6607C19.7489 16.6607 20.0018 16.5749 20.2085 16.3994L21.0428 15.6905C21.5053 15.2977 21.5617 14.6044 21.1688 14.1421C20.7759 13.6795 20.0828 13.6232 19.6202 14.0161L18.7858 14.7249C18.3234 15.1178 18.267 15.8111 18.6598 16.2734C18.8772 16.5293 19.1863 16.6607 19.4976 16.6607Z" fill="white"></path><path d="M45.689 16.823L46.4631 17.597C46.6777 17.8115 46.9588 17.9187 47.2399 17.9187C47.5211 17.9187 47.8023 17.8115 48.0169 17.5969C48.446 17.1678 48.4458 16.4722 48.0169 16.0432L47.2427 15.2692C46.8135 14.8403 46.118 14.8402 45.689 15.2694C45.2599 15.6983 45.2599 16.3939 45.689 16.823Z" fill="white"></path><path d="M30.8146 18.4622C31.4213 18.4622 31.9132 17.9704 31.9132 17.3635C31.9132 16.7566 31.4213 16.2649 30.8146 16.2649H29.7197C29.113 16.2649 28.6211 16.7566 28.6211 17.3635C28.6211 17.9704 29.113 18.4622 29.7197 18.4622H30.8146Z" fill="white"></path><path d="M37.6963 17.5237H38.7912C39.3979 17.5237 39.8898 17.0319 39.8898 16.425C39.8898 15.8182 39.3979 15.3264 38.7912 15.3264H37.6963C37.0896 15.3264 36.5977 15.8182 36.5977 16.425C36.5977 17.0319 37.0896 17.5237 37.6963 17.5237Z" fill="white"></path><path d="M16.583 25.3054H17.6779C18.2846 25.3054 18.7765 24.8137 18.7765 24.2068C18.7765 23.5999 18.2846 23.1082 17.6779 23.1082H16.583C15.9763 23.1082 15.4844 23.5999 15.4844 24.2068C15.4844 24.8137 15.9763 25.3054 16.583 25.3054Z" fill="white"></path><path d="M20.8057 28.5642H21.9005C22.5072 28.5642 22.9991 28.0725 22.9991 27.4656C22.9991 26.8587 22.5072 26.3669 21.9005 26.3669H20.8057C20.1989 26.3669 19.707 26.8587 19.707 27.4656C19.707 28.0725 20.1989 28.5642 20.8057 28.5642Z" fill="white"></path><path d="M24.5596 24.3674H25.6544C26.2611 24.3674 26.753 23.8757 26.753 23.2688C26.753 22.6619 26.2611 22.1702 25.6544 22.1702H24.5596C23.9528 22.1702 23.4609 22.6619 23.4609 23.2688C23.4609 23.8757 23.9528 24.3674 24.5596 24.3674Z" fill="white"></path><path d="M49.2705 28.8572H50.3653C50.9721 28.8572 51.464 28.3654 51.464 27.7585C51.464 27.1517 50.9721 26.6599 50.3653 26.6599H49.2705C48.6638 26.6599 48.1719 27.1517 48.1719 27.7585C48.1719 28.3654 48.6638 28.8572 49.2705 28.8572Z" fill="white"></path><path d="M45.0479 25.5193H46.1427C46.7494 25.5193 47.2413 25.0275 47.2413 24.4207C47.2413 23.8138 46.7494 23.322 46.1427 23.322H45.0479C44.4411 23.322 43.9492 23.8138 43.9492 24.4207C43.9492 25.0275 44.441 25.5193 45.0479 25.5193Z" fill="white"></path><path d="M31.1271 27.0183H30.0322C29.4255 27.0183 28.9336 27.5101 28.9336 28.1169C28.9336 28.7238 29.4255 29.2156 30.0322 29.2156H31.1271C31.7338 29.2156 32.2257 28.7238 32.2257 28.1169C32.2257 27.5101 31.7338 27.0183 31.1271 27.0183Z" fill="white"></path><path d="M39.1036 26.0798H38.0088C37.402 26.0798 36.9102 26.5716 36.9102 27.1785C36.9102 27.7854 37.402 28.2771 38.0088 28.2771H39.1036C39.7103 28.2771 40.2022 27.7854 40.2022 27.1785C40.2022 26.5716 39.7103 26.0798 39.1036 26.0798Z" fill="white"></path><path d="M52.6299 47.0452H53.7247C54.3314 47.0452 54.8233 46.5534 54.8233 45.9465C54.8233 45.3396 54.3314 44.8479 53.7247 44.8479H52.6299C52.0231 44.8479 51.5312 45.3396 51.5312 45.9465C51.5312 46.5534 52.0231 47.0452 52.6299 47.0452Z" fill="white"></path><path d="M60.6064 46.1072H61.7013C62.308 46.1072 62.7999 45.6154 62.7999 45.0085C62.7999 44.4017 62.308 43.9099 61.7013 43.9099H60.6064C59.9997 43.9099 59.5078 44.4017 59.5078 45.0085C59.5078 45.6154 59.9996 46.1072 60.6064 46.1072Z" fill="white"></path><path d="M45.6739 53.137H44.5791C43.9724 53.137 43.4805 53.6287 43.4805 54.2356C43.4805 54.8425 43.9724 55.3342 44.5791 55.3342H45.6739C46.2807 55.3342 46.7726 54.8425 46.7726 54.2356C46.7726 53.6287 46.2807 53.137 45.6739 53.137Z" fill="white"></path><path d="M49.8966 57.6731H48.8018C48.195 57.6731 47.7031 58.1648 47.7031 58.7717C47.7031 59.3786 48.195 59.8704 48.8018 59.8704H49.8966C50.5033 59.8704 50.9952 59.3786 50.9952 58.7717C50.9952 58.1648 50.5033 57.6731 49.8966 57.6731Z" fill="white"></path><path d="M67.6475 47.9099C67.6295 45.7092 66.7638 43.7079 65.3616 42.2148C65.6565 41.1413 65.8545 40.036 65.9467 38.9095C65.996 38.3048 65.5459 37.7745 64.9412 37.725C64.3364 37.6752 63.8061 38.1258 63.7567 38.7306C63.7022 39.3976 63.6054 40.0562 63.4689 40.7036C62.22 39.9714 60.7682 39.5493 59.2188 39.5493H55.2709C50.6664 39.5493 46.9147 43.2602 46.8438 47.8481C43.409 47.9987 40.5028 50.2138 39.336 53.2806H18.0573C9.31201 53.2806 2.19727 46.1659 2.19727 37.4208V32.3628H63.8108V33.6932C63.8108 34.3001 64.3027 34.7918 64.9094 34.7918C65.5161 34.7918 66.008 34.3001 66.008 33.6932V31.9966C66.008 30.9869 65.1867 30.1656 64.177 30.1656H61.9046C61.1815 27.9816 59.5887 26.1917 57.5382 25.2066C57.9121 24.2438 58.1089 23.2087 58.1089 22.1416C58.1089 19.884 57.2351 17.767 55.6485 16.1804L52.857 13.3887C49.7735 10.3052 44.8761 10.1143 41.568 12.8162C40.1248 11.6602 38.2961 10.9664 36.3075 10.9664H32.3596C30.1796 10.9664 28.1919 11.7998 26.694 13.1625C23.6685 9.71824 18.4115 9.32186 14.9005 12.3047L14.8863 12.3169C14.4259 12.7121 14.3732 13.4058 14.7684 13.8661C15.1636 14.3263 15.8572 14.3794 16.3176 13.984L16.3274 13.9755C18.9467 11.7503 22.8882 12.0711 25.1134 14.6902C25.1625 14.7479 25.2078 14.8075 25.2543 14.8666C24.6807 15.7632 24.2727 16.775 24.0721 17.8588C23.7754 17.827 23.4746 17.8097 23.1697 17.8097H19.2218C15.6864 17.8097 12.6543 19.9982 11.404 23.0909C10.8187 21.1191 11.214 18.8968 12.5937 17.2612C12.985 16.7972 12.9261 16.1042 12.4623 15.713C11.9985 15.322 11.3054 15.3809 10.9143 15.8444C9.64497 17.3492 8.94155 19.2717 8.93349 21.258C8.92851 22.4677 9.18486 23.6536 9.67134 24.739C7.04853 25.5323 4.96201 27.571 4.10317 30.1654H1.83105C0.821338 30.1654 0 30.9867 0 31.9965V37.4206C0 47.0536 7.58232 54.9485 17.0922 55.4518V60.2473C17.0922 61.257 17.9136 62.0783 18.9233 62.0783H26.5137C27.1204 62.0783 27.6123 61.5866 27.6123 60.9797C27.6123 60.3728 27.1204 59.8811 26.5137 59.8811H19.2895V55.4776H38.8254C38.8011 55.7382 38.7871 56.0019 38.7871 56.2688C38.7871 57.5608 39.0801 58.7854 39.6019 59.8809H31.6406C31.0339 59.8809 30.542 60.3727 30.542 60.9796C30.542 61.5865 31.0339 62.0782 31.6406 62.0782H41.1168C42.6535 63.691 44.8191 64.6992 47.2173 64.6992H51.1652C53.3752 64.6992 55.3872 63.842 56.892 62.4456C58.3972 63.8428 60.4107 64.6992 62.6215 64.6992H66.5694C71.2179 64.6992 74.9998 60.9175 74.9998 56.2688C75 51.9859 71.7885 48.4411 67.6475 47.9099ZM26.4391 30.1503C26.4391 26.7134 29.2353 23.9171 32.6723 23.9171H36.6202C40.0572 23.9171 42.8534 26.7134 42.8534 30.1503C42.8534 30.1554 42.8531 30.1604 42.8531 30.1656H26.4395C26.4395 30.1604 26.4391 30.1554 26.4391 30.1503ZM43.7767 21.4527H47.7246C51.1616 21.4527 53.9578 24.2489 53.9578 27.6859C53.9578 28.5671 53.7725 29.4052 53.4407 30.1656H45.0504C45.0504 30.1604 45.0507 30.1554 45.0507 30.1503C45.0507 26.8033 43.09 23.906 40.257 22.5457C41.2591 21.8568 42.4712 21.4527 43.7767 21.4527ZM59.5421 30.1656H55.7786C56.0212 29.381 56.1549 28.5491 56.1549 27.6859C56.1549 27.4512 56.1428 27.2195 56.1239 26.9895C57.6319 27.5672 58.8586 28.713 59.5421 30.1656ZM51.3032 14.9425L54.0948 17.7342C55.2663 18.9056 55.9116 20.4709 55.9116 22.1416C55.9116 22.9303 55.7659 23.6945 55.4905 24.4056C55.2016 23.7243 54.824 23.0902 54.3748 22.5141C54.7484 22.0825 54.7314 21.4297 54.3214 21.0197L53.5472 20.2455C53.1182 19.8163 52.4225 19.8164 51.9934 20.2453C51.9564 20.2824 51.9236 20.3221 51.893 20.3628C50.6625 19.6597 49.2401 19.2555 47.7243 19.2555H44.734C44.7039 17.4447 44.1015 15.7713 43.0982 14.409C44.2135 13.5506 45.5539 13.1199 46.8955 13.1199C48.4917 13.1196 50.0883 13.7274 51.3032 14.9425ZM32.3596 13.1636H36.3075C39.7286 13.1636 42.514 15.9345 42.5395 19.3497C40.6774 19.6254 39.0133 20.5112 37.7553 21.7984C37.3838 21.7481 37.0055 21.7199 36.6204 21.7199H36.1201C36.0344 21.1985 35.583 20.8005 35.0373 20.8005H33.9425C33.397 20.8005 32.9455 21.1985 32.8597 21.7199H32.6723C31.9071 21.7199 31.166 21.8242 30.4608 22.0162C29.5034 20.3697 28.0055 19.0752 26.2109 18.3784C26.6985 15.4244 29.2695 13.1636 32.3596 13.1636ZM19.222 20.0072H23.1699C25.3693 20.0072 27.3054 21.1528 28.415 22.8784C25.9208 24.3443 24.242 27.0541 24.242 30.1505C24.242 30.1556 24.2423 30.1606 24.2423 30.1657H14.3877C13.5148 29.0933 12.9889 27.7279 12.9889 26.2405C12.9888 22.8034 15.785 20.0072 19.222 20.0072ZM10.8064 26.715C10.8757 27.955 11.2129 29.1245 11.7631 30.1654H6.46304C7.28144 28.4261 8.88047 27.125 10.8064 26.715ZM55.2709 41.7466H59.2188C62.6084 41.7466 65.3727 44.4668 65.4483 47.8386H62.6216C60.4109 47.8386 58.3973 48.6951 56.8922 50.0923C55.3873 48.6958 53.3754 47.8386 51.1654 47.8386H49.0413C49.1169 44.4668 51.8812 41.7466 55.2709 41.7466ZM47.2173 62.5023C43.7804 62.5023 40.9841 59.706 40.9841 56.2691C40.9841 52.8321 43.7804 50.0359 47.2173 50.0359H51.1652C52.8429 50.0359 54.3658 50.704 55.4871 51.7859C55.1938 52.251 54.9448 52.7463 54.7457 53.2664C54.7292 52.674 54.2449 52.1989 53.6487 52.1989H52.5539C51.9472 52.1989 51.4553 52.6906 51.4553 53.2975C51.4553 53.9044 51.9472 54.3961 52.5539 54.3961H53.6487C53.9982 54.3961 54.3089 54.2323 54.5102 53.9781C54.3039 54.7071 54.1912 55.475 54.1912 56.2691C54.1912 57.9158 54.6675 59.4525 55.4871 60.7521C54.3659 61.8342 52.8429 62.5021 51.1652 62.5021H47.2173V62.5023ZM66.5695 62.5023H62.6216C59.1847 62.5023 56.3884 59.706 56.3884 56.2691C56.3884 52.8321 59.1847 50.0359 62.6216 50.0359H66.5695C70.0065 50.0359 72.8027 52.8321 72.8027 56.2691C72.8027 59.706 70.0065 62.5023 66.5695 62.5023Z" fill="white"></path><path d="M61.0765 53.1372H59.9817C59.375 53.1372 58.8831 53.629 58.8831 54.2358C58.8831 54.8427 59.375 55.3345 59.9817 55.3345H61.0765C61.6833 55.3345 62.1752 54.8427 62.1752 54.2358C62.1752 53.629 61.6833 53.1372 61.0765 53.1372Z" fill="white"></path><path d="M65.2989 57.6731H64.2041C63.5974 57.6731 63.1055 58.1648 63.1055 58.7717C63.1055 59.3786 63.5974 59.8704 64.2041 59.8704H65.2989C65.9057 59.8704 66.3976 59.3786 66.3976 58.7717C66.3976 58.1648 65.9057 57.6731 65.2989 57.6731Z" fill="white"></path><path d="M69.0528 52.199H67.958C67.3513 52.199 66.8594 52.6907 66.8594 53.2976C66.8594 53.9045 67.3513 54.3962 67.958 54.3962H69.0528C69.6596 54.3962 70.1515 53.9045 70.1515 53.2976C70.1515 52.6907 69.6596 52.199 69.0528 52.199Z" fill="white"></path></svg> 