<?xml version="1.0" encoding="UTF-8"?> <svg xmlns="http://www.w3.org/2000/svg" width="75" height="75" viewBox="0 0 75 75" fill="none"><path d="M74.2384 22.365L49.0431 8.53028C48.6042 8.28938 48.0721 8.28938 47.6332 8.53028L38.1586 13.7328C37.9446 13.7923 37.7449 13.9016 37.5755 14.0526L22.4379 22.365C21.9692 22.6225 21.678 23.1146 21.678 23.6491V26.644H4.77734C3.96825 26.644 3.3125 27.3003 3.3125 28.1088C3.3125 28.9179 3.96825 29.5737 4.77734 29.5737H21.678V34.8471H13.2797C12.4706 34.8471 11.8149 35.5034 11.8149 36.312C11.8149 37.1211 12.4706 37.7768 13.2797 37.7768H21.678V45.394H9.37329C8.56419 45.394 7.90845 46.0503 7.90845 46.8588C7.90845 47.6679 8.56419 48.3237 9.37329 48.3237H21.678V51.3192C21.678 51.8536 21.9692 52.3457 22.4379 52.6032L47.6332 66.438C47.8529 66.5587 48.0955 66.6188 48.3381 66.6188C48.5807 66.6188 48.8234 66.5587 49.0431 66.438L74.2384 52.6032C74.707 52.3457 74.9983 51.8536 74.9983 51.3192V44.7594C74.9983 43.9509 74.3425 43.2946 73.5334 43.2946C72.7243 43.2946 72.0686 43.9509 72.0686 44.7594V50.4523L49.803 62.6786V38.3507L56.884 34.4626V40.6332C56.884 41.1517 57.1575 41.6312 57.6033 41.8944C57.8327 42.03 58.0908 42.0981 58.3489 42.0981C58.5915 42.0981 58.8347 42.038 59.055 41.9167L64.4543 38.9452C64.9218 38.6877 65.2124 38.1962 65.2124 37.6618V29.8895L72.0686 26.125V33.0407C72.0686 33.8498 72.7243 34.5055 73.5334 34.5055C74.3425 34.5055 74.9983 33.8498 74.9983 33.0407V23.6491C74.9983 23.1146 74.707 22.6225 74.2384 22.365ZM46.8733 62.6786L24.6077 50.4523V26.125L46.8733 38.3507V62.6786ZM48.3381 35.813L26.1864 23.6491L33.1484 19.8262L55.3007 31.9901L48.3381 35.813ZM58.3443 30.3187L36.1919 18.1548L38.5935 16.8364L60.7452 29.0003L58.3443 30.3187ZM62.2828 36.796L59.8137 38.155V32.8541L62.2828 31.498V36.796ZM63.7888 27.3289L41.637 15.165L48.3381 11.4857L70.4899 23.6491L63.7888 27.3289Z" fill="white"></path><path d="M73.5352 37.436C73.1501 37.436 72.7718 37.5911 72.4995 37.8652C72.2271 38.1376 72.0703 38.5141 72.0703 38.9009C72.0703 39.286 72.2271 39.6642 72.4995 39.9366C72.7718 40.2089 73.1501 40.3657 73.5352 40.3657C73.9202 40.3657 74.2985 40.2089 74.5708 39.9366C74.8432 39.6642 75 39.286 75 38.9009C75 38.5141 74.8432 38.1376 74.5708 37.8652C74.2985 37.5911 73.9202 37.436 73.5352 37.436Z" fill="white"></path><path d="M3.56426 45.394H1.46484C0.655746 45.394 0 46.0504 0 46.8589C0 47.668 0.655746 48.3237 1.46484 48.3237H3.56426C4.37336 48.3237 5.02911 47.668 5.02911 46.8589C5.02911 46.0504 4.37336 45.394 3.56426 45.394Z" fill="white"></path><path d="M8.88672 36.312C8.88672 35.9269 8.72993 35.5493 8.45699 35.2769C8.18462 35.004 7.80697 34.8472 7.42188 34.8472C7.03621 34.8472 6.65855 35.004 6.38618 35.2769C6.1121 35.5493 5.95703 35.9269 5.95703 36.312C5.95703 36.6977 6.1121 37.0753 6.38618 37.3477C6.65855 37.6201 7.03621 37.7769 7.42188 37.7769C7.80697 37.7769 8.18462 37.6206 8.45699 37.3477C8.72993 37.0753 8.88672 36.6977 8.88672 36.312Z" fill="white"></path></svg> 