<?xml version="1.0" encoding="UTF-8"?> <svg xmlns="http://www.w3.org/2000/svg" width="664" height="146" viewBox="0 0 664 146" fill="none"><path fill-rule="evenodd" clip-rule="evenodd" d="M87.8786 58.5017C86.7265 66.825 82.5857 74.4262 75.4554 81.305C69.2122 87.3584 61.5696 92.1049 52.5291 95.5444C52.0092 95.7508 51.0094 96.1292 49.5291 96.6793C48.5388 95.7163 47.466 95.0973 46.3109 94.8222L45.8416 94.4094H45.7361L45.7649 94.203C45.7837 94.0656 45.8729 93.9279 46.0326 93.7902H46.559C46.9102 93.7902 47.7428 93.8592 49.0576 93.9966C50.6437 94.203 51.4718 94.3062 51.5421 94.3062C54.4908 94.3062 58.4641 92.4832 63.4591 88.8546C67.5191 85.8968 70.9357 82.7671 73.7073 79.4821C79.9188 72.1389 83.5276 64.8302 84.5346 57.5557C84.8961 54.9416 84.5829 52.6371 83.593 50.6594C82.4424 48.3208 80.604 47.1514 78.0766 47.1514C69.3011 47.1514 61.0395 56.627 53.2917 75.5782C52.1101 78.5364 49.7101 84.2116 46.0938 92.5865C44.0326 97.3331 40.5608 102.131 35.6723 107.015C41.0247 107.909 46.869 109.302 53.2018 111.228C55.8956 112.054 58.5848 112.914 61.2691 113.808C64.5152 114.702 67.3315 115.149 69.7186 115.149C74.0008 115.149 78.2005 113.464 82.3176 110.093L82.1319 111.435C73.0354 116.8 66.8017 119.483 63.4323 119.483C58.8686 119.483 53.3507 118.52 46.878 116.594L30.595 111.744C23.4639 117.11 16.4233 119.793 9.47335 119.793C2.66335 119.793 -0.474997 117.867 0.058043 114.014C0.486502 110.919 3.71422 108.649 9.74107 107.204C13.806 106.241 18.225 105.76 22.9988 105.76C24.824 105.76 28.4668 106.069 33.9273 106.688C36.6142 102.492 39.0002 96.9203 41.0848 89.9725C43.6886 81.305 45.4635 75.8363 46.4092 73.5663C49.0118 67.4442 52.6376 62.0442 57.2862 57.3666C64.9519 49.6623 72.1896 45.8099 78.9992 45.8099C82.3691 45.8099 84.8514 47.1514 86.4452 49.8341C87.8772 52.173 88.3547 55.0622 87.8786 58.5017ZM1.08277 114.221C0.911093 115.459 1.9014 116.422 4.05264 117.11C5.60067 117.591 7.21753 117.832 8.90202 117.832C16.6244 117.832 23.3126 115.665 28.9671 111.332C24.6455 110.094 19.2906 109.474 12.9018 109.474C10.6553 109.474 8.40139 109.784 6.13904 110.403C3.0063 111.228 1.32061 112.501 1.08277 114.221ZM168.332 58.5017C167.18 66.825 163.039 74.4262 155.909 81.305C149.665 87.3584 142.023 92.1049 132.982 95.5444C132.462 95.7508 131.462 96.1292 129.982 96.6793C128.992 95.7163 127.919 95.0973 126.764 94.8222L126.294 94.4094H126.189L126.218 94.203C126.237 94.0656 126.326 93.9279 126.485 93.7902H127.012C127.363 93.7902 128.196 93.8592 129.51 93.9966C131.097 94.203 131.925 94.3062 131.995 94.3062C134.944 94.3062 138.917 92.4832 143.912 88.8546C147.972 85.8968 151.389 82.7671 154.16 79.4821C160.372 72.1389 163.98 64.8302 164.987 57.5557C165.349 54.9416 165.036 52.6371 164.046 50.6594C162.896 48.3208 161.057 47.1514 158.529 47.1514C149.754 47.1514 141.492 56.627 133.745 75.5782C132.563 78.5364 130.163 84.2116 126.547 92.5865C124.485 97.3331 121.014 102.131 116.126 107.015C121.477 107.909 127.322 109.302 133.655 111.228C136.348 112.054 139.038 112.914 141.722 113.808C144.968 114.702 147.784 115.149 150.171 115.149C154.454 115.149 158.654 113.464 162.77 110.093L162.585 111.435C153.488 116.8 147.255 119.483 143.885 119.483C139.322 119.483 133.804 118.52 127.331 116.594L111.048 111.744C103.917 117.11 96.8761 119.793 89.9262 119.793C83.1162 119.793 79.9781 117.867 80.5113 114.014C80.9398 110.919 84.167 108.649 90.1943 107.204C94.2587 106.241 98.6779 105.76 103.452 105.76C105.277 105.76 108.92 106.069 114.381 106.688C117.067 102.492 119.453 96.9203 121.538 89.9725C124.141 81.305 125.916 75.8363 126.862 73.5663C129.465 67.4442 133.09 62.0442 137.739 57.3666C145.405 49.6623 152.643 45.8099 159.452 45.8099C162.822 45.8099 165.304 47.1514 166.898 49.8341C168.33 52.173 168.808 55.0622 168.332 58.5017ZM81.5356 114.221C81.3644 115.459 82.3543 116.422 84.5058 117.11C86.0534 117.591 87.6703 117.832 89.3549 117.832C97.0777 117.832 103.766 115.665 109.42 111.332C105.099 110.094 99.7434 109.474 93.3547 109.474C91.1082 109.474 88.8543 109.784 86.5923 110.403C83.4592 111.228 81.7735 112.501 81.5356 114.221ZM191.878 123.094C183.401 123.094 176.612 120.79 171.493 116.181C166.009 111.297 163.824 104.762 164.957 96.5761C166.005 89.0093 169.481 81.1331 175.388 72.9471C180.868 65.3117 187.215 59.0173 194.429 54.0646C202.651 48.424 210.448 45.6035 217.82 45.6035C222.945 45.6035 226.722 47.2201 229.153 50.4534C231.584 53.6863 232.447 57.8481 231.743 62.9385C230.476 72.0872 225.727 80.7892 217.494 89.0439C208.863 97.6423 199.983 101.942 190.857 101.942C187.277 101.942 184.494 100.996 182.509 99.1044C180.524 97.2125 179.77 94.5471 180.246 91.1074C181.084 85.054 185.097 79.1383 192.285 73.3599C199.005 67.9257 205.63 64.6924 212.161 63.6606L212.884 63.7638L213.038 64.1768C213.028 64.2455 212.979 64.3487 212.89 64.486C211.291 65.3803 209.354 66.4466 207.076 67.6848C191.143 76.2836 182.663 84.2974 181.635 91.7267C180.864 97.2986 183.427 100.085 189.323 100.085C197.116 100.085 205.622 95.4412 214.84 86.1547C223.739 77.1434 228.732 68.7165 229.817 60.8747C230.398 56.6787 229.719 53.3422 227.78 50.8658C225.823 48.3895 222.748 47.1514 218.536 47.1514C210.936 47.1514 203.204 50.9003 195.339 58.3984C189.522 63.9015 184.235 70.7804 179.513 79.0351C174.575 87.7026 171.629 95.5444 170.658 102.561C169.782 108.889 171.336 113.636 175.321 116.8C178.792 119.621 183.862 121.031 190.531 121.031C200.29 121.031 211.828 117.557 225.145 110.609L224.945 112.054C214.537 119.414 203.514 123.094 191.878 123.094Z" fill="url(#paint0_linear_1367_123)"></path><path fill-rule="evenodd" clip-rule="evenodd" d="M285.755 86.0226C285.755 87.7923 284.848 89.5454 283.034 91.2647C282.093 92.1747 281.22 92.6467 280.43 92.6467C279.943 92.6467 279.691 92.4277 279.691 91.9894C279.691 91.8715 279.792 91.6016 279.994 91.2138C280.279 90.6409 280.43 90.1017 280.43 89.5792C280.43 87.9945 279.792 86.6965 278.516 85.6685C277.239 84.6907 275.593 84.2019 273.594 84.2019C271.074 84.2019 268.689 84.9267 266.455 86.3595C264.188 87.8428 262.391 89.8148 261.047 92.2422C259.703 94.6862 259.031 97.2993 259.031 100.097C259.031 103.519 259.938 106.603 261.786 109.334C263.65 112.132 266.187 114.273 269.411 115.756C272.687 117.29 276.332 118.066 280.329 118.066C284.495 118.066 288.425 117.122 292.104 115.2C295.699 113.363 298.621 110.817 300.855 107.548C303.055 104.362 304.147 100.991 304.147 97.4339C304.147 95.1245 303.727 93.0345 302.871 91.1634C302.048 89.4441 300.586 87.6576 298.487 85.7695C296.421 83.9322 293.431 81.8083 289.484 79.398C286.208 77.291 283.806 75.6896 282.295 74.5603C281.085 73.6838 280.061 72.7063 279.204 71.6442C277.172 69.2173 276.147 66.6886 276.147 64.0927C276.147 62.3567 276.701 60.3676 277.827 58.1767C279.003 55.8672 280.464 53.8444 282.211 52.0914C284.495 49.7991 287.132 48.063 290.071 46.9167C293.028 45.7537 296.102 45.1807 299.276 45.1807C303.257 45.1807 306.398 45.737 308.733 46.8663C311.084 47.9788 312.277 49.445 312.277 51.2657C312.277 52.7656 311.454 54.7884 309.808 57.3338C309.119 58.3789 308.565 58.9181 308.145 58.9181C307.91 58.9181 307.792 58.7496 307.792 58.4122V57.3338C307.792 55.193 307.154 53.5241 305.877 52.3444C304.853 51.3162 303.324 50.5071 301.292 49.8665C299.293 49.2427 297.177 48.9395 294.943 48.9395C292.944 48.9395 291.146 49.1923 289.534 49.7319C287.871 50.2544 286.393 51.0463 285.1 52.0914C283.857 53.1197 282.883 54.3669 282.16 55.8502C281.438 57.2664 281.069 58.7835 281.069 60.3847C281.069 61.8342 281.388 63.132 282.009 64.2445C282.563 65.3571 283.588 66.5705 285.066 67.8516C286.494 69.0655 288.661 70.6497 291.549 72.5884L297.949 76.7347C301.762 79.1791 304.382 81.5219 305.827 83.7974C307.271 86.1405 307.994 89.0396 307.994 92.4949C307.994 95.9844 307.271 99.4565 305.827 102.912C304.349 106.367 302.216 109.57 299.427 112.537C293.397 119.06 285.923 122.313 277.037 122.313C272.804 122.313 268.975 121.504 265.515 119.903C262.038 118.285 259.35 116.043 257.452 113.177C255.521 110.346 254.546 107.16 254.546 103.603C254.546 100.872 255.269 97.9564 256.713 94.8548C258.158 91.8039 260.089 89.1071 262.525 86.7641C264.725 84.6573 267.144 83.0557 269.798 81.9771C272.435 80.8813 275.173 80.3421 278.028 80.3421C280.279 80.3421 282.144 80.8476 283.588 81.8759C285.032 82.9209 285.755 84.3033 285.755 86.0226ZM345.837 75.9932L346.475 75.7572C345.955 77.3922 345.45 79.3138 344.997 81.4714C344.56 83.5785 343.972 86.8483 343.217 91.2647C342.629 95.2763 342.226 98.2933 341.99 100.3C341.604 103.283 341.402 105.44 341.402 106.755C341.402 108.829 342.327 109.874 344.157 109.874C344.812 109.874 345.551 109.604 346.374 109.081C346.693 108.845 347.013 108.744 347.315 108.744C347.802 108.744 348.054 108.963 348.054 109.435C348.054 109.688 347.903 109.924 347.601 110.126C347.349 110.312 346.223 110.902 344.258 111.846C343.771 112.082 343.301 112.284 342.881 112.469C342.444 112.655 342.108 112.824 341.839 112.992C339.286 114.172 337.724 114.762 337.17 114.762C335.44 114.762 334.566 113.615 334.566 111.306C334.566 109.654 334.634 108.036 334.751 106.418L334.902 104.294C334.902 103.873 334.919 103.536 334.953 103.3C331.929 106.721 328.939 109.418 325.95 111.357C322.96 113.262 320.272 114.222 317.887 114.222C316.695 114.222 315.788 113.953 315.132 113.43C314.444 112.874 314.091 112.166 314.091 111.306C314.091 110.447 314.444 108.306 315.166 104.884C317.367 94.1808 318.475 87.0676 318.475 83.511C318.475 81.4881 317.854 80.4935 316.594 80.4935C316.241 80.4935 315.737 80.5948 315.082 80.7804L314.091 81.0331C313.503 81.2015 313.083 81.2859 312.865 81.2859C312.361 81.2859 312.126 81.0836 312.126 80.6958C312.126 80.3588 312.294 80.089 312.613 79.9039C313.05 79.7016 313.94 79.3475 315.317 78.8588L318.122 77.8809C322.036 76.499 324.404 75.8076 325.261 75.8076C326.252 75.8076 326.739 76.3977 326.739 77.5778C326.739 78.2012 326.588 79.3475 326.302 80.9827L324.925 87.9441L323.447 95.3605C322.221 101.412 321.616 105.221 321.616 106.755C321.616 107.682 321.868 108.424 322.355 108.98C322.842 109.57 323.514 109.874 324.32 109.874C325.412 109.874 326.605 109.334 327.915 108.239C329.292 107.126 330.552 105.643 331.711 103.805C333.29 101.361 334.6 98.3946 335.641 94.9056C336.699 91.4499 337.724 86.4775 338.749 80.0048C338.849 79.2463 339.202 78.7408 339.824 78.5214C340.126 78.3868 340.395 78.2687 340.646 78.1675C340.882 78.0666 341.47 77.8304 342.393 77.426L345.837 75.9932ZM351.732 114.475C351.901 113.649 351.984 113.228 351.984 113.228L353.21 108.154C353.63 106.503 354.135 104.176 354.739 101.176C355.159 98.9847 355.613 96.4898 356.116 93.7255C356.536 90.9274 356.822 88.905 356.956 87.6576C357.107 85.9383 357.191 84.5726 357.191 83.5447C357.191 81.151 356.351 79.9543 354.689 79.9543C353.966 79.9543 353.177 80.1398 352.32 80.5444C351.833 80.7632 351.48 80.8813 351.296 80.8813C350.792 80.8813 350.557 80.6623 350.557 80.1903C350.557 79.6678 350.993 79.2463 351.884 78.9092C353.026 78.353 354.991 77.6112 357.779 76.6842C360.013 75.8585 361.525 75.4536 362.314 75.4536C363.692 75.4536 364.38 76.2459 364.38 77.8305C364.38 78.5891 364.246 80.1903 363.977 82.6681C363.557 85.7865 363.289 87.7248 363.204 88.4496C363.39 88.2473 363.557 88.045 363.692 87.8428C363.759 87.7753 363.809 87.7248 363.86 87.6744C363.91 87.6239 363.944 87.5901 363.977 87.5563L366.245 84.792C368.58 82.0276 370.931 79.8362 373.283 78.2182C375.718 76.6337 377.918 75.8414 379.884 75.8414C380.959 75.8414 381.849 76.0941 382.538 76.5833C383.193 77.1562 383.529 77.8809 383.529 78.7574C383.529 79.4823 383.26 81.2187 382.739 83.9492L381.698 89.2251C381.496 90.3544 381.311 91.4161 381.127 92.4107C380.959 93.4223 380.824 94.147 380.74 94.6192C380.656 95.074 380.539 95.7822 380.371 96.7092C380.203 97.6529 379.968 99.0182 379.632 100.839C379.145 103.738 378.893 105.609 378.893 106.469C378.893 107.396 379.111 108.12 379.531 108.643C379.934 109.199 380.489 109.486 381.211 109.486C381.597 109.486 382.437 109.3 383.714 108.93C384.217 108.812 384.52 108.744 384.654 108.744C385.141 108.744 385.393 108.98 385.393 109.486C385.393 109.84 384.822 110.244 383.663 110.716L380.572 111.795L377.263 112.941C375.013 113.75 373.484 114.172 372.695 114.172C371.586 114.172 371.015 113.481 371.015 112.098C371.015 111.728 371.082 111.205 371.217 110.514L371.653 108.289C371.821 107.463 371.939 106.924 372.006 106.671C372.073 106.367 372.124 106.098 372.174 105.879C372.224 105.643 372.258 105.474 372.258 105.373C372.342 104.783 372.426 104.345 372.493 104.075C372.56 103.789 372.594 103.586 372.594 103.451L374.173 95.3605C375.449 88.4833 376.088 84.4547 376.088 83.3087C376.088 81.4881 375.332 80.5949 373.82 80.5949C371.502 80.5949 368.915 83.0052 366.094 87.8428C363.372 92.5962 361.189 99.7938 359.56 109.486C359.358 110.598 359.19 111.273 359.056 111.509C358.905 111.761 358.569 112.031 358.082 112.3C355.646 113.413 353.529 114.138 351.732 114.475ZM388.937 114.475C389.105 113.649 389.189 113.228 389.189 113.228L390.415 108.154C390.835 106.503 391.339 104.176 391.944 101.176C392.363 98.9847 392.817 96.4898 393.321 93.7255C393.741 90.9274 394.026 88.905 394.161 87.6576C394.312 85.9383 394.396 84.5726 394.396 83.5447C394.396 81.151 393.556 79.9543 391.894 79.9543C391.171 79.9543 390.382 80.1398 389.525 80.5444C389.038 80.7632 388.685 80.8813 388.5 80.8813C387.997 80.8813 387.761 80.6623 387.761 80.1903C387.761 79.6678 388.198 79.2463 389.088 78.9092C390.231 78.353 392.196 77.6112 394.984 76.6842C397.218 75.8585 398.73 75.4536 399.519 75.4536C400.896 75.4536 401.585 76.2459 401.585 77.8305C401.585 78.5891 401.451 80.1903 401.182 82.6681C400.762 85.7865 400.493 87.7248 400.409 88.4496C400.594 88.2473 400.762 88.045 400.896 87.8428C400.963 87.7753 401.014 87.7248 401.064 87.6744C401.115 87.6239 401.148 87.5901 401.182 87.5563L403.449 84.792C405.784 82.0276 408.136 79.8362 410.487 78.2182C412.923 76.6337 415.123 75.8414 417.089 75.8414C418.163 75.8414 419.054 76.0941 419.742 76.5833C420.398 77.1562 420.733 77.8809 420.733 78.7574C420.733 79.4823 420.464 81.2187 419.944 83.9492L418.902 89.2251C418.701 90.3544 418.516 91.4161 418.331 92.4107C418.163 93.4223 418.029 94.147 417.945 94.6192C417.861 95.074 417.743 95.7822 417.576 96.7092C417.408 97.6529 417.172 99.0182 416.836 100.839C416.349 103.738 416.097 105.609 416.097 106.469C416.097 107.396 416.316 108.12 416.736 108.643C417.139 109.199 417.693 109.486 418.415 109.486C418.801 109.486 419.642 109.3 420.918 108.93C421.422 108.812 421.724 108.744 421.859 108.744C422.346 108.744 422.598 108.98 422.598 109.486C422.598 109.84 422.026 110.244 420.867 110.716L417.777 111.795L414.468 112.941C412.217 113.75 410.689 114.172 409.899 114.172C408.791 114.172 408.22 113.481 408.22 112.098C408.22 111.728 408.287 111.205 408.421 110.514L408.858 108.289C409.026 107.463 409.143 106.924 409.211 106.671C409.278 106.367 409.328 106.098 409.379 105.879C409.429 105.643 409.463 105.474 409.463 105.373C409.547 104.783 409.63 104.345 409.698 104.075C409.765 103.789 409.799 103.586 409.799 103.451L411.377 95.3605C412.654 88.4833 413.292 84.4547 413.292 83.3087C413.292 81.4881 412.536 80.5949 411.025 80.5949C408.707 80.5949 406.12 83.0052 403.298 87.8428C400.577 92.5962 398.394 99.7938 396.765 109.486C396.563 110.598 396.395 111.273 396.26 111.509C396.109 111.761 395.773 112.031 395.286 112.3C392.851 113.413 390.734 114.138 388.937 114.475ZM432.037 114.762L432.827 114.121C432.474 114.121 432.155 114.138 431.869 114.172C431.601 114.205 431.399 114.222 431.315 114.222C429.215 114.222 428.157 113.194 428.157 111.155C428.157 110.666 428.225 110.008 428.359 109.183L429.199 104.244C429.249 104.008 429.384 103.249 429.568 101.951C429.736 100.653 429.955 99.2712 430.173 97.8217C430.307 96.8943 430.408 96.2204 430.475 95.7988C430.543 95.4786 430.593 95.1079 430.643 94.7201C430.694 94.3156 430.727 94.0291 430.761 93.8269C430.794 93.7255 430.862 93.3547 430.962 92.6804C430.996 92.5962 431.013 92.4782 431.03 92.3602C431.046 92.2593 431.063 92.158 431.063 92.0904V91.703C431.063 91.467 431.08 91.2986 431.114 91.1634L431.702 86.5618C431.836 85.6348 431.903 84.5897 431.903 83.4096C431.903 81.1678 431.114 80.0385 429.534 80.0385C428.812 80.0385 428.073 80.207 427.318 80.5444L426.343 80.9318C425.839 81.1006 425.554 81.1849 425.453 81.1849C425 81.1849 424.764 80.9655 424.764 80.5444C424.764 80.2408 424.916 79.9881 425.201 79.7521C425.436 79.5837 426.125 79.2801 427.267 78.8079C432.088 76.7684 435.162 75.7572 436.472 75.7572C438.403 75.7572 439.377 76.7013 439.377 78.6228C439.377 79.5665 439.075 81.9264 438.487 85.6685L437.513 91.9894C437.211 93.776 436.74 97.0966 436.085 101.968C435.85 103.721 435.733 105.221 435.733 106.469C435.733 108.339 436.472 109.284 437.95 109.284C438.941 109.284 440.066 108.828 441.343 107.952C442.586 107.058 443.93 105.727 445.34 103.94C447.591 101.109 449.405 97.8889 450.749 94.2651C452.126 90.5567 452.815 87.118 452.815 83.9997C452.815 81.3029 451.992 79.9543 450.346 79.9543C449.405 79.9543 448.33 80.2071 447.154 80.7467C446.751 80.9318 446.449 81.0331 446.214 81.0331C445.827 81.0331 445.626 80.8137 445.626 80.3926C445.626 79.9376 446.953 79.162 449.607 78.0666C453.487 76.5324 456.124 75.7572 457.535 75.7572C459.466 75.7572 460.441 77.5778 460.441 81.2354C460.441 86.427 458.459 91.922 454.478 97.6699C452.714 100.249 450.715 102.575 448.482 104.682C446.248 106.738 443.023 109.216 438.79 112.149C435.279 114.543 432.474 116.734 430.375 118.706C428.208 120.762 426.629 122.684 425.655 124.488C424.63 126.308 424.126 128.112 424.126 129.932C424.126 131.432 424.697 132.68 425.839 133.623C426.998 134.618 428.459 135.107 430.223 135.107C431.215 135.107 432.054 134.888 432.776 134.466C433.213 134.197 433.465 134.079 433.566 134.079C433.902 134.079 434.07 134.23 434.07 134.567C434.07 135.157 433.18 135.966 431.399 136.978C428.98 138.394 426.461 139.102 423.874 139.102C421.976 139.102 420.515 138.546 419.49 137.433C418.449 136.303 417.928 134.803 417.928 132.882C417.928 131.314 418.264 129.78 418.953 128.297C419.574 126.915 420.7 125.33 422.295 123.561C423.841 121.875 425.957 119.903 428.644 117.627L432.037 114.762ZM523.966 85.9717L524.067 85.0785H523.378C521.312 85.0785 519.952 85.2977 519.28 85.719C518.961 85.8874 518.725 85.9717 518.591 85.9717C518.238 85.9717 518.054 85.7865 518.054 85.4325C518.054 83.9829 520.271 81.7578 524.705 78.7574L524.806 77.7292C525.192 73.7176 525.83 70.279 526.721 67.4471C527.51 64.7503 528.753 62.3062 530.449 60.0982C532.062 57.9911 534.413 55.6312 537.487 53.0354C531.76 52.0409 526.687 51.5522 522.286 51.5522C517.012 51.5522 512.46 52.0409 508.664 53.0354C504.784 54.0804 501.106 55.7659 497.629 58.0753C489.533 63.4017 485.485 70.4812 485.485 79.3138C485.485 82.3308 486.19 85.1627 487.601 87.7923C489.045 90.5399 490.944 92.6467 493.312 94.1133C495.731 95.6976 498.284 96.4898 500.988 96.4898C503.34 96.4898 505.49 95.9845 507.421 94.9561C509.403 93.911 510.931 92.5286 512.057 90.8094C513.166 89.1071 513.72 87.2023 513.72 85.1289C513.72 83.7132 513.485 82.4151 512.981 81.2354C512.427 80.0219 511.721 79.0778 510.865 78.4205C509.957 77.763 508.933 77.426 507.825 77.426C507.136 77.426 506.397 77.6283 505.607 78.0161C505.372 78.1508 505.154 78.2182 504.919 78.2182C504.616 78.2182 504.482 78.0832 504.482 77.8305C504.482 77.3585 504.952 76.7346 505.909 75.9427C507.942 74.3748 509.856 73.5828 511.654 73.5828C513.569 73.5828 515.165 74.3243 516.475 75.8076C517.802 77.2405 518.456 79.061 518.456 81.2354C518.456 83.4096 517.768 85.7527 516.39 88.2981C515.013 90.8264 513.115 93.1526 510.73 95.2596C508.882 96.8943 506.749 98.2091 504.331 99.1532C501.962 100.08 499.544 100.535 497.041 100.535C493.866 100.535 491.078 99.8275 488.676 98.4114C486.19 96.9619 484.275 94.9898 482.965 92.4949C481.588 89.9499 480.899 87.0675 480.899 83.8479C480.899 80.7804 481.453 77.6788 482.579 74.5098C483.721 71.2568 485.317 68.1385 487.349 65.1885C489.415 62.1883 491.8 59.5082 494.488 57.1313C503.205 49.4959 512.527 45.6694 522.437 45.6694C525.091 45.6694 529.291 46.0402 535.035 46.7649C536.076 46.8663 536.882 46.9505 537.437 47.0181C538.008 47.0685 538.478 47.119 538.865 47.1527C539.402 47.2202 540.175 47.3212 541.182 47.4564C542.425 47.6248 543.484 47.7257 544.34 47.7428C544.895 47.8099 545.768 47.9112 546.944 48.046C550.656 48.4171 553.411 48.5855 555.208 48.5855C557.896 48.5855 559.625 48.1135 560.381 47.1527L560.717 46.7145C560.986 46.3437 561.255 46.1753 561.557 46.1753C561.91 46.1753 562.095 46.3437 562.095 46.7145C562.095 47.0686 561.826 47.6923 561.255 48.535C560.667 49.4621 559.928 50.3724 559.054 51.2657C557.711 52.6142 556.4 53.5579 555.158 54.1141C553.881 54.7209 552.503 55.0074 551.025 55.0074C549.782 55.0074 548.019 54.7884 545.768 54.3669C543.299 53.9795 541.737 53.7772 541.082 53.7772C539.251 53.7772 537.454 55.1425 535.723 57.873C535.035 59.0532 534.43 60.4352 533.91 62.0197C533.439 63.4354 532.986 65.5426 532.532 68.3407C532.095 71.0037 531.659 74.1725 531.189 77.8305L531.054 78.9597L532.179 79.0102C534.901 79.2124 537.084 79.3138 538.73 79.3138C544.072 79.3138 547.397 78.7409 548.707 77.6283L549.447 77.0382C549.715 76.8697 549.934 76.7855 550.085 76.7855C550.387 76.7855 550.538 76.9539 550.538 77.2742C550.538 78.4035 549.128 80.2745 546.306 82.9041C544.962 84.1343 544.004 84.8425 543.45 85.028C542.829 85.3312 541.72 85.483 540.158 85.483C539.066 85.483 537.403 85.4325 535.186 85.3312C533.994 85.264 533.17 85.2131 532.667 85.1798H531.44C530.987 85.1798 530.601 85.1627 530.315 85.1289L530.164 85.9717C529.61 89.9836 528.971 93.0345 528.249 95.1079C527.527 97.1475 526.25 99.3892 524.402 101.833C522.605 104.227 520.405 106.435 517.818 108.441C515.248 110.413 512.628 111.913 509.941 112.941C507.186 113.986 504.532 114.509 502.013 114.509C500.316 114.509 498.972 114.121 498.032 113.329C497.041 112.57 496.554 111.559 496.554 110.261C496.554 109.418 496.823 108.39 497.394 107.21C497.948 106.047 498.62 105.036 499.409 104.143C500.451 102.963 501.357 102.373 502.113 102.373C502.466 102.373 502.651 102.524 502.651 102.862C502.651 103.097 502.584 103.266 502.449 103.401C501.929 104.328 501.677 105.053 501.677 105.575C501.677 106.789 502.298 107.784 503.541 108.542C504.784 109.334 506.363 109.722 508.261 109.722C512.796 109.722 516.508 107.766 519.431 103.856C520.774 102.002 521.782 99.9117 522.437 97.5857C522.992 95.3439 523.496 91.467 523.966 85.9717ZM559.877 109.974L559.642 111.694L553.243 114.02C552.873 114.155 552.638 114.222 552.503 114.222C552.134 114.222 551.966 114.037 551.966 113.683C551.966 113.413 552.067 113.042 552.302 112.537C552.638 111.525 552.974 110.16 553.343 108.441C553.562 107.362 554.217 103.637 555.309 97.2821C556.417 90.3711 556.971 85.9383 556.971 83.9997C556.971 82.4151 556.737 81.2187 556.233 80.3926C555.712 79.6003 554.99 79.2124 554.066 79.2124C553.411 79.2124 552.621 79.398 551.664 79.8025C550.975 80.0552 550.572 80.1903 550.488 80.1903C550.051 80.1903 549.85 79.9881 549.85 79.5498C549.85 79.0611 550.337 78.6228 551.311 78.2182C554.099 77.2575 556.048 76.6 557.123 76.2459C558.97 75.6225 560.449 75.3022 561.607 75.3022C562.515 75.3022 563.153 75.5549 563.472 76.0436C563.841 76.5661 564.009 77.4427 564.009 78.6565C564.009 81.1006 563.438 84.7078 562.296 89.4779L562.095 90.4219L562.582 89.5792C563.959 87.0843 565.219 84.9943 566.327 83.3591C567.251 82.0781 568.444 80.7467 569.922 79.398C572.995 76.7013 576.019 75.3526 578.975 75.3526C580.353 75.3526 581.041 75.7234 581.041 76.4482C581.041 76.7013 580.974 76.9878 580.84 77.2742L580.688 77.78L578.623 83.9492C578.471 84.4042 578.253 84.6402 577.984 84.6402C577.699 84.6402 577.497 84.4042 577.396 83.9492C577.161 82.4321 576.086 81.6736 574.155 81.6736C570.846 81.6736 568.058 83.5109 565.84 87.1519C564.715 89.0059 563.791 91.1633 563.035 93.6246C562.279 96.1358 561.557 99.5576 560.868 103.907C560.734 104.749 560.532 105.98 560.28 107.548C560.146 108.575 560.012 109.385 559.877 109.974ZM614.954 75.9932L615.592 75.7572C615.071 77.3922 614.567 79.3138 614.114 81.4714C613.677 83.5785 613.089 86.8483 612.333 91.2647C611.745 95.2763 611.342 98.2933 611.107 100.3C610.721 103.283 610.519 105.44 610.519 106.755C610.519 108.829 611.443 109.874 613.274 109.874C613.929 109.874 614.668 109.604 615.491 109.081C615.81 108.845 616.13 108.744 616.432 108.744C616.919 108.744 617.171 108.963 617.171 109.435C617.171 109.688 617.02 109.924 616.717 110.126C616.466 110.312 615.34 110.902 613.375 111.846C612.888 112.082 612.417 112.284 611.998 112.469C611.561 112.655 611.225 112.824 610.956 112.992C608.403 114.172 606.841 114.762 606.287 114.762C604.557 114.762 603.683 113.615 603.683 111.306C603.683 109.654 603.75 108.036 603.868 106.418L604.019 104.294C604.019 103.873 604.036 103.536 604.07 103.3C601.046 106.721 598.056 109.418 595.067 111.357C592.077 113.262 589.389 114.222 587.004 114.222C585.812 114.222 584.904 113.953 584.249 113.43C583.561 112.874 583.208 112.166 583.208 111.306C583.208 110.447 583.561 108.306 584.283 104.884C586.484 94.1808 587.592 87.0676 587.592 83.511C587.592 81.4881 586.97 80.4935 585.711 80.4935C585.358 80.4935 584.854 80.5948 584.199 80.7804L583.208 81.0331C582.62 81.2015 582.2 81.2859 581.982 81.2859C581.478 81.2859 581.243 81.0836 581.243 80.6958C581.243 80.3588 581.411 80.089 581.73 79.9039C582.166 79.7016 583.057 79.3475 584.434 78.8588L587.239 77.8809C591.153 76.499 593.521 75.8076 594.378 75.8076C595.369 75.8076 595.856 76.3977 595.856 77.5778C595.856 78.2012 595.705 79.3475 595.419 80.9827L594.042 87.9441L592.564 95.3605C591.337 101.412 590.733 105.221 590.733 106.755C590.733 107.682 590.985 108.424 591.472 108.98C591.959 109.57 592.631 109.874 593.437 109.874C594.529 109.874 595.721 109.334 597.032 108.239C598.409 107.126 599.669 105.643 600.828 103.805C602.407 101.361 603.717 98.3946 604.758 94.9056C605.816 91.4499 606.841 86.4775 607.865 80.0048C607.966 79.2463 608.319 78.7408 608.941 78.5214C609.243 78.3868 609.512 78.2687 609.763 78.1675C609.999 78.0666 610.587 77.8304 611.51 77.426L614.954 75.9932ZM637.73 54.8051C638.217 54.8051 638.469 55.1088 638.469 55.6988C638.469 55.8672 638.335 56.4403 638.066 57.4348C638.066 57.4686 637.982 57.7717 637.831 58.3618C637.696 58.9014 637.595 59.2555 637.529 59.4577C637.176 60.9409 636.84 61.9355 636.554 62.458C636.286 62.9297 635.731 63.3512 634.874 63.7558C633.564 64.3796 632.741 64.8007 632.405 65.0369C632.12 65.239 631.784 65.6098 631.431 66.166L630.843 67.1101C630.272 67.9697 629.852 68.3912 629.55 68.3912C629.332 68.3912 629.214 68.2899 629.214 68.1047C629.214 68.0034 629.248 67.7844 629.315 67.4471C629.802 65.4751 630.222 63.5702 630.541 61.7328C630.927 59.491 631.23 58.1429 631.431 57.6708C631.599 57.283 632.002 56.9461 632.658 56.6933L634.673 55.9516C634.807 55.884 634.925 55.8168 635.042 55.783C635.16 55.7322 635.311 55.665 635.513 55.5975C635.647 55.5299 635.815 55.4628 636 55.412C636.201 55.3448 636.353 55.2943 636.454 55.2606C637.042 54.957 637.461 54.8051 637.73 54.8051ZM626.56 82.0781C626.56 80.4602 626.023 79.6507 624.931 79.6507C624.276 79.6507 623.184 80.0724 621.639 80.9318C621.202 81.2354 620.849 81.3872 620.547 81.3872C620.194 81.3872 620.009 81.1678 620.009 80.7467C620.009 80.3755 620.228 80.0724 620.648 79.853C620.916 79.6846 621.958 79.2125 623.806 78.4205C628.324 76.5157 631.095 75.5549 632.12 75.5549C633.396 75.5549 634.035 76.364 634.035 77.9652C634.035 78.9936 633.514 82.1119 632.456 87.3036L631.23 93.3377C630.054 99.0856 629.466 103.148 629.466 105.474C629.466 108.441 630.323 109.924 632.07 109.924C632.59 109.924 633.514 109.587 634.824 108.93C635.16 108.711 635.462 108.593 635.765 108.593C636.117 108.593 636.302 108.744 636.302 109.031C636.302 109.435 636.017 109.772 635.462 110.076C635.16 110.261 633.917 110.851 631.717 111.795C628.24 113.278 625.805 114.02 624.393 114.02C623.503 114.02 622.865 113.801 622.479 113.379C622.075 112.924 621.874 112.267 621.874 111.407C621.874 110.716 622.378 107.682 623.352 102.322C624.796 94.383 625.704 89.1071 626.073 86.4609C626.392 84.1682 626.56 82.702 626.56 82.0781ZM644.953 82.0781L645.104 81.0331C643.206 81.1341 641.895 81.3872 641.207 81.7746C640.686 82.0781 640.35 82.2128 640.182 82.2128C639.779 82.2128 639.594 82.0781 639.594 81.7746C639.594 81.4542 639.947 80.915 640.669 80.1903L643.575 77.0887C644.029 76.5495 644.482 76.0774 644.902 75.6562C645.171 75.3526 645.44 75.0491 645.742 74.746C646.028 74.4257 646.33 74.1055 646.632 73.7681L649.723 70.4136C651.688 68.2394 652.914 67.1606 653.368 67.1606C653.754 67.1606 653.956 67.3629 653.956 67.7507C653.956 67.7507 653.922 67.9192 653.855 68.2394C653.502 69.4361 653.166 70.8014 652.881 72.3356L652.377 74.813C652.377 74.8806 652.309 75.1842 652.192 75.7572H653.015H655.333C657.869 75.7572 659.515 75.6896 660.305 75.5549C661.161 75.4536 661.867 75.1671 662.421 74.7121C662.841 74.3919 663.127 74.2234 663.261 74.2234C663.748 74.2234 664 74.4594 664 74.9648C664 75.218 663.647 75.8414 662.958 76.836C662.169 77.898 661.38 78.825 660.557 79.6507C659.868 80.3421 659.364 80.7633 659.079 80.8813C658.675 81.0499 658.171 81.1341 657.55 81.1341C657.416 81.1341 657.13 81.1173 656.693 81.0836C656.24 81.0498 655.719 81.0331 655.098 81.0331C653.703 80.9655 653.032 80.9318 653.065 80.9318C652.309 80.9318 651.806 81.0836 651.554 81.3872C651.285 81.7411 651.084 82.4658 650.949 83.5447L650.075 89.7815L649.084 96.5911C648.329 102.086 647.959 105.322 647.959 106.317C647.959 108.626 648.715 109.772 650.21 109.772C651.067 109.772 652.091 109.486 653.267 108.879C653.637 108.693 653.888 108.593 654.056 108.593C654.191 108.593 654.325 108.66 654.443 108.795C654.577 108.913 654.644 109.065 654.644 109.233C654.644 109.722 653.284 110.565 650.563 111.745C647.086 113.329 644.785 114.121 643.676 114.121C642.887 114.121 642.215 113.784 641.66 113.127C641.123 112.503 640.871 111.694 640.871 110.716C640.871 109.857 640.972 108.744 641.157 107.362L642.047 100.636C642.97 94.1808 643.642 89.7139 644.062 87.2024L644.953 82.0781Z" fill="url(#paint1_linear_1367_123)"></path><path fill-rule="evenodd" clip-rule="evenodd" d="M479.005 127.835L478.796 128.791C480.828 128.957 481.012 129.256 480.548 131.627L478.573 141.946C478.109 144.254 477.925 144.458 475.893 144.623L475.67 145.579H484.137L484.34 144.623C481.889 144.4 481.609 144.273 482.073 141.946L482.835 138.039L484.899 138.524C485.159 138.581 485.388 138.543 485.68 138.543C489.555 138.243 492.476 136.165 492.476 132.539C492.476 128.81 489.332 127.835 485.979 127.835H479.005ZM484.251 130.665C484.397 129.766 484.55 129.352 484.81 129.186C485.032 129.052 485.388 128.944 485.922 128.944C487.541 128.944 488.716 129.97 488.716 132.213C488.716 134.776 487.173 137.281 484.677 137.281C483.972 137.281 483.432 137.134 483.076 137L484.251 130.665ZM508.939 144.929C508.342 144.745 507.917 144.579 507.377 143.865C506.951 143.253 506.424 142.297 505.662 140.805C505.014 139.499 504.341 137.67 504.118 137.21C506.405 136.503 508.437 134.878 508.437 132.182C508.437 130.493 507.675 129.371 506.595 128.676C505.478 128.007 503.877 127.841 502.22 127.841H495.188L494.928 128.791C497.1 128.938 497.291 129.071 496.859 131.296L494.795 142.016C494.388 144.196 494.032 144.458 492.057 144.623L491.835 145.579H499.971L500.193 144.623C498.18 144.458 497.919 144.196 498.313 141.997L499.075 137.893H499.761C500.6 137.893 500.917 138.301 501.216 139.199C501.68 140.5 502.315 142.067 502.874 143.189C503.744 144.872 504.525 145.809 508.342 145.809H508.698L508.939 144.929ZM499.26 136.822L500.492 130.384C500.6 129.804 500.733 129.485 500.917 129.314C501.159 129.071 501.514 128.975 502.073 128.975C503.414 128.975 504.639 129.989 504.639 132.309C504.639 133.864 503.953 135.343 502.664 136.172C501.845 136.656 500.974 136.822 499.952 136.822H499.26ZM521.35 127.421C515.126 127.421 510.921 132.475 510.921 138.077C510.921 142.966 514.141 146 518.822 146C525.008 146 529.289 141.417 529.289 135.445C529.289 130.684 526.088 127.421 521.35 127.421ZM521.185 128.593C524.005 128.593 525.211 131.155 525.211 134.865C525.211 139.55 522.722 144.814 518.987 144.814C516.091 144.814 514.96 142.259 514.96 138.677C514.96 133.616 517.723 128.593 521.185 128.593ZM532.528 127.841L532.287 128.791C534.447 128.957 534.618 129.275 534.224 131.347L532.198 142.131C531.842 144.056 531.582 144.47 529.461 144.636L529.219 145.579H535.92C539.508 145.579 542.506 145.095 544.939 143.686C548.14 141.831 549.537 138.861 549.537 135.515C549.537 130.231 545.892 127.841 539.788 127.841H532.528ZM537.908 130.697C538.073 129.836 538.245 129.485 538.41 129.314C538.651 129.071 539.153 128.975 539.915 128.975C543.954 128.975 545.498 132.194 545.498 135.292C545.498 140.225 542.392 144.356 537.724 144.356C537.222 144.356 536.701 144.324 536.269 144.043C535.71 143.686 535.621 143.202 535.92 141.608L537.908 130.697ZM571.717 127.835H564.685L564.444 128.791C566.286 128.88 567.105 129.256 567.048 130.486C566.991 131.404 566.826 132.762 566.432 135.024L566.045 137.115C565.206 141.742 563.288 144.132 560.144 144.132C557.369 144.132 555.902 142.17 556.721 137.931L557.909 131.532C558.341 129.18 558.652 128.957 560.5 128.791L560.741 127.835H552.58L552.338 128.791C554.511 128.957 554.695 129.314 554.288 131.513L553.1 137.784C552.415 141.29 553.1 143.31 554.453 144.483C555.717 145.586 557.35 145.994 559.192 145.994C560.983 145.994 562.844 145.401 564.254 144.075C566.095 142.354 566.915 139.856 567.347 137.542L567.829 135.024C568.274 132.762 568.63 131.385 568.928 130.543C569.354 129.256 569.951 128.842 571.494 128.791L571.717 127.835ZM586.407 140.187C584.216 143.342 582.463 144.782 580.304 144.782C577.42 144.782 575.451 142.131 575.451 137.816C575.451 132.762 578.874 128.599 582.927 128.599C585.067 128.599 586.649 129.492 587.208 132.985L588.192 132.832C588.306 131.181 588.402 129.638 588.44 128.217C587.729 127.988 586.128 127.414 583.505 127.414C576.937 127.414 571.335 131.321 571.335 138.058C571.335 143.196 575.038 145.994 580.024 145.994C582.222 145.994 584.102 145.509 585.048 145.248C585.702 144.203 586.782 142.093 587.36 140.563L586.407 140.187ZM606.16 127.166C605.646 127.688 605.5 127.841 604.801 127.841H593.731C592.987 127.841 592.708 127.784 592.429 127.166H591.698C591.387 128.644 590.879 130.582 590.288 132.36H591.292C591.869 131.143 592.238 130.435 592.721 129.893C593.299 129.275 593.769 129.014 595.96 129.014H597.116L594.62 142.067C594.251 144.05 594.029 144.458 591.647 144.623L591.438 145.579H600.374L600.596 144.623C597.992 144.458 597.878 144.082 598.272 142.067L600.723 129.014H602.14C603.607 129.014 604.337 129.129 604.763 129.728C605.118 130.231 605.188 131.143 605.188 132.392L606.217 132.341C606.421 130.697 606.738 128.23 606.941 127.166H606.16ZM617.072 127.835H608.834L608.593 128.791C610.86 128.957 611.044 129.199 610.619 131.404L608.554 141.991C608.123 144.196 607.881 144.458 605.893 144.623L605.69 145.579H613.947L614.169 144.623C611.883 144.458 611.737 144.196 612.162 141.991L614.188 131.404C614.62 129.199 614.785 128.957 616.85 128.791L617.072 127.835ZM627.761 127.421C621.537 127.421 617.332 132.475 617.332 138.077C617.332 142.966 620.552 146 625.233 146C631.42 146 635.7 141.417 635.7 135.445C635.7 130.684 632.499 127.421 627.761 127.421ZM627.596 128.593C630.416 128.593 631.623 131.155 631.623 134.865C631.623 139.55 629.133 144.814 625.398 144.814C622.502 144.814 621.372 142.259 621.372 138.677C621.372 133.616 624.135 128.593 627.596 128.593ZM657.27 127.835H650.512L650.29 128.791C652.189 128.88 652.836 129.275 652.767 130.639C652.709 131.404 652.595 132.468 652.093 135.343L651.109 140.557H651.052L643.405 127.835H638.324L638.101 128.791C639.238 128.88 640 128.975 640.318 129.613C640.617 130.136 640.782 130.786 640.299 133.087L639.181 138.352C638.622 140.945 638.286 142.048 638.025 142.89C637.619 144.139 637.079 144.553 635.624 144.623L635.364 145.579H642.141L642.363 144.623C640.375 144.515 639.867 144.05 639.924 142.717C639.943 141.902 640.057 140.703 640.54 138.294L641.766 131.889H641.804L649.991 145.885H651.446L653.491 135.292C654.031 132.43 654.329 131.347 654.589 130.506C654.926 129.364 655.333 128.842 657.048 128.791L657.27 127.835Z" fill="url(#paint2_linear_1367_123)"></path><path fill-rule="evenodd" clip-rule="evenodd" d="M397 43.0321C415.156 43.0321 429.103 50.716 438.723 63.9325H355.278C364.898 49.9065 378.845 43.0321 397 43.0321ZM449.307 63.9325H454.312H466.737V60.3026H456.501L461.53 51.9623L471.421 35.5578L453.393 41.9073L442.857 45.6177L443.773 42.6079L446.909 32.2947L437.954 38.2536L435.342 39.9911L436.52 28.5458L438.485 9.47378L424.885 22.9412L416.329 31.414L415.693 27.4061L414.004 16.7581L408.56 26.0542L407.168 28.4322L403.454 18.0473L397.001 0L390.547 18.0473L386.445 29.5197L384.043 26.0615L377.899 17.2163L377.036 27.9638L376.791 31.0108L368.71 23.0979L355.037 9.70603L357.106 28.7668L358.306 39.8269L355.574 38.2498L346.259 32.8755L350.042 42.9669L351.129 45.8637L340.395 42.1311L322.342 35.8529L332.298 52.2181L337.217 60.3026H327.027V63.9325H339.425H344.458H345.281C357.526 46.0031 374.459 35.2668 397 35.2668C419.542 35.2668 435.669 46.0031 447.913 63.9325H449.307Z" fill="url(#paint3_linear_1367_123)"></path><defs><linearGradient id="paint0_linear_1367_123" x1="115.99" y1="45.6035" x2="115.99" y2="123.094" gradientUnits="userSpaceOnUse"><stop stop-color="#EA920E"></stop><stop offset="1" stop-color="#DDBE3D"></stop></linearGradient><linearGradient id="paint1_linear_1367_123" x1="459.273" y1="45.1807" x2="459.273" y2="139.102" gradientUnits="userSpaceOnUse"><stop stop-color="#EA920E"></stop><stop offset="1" stop-color="#DDBE3D"></stop></linearGradient><linearGradient id="paint2_linear_1367_123" x1="566.47" y1="127.166" x2="566.47" y2="146" gradientUnits="userSpaceOnUse"><stop stop-color="#EA920E"></stop><stop offset="1" stop-color="#DDBE3D"></stop></linearGradient><linearGradient id="paint3_linear_1367_123" x1="396.882" y1="0" x2="396.882" y2="63.9325" gradientUnits="userSpaceOnUse"><stop stop-color="#EA920E"></stop><stop offset="1" stop-color="#DDBE3D"></stop></linearGradient></defs></svg> 