<svg width="16" height="16" viewBox="0 0 16 16" fill="none" xmlns="http://www.w3.org/2000/svg">
<g clip-path="url(#clip0_947_346)">
<path d="M8 16C12.4183 16 16 12.4183 16 8C16 3.58172 12.4183 0 8 0C3.58172 0 0 3.58172 0 8C0 12.4183 3.58172 16 8 16Z" fill="#D80027"/>
<path d="M4.37812 4.86895L5.06875 6.99395H7.30312L5.49687 8.30957L6.1875 10.4346L4.37812 9.12207L2.56875 10.4346L3.2625 8.30957L1.45312 6.99395H3.6875L4.37812 4.86895ZM9.48438 12.3908L8.95625 11.7408L8.175 12.0439L8.62813 11.3408L8.1 10.6877L8.90938 10.9033L9.36562 10.2002L9.40938 11.0377L10.2219 11.2533L9.4375 11.5533L9.48438 12.3908ZM10.5344 10.4846L10.7844 9.68457L10.1 9.2002L10.9375 9.1877L11.1844 8.3877L11.4563 9.18145L12.2937 9.17207L11.6219 9.67207L11.8906 10.4658L11.2063 9.98145L10.5344 10.4846ZM11.95 5.87207L11.5813 6.6252L12.1812 7.20957L11.3531 7.09082L10.9844 7.84082L10.8406 7.01582L10.0094 6.89707L10.7531 6.50645L10.6094 5.67832L11.2094 6.2627L11.95 5.87207ZM9.50625 3.59082L9.44375 4.4252L10.2219 4.74082L9.40625 4.94082L9.34688 5.77832L8.90625 5.06582L8.09062 5.26582L8.63125 4.6252L8.1875 3.91582L8.96562 4.23145L9.50625 3.59082Z" fill="#FFDA44"/>
</g>
<defs>
<clipPath id="clip0_947_346">
<rect width="16" height="16" fill="white"/>
</clipPath>
</defs>
</svg>
